<svg width="37" height="36" viewBox="0 0 37 36" fill="none" xmlns="http://www.w3.org/2000/svg">
<rect x="1.33334" y="0.5" width="35" height="35" rx="17.5" fill="white"/>
<path d="M12.6941 9.04545L12.4129 21.3693H9.66857L9.39584 9.04545H12.6941ZM11.0407 26.6875C10.5237 26.6875 10.0805 26.5057 9.71118 26.142C9.34755 25.7784 9.16573 25.3352 9.16573 24.8125C9.16573 24.3011 9.34755 23.8636 9.71118 23.5C10.0805 23.1364 10.5237 22.9545 11.0407 22.9545C11.5464 22.9545 11.9839 23.1364 12.3532 23.5C12.7282 23.8636 12.9157 24.3011 12.9157 24.8125C12.9157 25.1591 12.8277 25.4744 12.6515 25.7585C12.4811 26.0426 12.2538 26.2699 11.9697 26.4403C11.6913 26.6051 11.3816 26.6875 11.0407 26.6875ZM20.1004 9.04545L19.8191 21.3693H17.0748L16.8021 9.04545H20.1004ZM18.447 26.6875C17.9299 26.6875 17.4868 26.5057 17.1174 26.142C16.7538 25.7784 16.572 25.3352 16.572 24.8125C16.572 24.3011 16.7538 23.8636 17.1174 23.5C17.4868 23.1364 17.9299 22.9545 18.447 22.9545C18.9527 22.9545 19.3902 23.1364 19.7595 23.5C20.1345 23.8636 20.322 24.3011 20.322 24.8125C20.322 25.1591 20.2339 25.4744 20.0578 25.7585C19.8873 26.0426 19.66 26.2699 19.376 26.4403C19.0975 26.6051 18.7879 26.6875 18.447 26.6875ZM27.5066 9.04545L27.2254 21.3693H24.4811L24.2083 9.04545H27.5066ZM25.8532 26.6875C25.3362 26.6875 24.893 26.5057 24.5237 26.142C24.16 25.7784 23.9782 25.3352 23.9782 24.8125C23.9782 24.3011 24.16 23.8636 24.5237 23.5C24.893 23.1364 25.3362 22.9545 25.8532 22.9545C26.3589 22.9545 26.7964 23.1364 27.1657 23.5C27.5407 23.8636 27.7282 24.3011 27.7282 24.8125C27.7282 25.1591 27.6402 25.4744 27.464 25.7585C27.2936 26.0426 27.0663 26.2699 26.7822 26.4403C26.5038 26.6051 26.1941 26.6875 25.8532 26.6875Z" fill="#44544A"/>
<rect x="1.33334" y="0.5" width="35" height="35" rx="17.5" stroke="#44544A"/>
</svg>
