<svg width="36" height="36" viewBox="0 0 36 36" fill="none" xmlns="http://www.w3.org/2000/svg">
<rect width="36" height="36" rx="18" fill="#EFD756"/>
<path d="M15.8608 9.04545L15.5795 21.3693H12.8352L12.5625 9.04545H15.8608ZM14.2074 26.6875C13.6903 26.6875 13.2472 26.5057 12.8778 26.142C12.5142 25.7784 12.3324 25.3352 12.3324 24.8125C12.3324 24.3011 12.5142 23.8636 12.8778 23.5C13.2472 23.1364 13.6903 22.9545 14.2074 22.9545C14.7131 22.9545 15.1506 23.1364 15.5199 23.5C15.8949 23.8636 16.0824 24.3011 16.0824 24.8125C16.0824 25.1591 15.9943 25.4744 15.8182 25.7585C15.6477 26.0426 15.4205 26.2699 15.1364 26.4403C14.858 26.6051 14.5483 26.6875 14.2074 26.6875ZM23.267 9.04545L22.9858 21.3693H20.2415L19.9688 9.04545H23.267ZM21.6136 26.6875C21.0966 26.6875 20.6534 26.5057 20.2841 26.142C19.9205 25.7784 19.7386 25.3352 19.7386 24.8125C19.7386 24.3011 19.9205 23.8636 20.2841 23.5C20.6534 23.1364 21.0966 22.9545 21.6136 22.9545C22.1193 22.9545 22.5568 23.1364 22.9261 23.5C23.3011 23.8636 23.4886 24.3011 23.4886 24.8125C23.4886 25.1591 23.4006 25.4744 23.2244 25.7585C23.054 26.0426 22.8267 26.2699 22.5426 26.4403C22.2642 26.6051 21.9545 26.6875 21.6136 26.6875Z" fill="white"/>
</svg>
