<svg width="36" height="36" viewBox="0 0 36 36" fill="none" xmlns="http://www.w3.org/2000/svg">
<rect x="0.5" y="0.5" width="35" height="35" rx="17.5" fill="white"/>
<path d="M12 19.5C12 20.3667 12.175 21.1875 12.525 21.9625C12.875 22.7375 13.375 23.4167 14.025 24C14.0083 23.9167 14 23.8417 14 23.775V23.55C14 23.0167 14.1 22.5167 14.3 22.05C14.5 21.5833 14.7917 21.1583 15.175 20.775L18 18L20.825 20.775C21.2083 21.1583 21.5 21.5833 21.7 22.05C21.9 22.5167 22 23.0167 22 23.55V23.775C22 23.8417 21.9917 23.9167 21.975 24C22.625 23.4167 23.125 22.7375 23.475 21.9625C23.825 21.1875 24 20.3667 24 19.5C24 18.6667 23.8458 17.8792 23.5375 17.1375C23.2292 16.3958 22.7833 15.7333 22.2 15.15C21.8667 15.3667 21.5167 15.5292 21.15 15.6375C20.7833 15.7458 20.4083 15.8 20.025 15.8C18.9917 15.8 18.0958 15.4583 17.3375 14.775C16.5792 14.0917 16.1417 13.25 16.025 12.25C15.375 12.8 14.8 13.3708 14.3 13.9625C13.8 14.5542 13.3792 15.1542 13.0375 15.7625C12.6958 16.3708 12.4375 16.9917 12.2625 17.625C12.0875 18.2583 12 18.8833 12 19.5ZM18 20.8L16.575 22.2C16.3917 22.3833 16.25 22.5917 16.15 22.825C16.05 23.0583 16 23.3 16 23.55C16 24.0833 16.1958 24.5417 16.5875 24.925C16.9792 25.3083 17.45 25.5 18 25.5C18.55 25.5 19.0208 25.3083 19.4125 24.925C19.8042 24.5417 20 24.0833 20 23.55C20 23.2833 19.95 23.0375 19.85 22.8125C19.75 22.5875 19.6083 22.3833 19.425 22.2L18 20.8ZM18 8.5V11.8C18 12.3667 18.1958 12.8417 18.5875 13.225C18.9792 13.6083 19.4583 13.8 20.025 13.8C20.325 13.8 20.6042 13.7375 20.8625 13.6125C21.1208 13.4875 21.35 13.3 21.55 13.05L22 12.5C23.2333 13.2 24.2083 14.175 24.925 15.425C25.6417 16.675 26 18.0333 26 19.5C26 21.7333 25.225 23.625 23.675 25.175C22.125 26.725 20.2333 27.5 18 27.5C15.7667 27.5 13.875 26.725 12.325 25.175C10.775 23.625 10 21.7333 10 19.5C10 17.35 10.7208 15.3083 12.1625 13.375C13.6042 11.4417 15.55 9.81667 18 8.5Z" fill="#44544A"/>
<rect x="0.5" y="0.5" width="35" height="35" rx="17.5" stroke="#44544A"/>
</svg>
