<svg width="36" height="36" viewBox="0 0 36 36" fill="none" xmlns="http://www.w3.org/2000/svg">
<rect width="36" height="36" rx="18" fill="#E93353"/>
<path d="M9.11133 20.2222C9.11133 18.2778 9.57429 16.5463 10.5002 15.0278C11.4261 13.5093 12.4447 12.2315 13.5558 11.1944C14.6669 10.1574 15.6854 9.36574 16.6113 8.81944L18.0002 8V11.6667C18.0002 12.3519 18.2317 12.8935 18.6947 13.2917C19.1576 13.6898 19.6761 13.8889 20.2502 13.8889C20.565 13.8889 20.866 13.8241 21.153 13.6944C21.44 13.5648 21.7039 13.3519 21.9447 13.0556L22.4447 12.4444C23.778 13.2222 24.8521 14.3009 25.6669 15.6806C26.4817 17.0602 26.8891 18.5741 26.8891 20.2222C26.8891 21.8519 26.491 23.338 25.6947 24.6806C24.8984 26.0231 23.8521 27.0833 22.5558 27.8611C22.8706 27.4167 23.116 26.9306 23.2919 26.4028C23.4678 25.875 23.5558 25.3148 23.5558 24.7222C23.5558 23.9815 23.4169 23.2824 23.1391 22.625C22.8613 21.9676 22.4632 21.3796 21.9447 20.8611L18.0002 17L14.0836 20.8611C13.5465 21.3981 13.1391 21.9907 12.8613 22.6389C12.5836 23.287 12.4447 23.9815 12.4447 24.7222C12.4447 25.3148 12.5326 25.875 12.7086 26.4028C12.8845 26.9306 13.1298 27.4167 13.4447 27.8611C12.1484 27.0833 11.1021 26.0231 10.3058 24.6806C9.50948 23.338 9.11133 21.8519 9.11133 20.2222ZM18.0002 20.1111L20.3613 22.4167C20.6761 22.7315 20.9169 23.0833 21.0836 23.4722C21.2502 23.8611 21.3336 24.2778 21.3336 24.7222C21.3336 25.6296 21.0095 26.4028 20.3613 27.0417C19.7132 27.6806 18.9261 28 18.0002 28C17.0743 28 16.2873 27.6806 15.6391 27.0417C14.991 26.4028 14.6669 25.6296 14.6669 24.7222C14.6669 24.2963 14.7502 23.8843 14.9169 23.4861C15.0836 23.088 15.3243 22.7315 15.6391 22.4167L18.0002 20.1111Z" fill="white"/>
</svg>
