<svg width="36" height="36" viewBox="0 0 36 36" fill="none" xmlns="http://www.w3.org/2000/svg">
<rect width="36" height="36" rx="18" fill="#00D6C9"/>
<path d="M19.3608 9.04545L19.0795 21.3693H16.3352L16.0625 9.04545H19.3608ZM17.7074 26.6875C17.1903 26.6875 16.7472 26.5057 16.3778 26.142C16.0142 25.7784 15.8324 25.3352 15.8324 24.8125C15.8324 24.3011 16.0142 23.8636 16.3778 23.5C16.7472 23.1364 17.1903 22.9545 17.7074 22.9545C18.2131 22.9545 18.6506 23.1364 19.0199 23.5C19.3949 23.8636 19.5824 24.3011 19.5824 24.8125C19.5824 25.1591 19.4943 25.4744 19.3182 25.7585C19.1477 26.0426 18.9205 26.2699 18.6364 26.4403C18.358 26.6051 18.0483 26.6875 17.7074 26.6875Z" fill="white"/>
</svg>
