<svg width="36" height="36" viewBox="0 0 36 36" fill="none" xmlns="http://www.w3.org/2000/svg">
<rect width="36" height="36" rx="18" fill="#FA6140"/>
<path d="M11.8608 9.04545L11.5795 21.3693H8.83523L8.5625 9.04545H11.8608ZM10.2074 26.6875C9.69034 26.6875 9.24716 26.5057 8.87784 26.142C8.5142 25.7784 8.33239 25.3352 8.33239 24.8125C8.33239 24.3011 8.5142 23.8636 8.87784 23.5C9.24716 23.1364 9.69034 22.9545 10.2074 22.9545C10.7131 22.9545 11.1506 23.1364 11.5199 23.5C11.8949 23.8636 12.0824 24.3011 12.0824 24.8125C12.0824 25.1591 11.9943 25.4744 11.8182 25.7585C11.6477 26.0426 11.4205 26.2699 11.1364 26.4403C10.858 26.6051 10.5483 26.6875 10.2074 26.6875ZM19.267 9.04545L18.9858 21.3693H16.2415L15.9688 9.04545H19.267ZM17.6136 26.6875C17.0966 26.6875 16.6534 26.5057 16.2841 26.142C15.9205 25.7784 15.7386 25.3352 15.7386 24.8125C15.7386 24.3011 15.9205 23.8636 16.2841 23.5C16.6534 23.1364 17.0966 22.9545 17.6136 22.9545C18.1193 22.9545 18.5568 23.1364 18.9261 23.5C19.3011 23.8636 19.4886 24.3011 19.4886 24.8125C19.4886 25.1591 19.4006 25.4744 19.2244 25.7585C19.054 26.0426 18.8267 26.2699 18.5426 26.4403C18.2642 26.6051 17.9545 26.6875 17.6136 26.6875ZM26.6733 9.04545L26.392 21.3693H23.6477L23.375 9.04545H26.6733ZM25.0199 26.6875C24.5028 26.6875 24.0597 26.5057 23.6903 26.142C23.3267 25.7784 23.1449 25.3352 23.1449 24.8125C23.1449 24.3011 23.3267 23.8636 23.6903 23.5C24.0597 23.1364 24.5028 22.9545 25.0199 22.9545C25.5256 22.9545 25.9631 23.1364 26.3324 23.5C26.7074 23.8636 26.8949 24.3011 26.8949 24.8125C26.8949 25.1591 26.8068 25.4744 26.6307 25.7585C26.4602 26.0426 26.233 26.2699 25.9489 26.4403C25.6705 26.6051 25.3608 26.6875 25.0199 26.6875Z" fill="white"/>
</svg>
