<svg width="37" height="36" viewBox="0 0 37 36" fill="none" xmlns="http://www.w3.org/2000/svg">
<rect x="1" y="0.5" width="35" height="35" rx="17.5" fill="white"/>
<path d="M19.8608 9.04545L19.5795 21.3693H16.8352L16.5625 9.04545H19.8608ZM18.2074 26.6875C17.6903 26.6875 17.2472 26.5057 16.8778 26.142C16.5142 25.7784 16.3324 25.3352 16.3324 24.8125C16.3324 24.3011 16.5142 23.8636 16.8778 23.5C17.2472 23.1364 17.6903 22.9545 18.2074 22.9545C18.7131 22.9545 19.1506 23.1364 19.5199 23.5C19.8949 23.8636 20.0824 24.3011 20.0824 24.8125C20.0824 25.1591 19.9943 25.4744 19.8182 25.7585C19.6477 26.0426 19.4205 26.2699 19.1364 26.4403C18.858 26.6051 18.5483 26.6875 18.2074 26.6875Z" fill="#44544A"/>
<rect x="1" y="0.5" width="35" height="35" rx="17.5" stroke="#44544A"/>
</svg>
