<svg width="37" height="36" viewBox="0 0 37 36" fill="none" xmlns="http://www.w3.org/2000/svg">
<rect x="0.666672" y="0.5" width="35" height="35" rx="17.5" fill="white"/>
<path d="M16.0275 9.04545L15.7462 21.3693H13.0019L12.7292 9.04545H16.0275ZM14.3741 26.6875C13.857 26.6875 13.4138 26.5057 13.0445 26.142C12.6809 25.7784 12.4991 25.3352 12.4991 24.8125C12.4991 24.3011 12.6809 23.8636 13.0445 23.5C13.4138 23.1364 13.857 22.9545 14.3741 22.9545C14.8797 22.9545 15.3172 23.1364 15.6866 23.5C16.0616 23.8636 16.2491 24.3011 16.2491 24.8125C16.2491 25.1591 16.161 25.4744 15.9849 25.7585C15.8144 26.0426 15.5871 26.2699 15.303 26.4403C15.0246 26.6051 14.715 26.6875 14.3741 26.6875ZM23.4337 9.04545L23.1525 21.3693H20.4081L20.1354 9.04545H23.4337ZM21.7803 26.6875C21.2633 26.6875 20.8201 26.5057 20.4508 26.142C20.0871 25.7784 19.9053 25.3352 19.9053 24.8125C19.9053 24.3011 20.0871 23.8636 20.4508 23.5C20.8201 23.1364 21.2633 22.9545 21.7803 22.9545C22.286 22.9545 22.7235 23.1364 23.0928 23.5C23.4678 23.8636 23.6553 24.3011 23.6553 24.8125C23.6553 25.1591 23.5672 25.4744 23.3911 25.7585C23.2206 26.0426 22.9934 26.2699 22.7093 26.4403C22.4309 26.6051 22.1212 26.6875 21.7803 26.6875Z" fill="#44544A"/>
<rect x="0.666672" y="0.5" width="35" height="35" rx="17.5" stroke="#44544A"/>
</svg>
