<svg width="80" height="80" viewBox="0 0 80 80" fill="none" xmlns="http://www.w3.org/2000/svg">
<path d="M54.4446 42.3515C54.5375 42.0417 54.4725 41.2455 54.8597 41.1123C55.1695 41.0008 55.0704 41.5615 55.0518 41.7102C54.9934 42.1736 54.8897 42.6302 54.742 43.0733C54.4322 44.046 53.2891 45.9482 54.6119 46.701C54.9217 46.8714 55.4483 46.8837 55.6156 47.24C55.8758 47.7945 55.0704 47.8596 54.7451 47.7481C54.3609 47.6056 54.045 47.5374 53.9241 48.0579C53.8715 48.2809 53.9241 48.8107 53.5896 48.8385C53.1528 48.8726 53.3758 48.0269 53.0381 48.1942C52.7005 48.3615 52.7097 49.9941 52.1087 49.6223C51.8237 49.4457 52.0127 49.0678 52.084 48.8354C52.2042 48.4563 52.2923 48.0677 52.3473 47.6737C52.4108 47.0615 52.4295 46.4454 52.4031 45.8305C52.4031 45.2542 52.5053 44.7524 52.5363 44.1824C52.6137 42.8626 52.6323 41.5398 52.7221 40.2201C52.7996 39.0708 52.9607 37.9276 53.0319 36.7783C53.1764 34.994 52.942 33.1992 52.3442 31.5118C51.6688 29.6221 51.3869 27.6735 51.105 25.7094C50.8926 24.4052 50.6134 23.1127 50.2686 21.837C50.0587 21.0212 49.6572 20.2671 49.0976 19.6375C48.5957 19.0737 47.9451 18.832 47.4247 18.3302C46.6037 17.5371 46.2351 16.0563 45.0641 15.6907C45.047 15.6864 45.0289 15.6873 45.0124 15.6935C44.9958 15.6996 44.9815 15.7107 44.9714 15.7251C44.9613 15.7396 44.9559 15.7568 44.9558 15.7745C44.9558 15.7921 44.9611 15.8094 44.9711 15.8239C45.346 16.3227 45.9563 16.7347 45.9005 17.4411C45.899 17.4608 45.8903 17.4793 45.876 17.493C45.8617 17.5067 45.8428 17.5147 45.8231 17.5154C45.6387 17.5132 45.4577 17.4653 45.2964 17.376C44.4197 16.9857 43.3292 16.8246 42.3905 16.6387C41.3527 16.4311 38.7536 16.459 38.5863 14.9255C38.4624 13.8041 39.6241 13.5686 40.4729 13.9094C40.4892 13.9158 40.507 13.9169 40.5239 13.9126C40.5408 13.9083 40.5559 13.8988 40.5672 13.8855C40.5785 13.8722 40.5853 13.8557 40.5867 13.8383C40.5882 13.821 40.5841 13.8036 40.5752 13.7886C40.4936 13.6685 40.4382 13.5326 40.4124 13.3898C40.3866 13.2469 40.3911 13.1003 40.4255 12.9592C40.46 12.8182 40.5236 12.686 40.6124 12.5711C40.7011 12.4562 40.813 12.3613 40.9407 12.2923C41.6408 11.8803 42.6074 12.4069 43.258 12.6733C43.2766 12.681 43.2974 12.6815 43.3163 12.6746C43.3352 12.6677 43.3509 12.654 43.3602 12.6362C44.3701 10.9819 45.8385 12.788 46.7679 12.946C47.403 13.0575 48.3788 12.41 49.2153 12.5928C50.219 12.8096 50.8572 13.3332 51.074 14.3369C51.0782 14.3552 51.0884 14.3716 51.103 14.3834C51.1176 14.3952 51.1358 14.4018 51.1546 14.402C52.4371 14.4454 53.6515 14.244 53.9768 15.762C53.9813 15.7825 53.9933 15.8006 54.0105 15.8127C54.0278 15.8247 54.0489 15.8298 54.0697 15.827C55.5567 15.6412 56.7432 17.8779 55.3987 18.8165C54.5375 19.4175 53.9923 18.2837 53.1713 18.5501C52.97 18.6121 52.6478 18.8599 52.8615 19.0737C52.9111 19.1325 53.0381 19.0737 53.1032 19.1077C53.1977 19.1517 53.2816 19.2156 53.3489 19.2952C53.4163 19.3748 53.4655 19.468 53.4932 19.5685C53.5209 19.669 53.5264 19.7744 53.5094 19.8772C53.4923 19.9801 53.4531 20.078 53.3944 20.1641C53.0846 20.6598 51.421 20.6474 51.8454 21.4931C52.1335 21.5272 51.96 21.0873 52.3194 21.0749C53.1218 21.0501 52.843 22.4349 52.6695 22.8098C52.3969 23.4015 51.9693 23.8847 51.8764 24.5477C51.799 25.096 52.0902 25.6629 52.1862 26.1958C52.3101 26.899 51.8392 28.3458 52.5889 28.7578C53.0598 29.018 54.0357 28.1878 54.2308 27.7479C54.2375 27.7334 54.2482 27.7211 54.2617 27.7125C54.2751 27.7039 54.2908 27.6994 54.3067 27.6994C54.3227 27.6994 54.3383 27.7039 54.3518 27.7125C54.3652 27.7211 54.3759 27.7334 54.3826 27.7479C54.5406 28.1444 54.2525 28.6772 53.8684 28.9251C53.8519 28.9349 53.8393 28.95 53.8327 28.968C53.8261 28.986 53.8259 29.0057 53.832 29.0238C53.8382 29.042 53.8504 29.0574 53.8666 29.0676C53.8828 29.0779 53.902 29.0822 53.921 29.08C53.9963 29.0613 54.075 29.0613 54.1503 29.08C54.364 29.1636 54.0419 29.3898 53.9334 29.4331C53.8002 29.4882 53.6559 29.5116 53.5121 29.5013C53.4935 29.5022 53.4757 29.5091 53.4613 29.5209C53.4469 29.5327 53.4367 29.5488 53.4322 29.5669C53.4277 29.5849 53.4291 29.604 53.4362 29.6212C53.4434 29.6384 53.4559 29.6528 53.4718 29.6624C53.7816 29.808 54.1503 29.8513 54.3578 30.1859C54.4663 30.3625 54.4973 30.7157 54.646 30.8768C54.6535 30.8843 54.6596 30.8932 54.6637 30.903C54.6678 30.9129 54.6699 30.9234 54.6699 30.9341C54.6699 30.9447 54.6678 30.9553 54.6637 30.9651C54.6596 30.975 54.6535 30.9839 54.646 30.9914C54.395 31.1989 53.9737 30.8953 53.7847 30.7188C53.4749 30.409 53.1651 30.5174 53.128 30.9604C53.1181 31.3693 53.2409 31.7703 53.478 32.1035C53.6856 32.2894 53.8436 32.1593 53.9799 31.9951C53.9902 31.9821 54.0042 31.9725 54.02 31.9674C54.0359 31.9624 54.0529 31.9622 54.0688 31.9668C54.0848 31.9715 54.099 31.9808 54.1096 31.9935C54.1203 32.0063 54.1269 32.022 54.1286 32.0385C54.2308 33.1104 54.7823 34.0645 54.6831 35.1798C54.6088 36.0255 54.2556 36.8217 54.1069 37.6581C53.9954 38.2777 54.2215 38.8756 54.3145 39.489C54.4038 40.0669 54.3923 40.656 54.2804 41.23C54.237 41.4717 54.1937 41.7133 54.141 41.9549C54.1069 42.1253 53.9892 42.4475 54.1007 42.6055C54.237 42.8812 54.4105 42.4692 54.4446 42.3515Z" fill="#839D8D"/>
<path d="M61.0401 58.8911C61.1409 58.9593 61.2187 59.0565 61.2631 59.1699C61.3127 59.4023 61.037 59.5045 60.9533 59.678C60.903 59.8173 60.8943 59.9683 60.9285 60.1124C60.9626 60.2566 61.038 60.3877 61.1454 60.4897C61.3148 60.6674 61.5247 60.8014 61.7573 60.8802C61.9899 60.959 62.2381 60.9802 62.4806 60.942C62.6851 60.942 63.1002 60.8893 63.1683 61.1526C63.2365 61.4159 62.8338 61.4066 62.6603 61.3788C62.6758 61.4159 62.7687 61.4841 62.7656 61.5213C62.7625 61.5584 62.6417 61.6235 62.5983 61.6421C62.3939 61.7412 62.3164 61.6421 62.115 61.608C62.115 61.6415 62.1259 61.6741 62.146 61.7009C62.1661 61.7278 62.1944 61.7473 62.2266 61.7567C62.0376 61.9921 61.5729 61.8032 61.4118 61.6328C61.4118 61.704 61.48 61.735 61.4118 61.7846C61.3437 61.8342 61.2631 61.7846 61.229 61.7536C61.2268 61.7928 61.2268 61.8321 61.229 61.8713C61.2507 61.9178 61.2879 61.9271 61.3251 61.955C61.4122 62.0102 61.5033 62.0589 61.5977 62.1006C62.0686 62.3453 62.5828 62.1501 63.0072 61.8961C63.1683 61.8032 63.4843 61.5863 63.4626 61.9457C63.4626 62.147 63.1869 62.2926 63.0227 62.3453C63.1559 62.305 63.506 62.2462 63.6144 62.3701C63.8437 62.6303 62.8802 62.6582 62.7594 62.6582C62.489 62.677 62.2173 62.6614 61.9508 62.6117C61.5866 62.5657 61.2384 62.434 60.9347 62.2276C60.6244 61.9866 60.3908 61.6608 60.2621 61.2896C60.1334 60.9184 60.1152 60.5178 60.2098 60.1365C60.3058 59.6966 60.6187 59.3372 60.69 58.8973C60.7179 58.7269 60.69 58.445 60.8511 58.3335C60.8235 58.4856 60.8475 58.6426 60.9192 58.7796C60.954 58.8223 60.9947 58.8599 61.0401 58.8911Z" fill="#839D8D"/>
<path d="M38.3601 58.0456C38.4313 57.7358 37.7188 57.426 37.6723 57.1317C37.8881 57.0647 38.0958 56.9743 38.2919 56.8622C38.3078 56.8508 38.3204 56.8354 38.3285 56.8176C38.3366 56.7999 38.3399 56.7802 38.338 56.7608C38.3361 56.7413 38.3291 56.7227 38.3178 56.7068C38.3064 56.6909 38.2911 56.6782 38.2733 56.6701C37.9636 56.5245 37.344 56.7259 37.0342 56.7445C36.5083 56.8078 35.975 56.7353 35.4852 56.5338C34.9451 56.3069 34.4459 55.9929 34.0075 55.6044C33.834 55.434 33.6543 55.2946 33.7535 55.0437C33.8266 54.884 33.9509 54.7532 34.1066 54.6719C34.4152 54.4982 34.7575 54.3925 35.1104 54.3622C35.5286 54.3095 35.2157 54.0524 34.9462 53.9935C34.5651 53.9068 34.0788 54.071 33.6884 54.0771C33.0193 54.0771 32.8427 53.6465 32.4492 53.1849C32.1649 52.7844 31.8151 52.4346 31.4145 52.1502C31.2259 52.0603 31.0202 52.0118 30.8112 52.008C30.6023 52.0043 30.395 52.0454 30.2032 52.1286C29.4504 52.5809 29.9895 53.9315 30.3798 54.4303C30.6 54.6369 30.7843 54.8788 30.9251 55.1459C30.9746 55.3941 30.9683 55.6502 30.9065 55.8956C30.8666 56.1926 30.8845 56.4945 30.9591 56.7847C31.0056 56.952 31.1016 57.4725 31.3681 57.4043C31.4517 57.1627 31.2751 56.9087 31.3681 56.6422C31.7553 55.6571 32.6754 56.3324 33.2919 56.6422C33.7704 56.8814 34.2821 57.0475 34.8099 57.1348C35.2405 57.1968 35.7083 57.0976 36.1234 57.237C36.5881 57.3919 36.8638 57.8009 37.282 58.0115C37.5082 58.1261 38.0968 58.4235 38.3074 58.1509C38.3331 58.1205 38.3511 58.0844 38.3601 58.0456Z" fill="#839D8D"/>
<path d="M43.0996 53.507L43.0284 53.6031C43.0028 53.5777 42.9683 53.5635 42.9323 53.5635C42.8963 53.5635 42.8618 53.5777 42.8363 53.6031C42.8952 53.6031 42.9354 53.6031 42.9478 53.6681C42.9819 53.7951 42.8208 53.8478 42.7495 53.9129C42.6414 54.014 42.5567 54.1378 42.5017 54.2753C42.4336 54.4581 42.5451 54.6192 42.7495 54.5572C42.954 54.4953 43.0593 54.1855 43.0377 53.9686C43.016 53.7518 43.1027 53.4606 43.2917 53.3955C43.2523 53.3936 43.2133 53.4031 43.1792 53.4229C43.1451 53.4427 43.1175 53.4719 43.0996 53.507Z" fill="#839D8D"/>
<path d="M44.1719 32.1593C44.2348 32.3201 44.3215 32.4704 44.429 32.6054C44.6428 32.8037 44.6645 32.8873 44.429 33.0701C44.0797 33.3508 43.6367 33.4881 43.1899 33.4543H43.0071C43.0251 33.5009 43.0458 33.5464 43.069 33.5906C43.1983 33.7903 43.3798 33.9509 43.594 34.0546C43.8081 34.1584 44.0465 34.2015 44.2834 34.1792C44.408 34.189 44.5331 34.1716 44.6503 34.1284C44.7675 34.0852 44.874 34.017 44.9623 33.9287C45.0506 33.8404 45.1188 33.7339 45.162 33.6167C45.2053 33.4995 45.2226 33.3743 45.2128 33.2498C45.2128 33.2095 45.25 33.1352 45.2686 33.1352C45.2949 33.1338 45.3213 33.1381 45.3458 33.1477C45.3704 33.1573 45.3926 33.1721 45.4111 33.1909C45.4451 33.2433 45.4702 33.3008 45.4854 33.3613C45.5598 33.5782 45.7116 33.6309 45.8974 33.4852C45.993 33.4114 46.0716 33.3179 46.1277 33.211C46.1839 33.104 46.2163 32.9863 46.2227 32.8657C46.2227 32.7015 46.1422 32.6209 45.978 32.6364C45.9284 32.6364 45.8758 32.6674 45.8355 32.655C45.7687 32.6314 45.7043 32.6013 45.6434 32.5652C45.6806 32.5156 45.7085 32.4474 45.758 32.4258C45.8374 32.3897 45.9069 32.3352 45.9608 32.2667C46.0147 32.1983 46.0514 32.1179 46.0678 32.0323C46.1045 31.8429 46.0993 31.6477 46.0524 31.4605C46.0055 31.2733 45.9181 31.0987 45.7964 30.949C45.6747 30.7992 45.5217 30.678 45.348 30.5938C45.1744 30.5096 44.9844 30.4645 44.7915 30.4617C44.7353 30.4728 44.6803 30.4894 44.6273 30.5112C44.6862 30.5763 44.7264 30.6197 44.7605 30.6661C44.9086 30.8554 45.015 31.0739 45.0726 31.3072C45.1303 31.5406 45.138 31.7834 45.0951 32.0199C45.0765 32.1407 45.0083 32.2771 44.8565 32.1748C44.6428 32.0137 44.4445 32.0881 44.1719 32.1593Z" fill="#839D8D"/>
<path d="M60.4454 46.738C60.656 46.5676 60.9131 46.3724 60.9441 46.1555C60.9937 45.7993 60.6343 46.0285 60.529 46.137C60.3562 46.3177 60.1731 46.4884 59.9807 46.6481C59.8041 46.7751 59.6089 46.5893 59.3921 46.7101C59.2217 46.803 59.2557 46.9548 59.1535 47.0756C59.0525 47.1649 58.9412 47.2419 58.822 47.3049C58.6733 47.4195 58.3233 47.6952 58.63 47.8439C58.8437 47.9492 59.0265 47.6952 59.1814 47.5961C59.2193 47.5692 59.2627 47.5512 59.3084 47.5434C59.4633 47.5434 59.5036 47.7448 59.5624 47.9245C59.7277 48.5102 59.7875 49.1207 59.739 49.7275C59.7719 50.0896 59.8257 50.4496 59.9001 50.8055C59.9255 51.1532 59.9088 51.5027 59.8506 51.8464C59.7587 52.2489 59.645 52.646 59.5098 53.036L59.1752 52.7882C58.8406 52.5342 58.5556 52.2058 58.0692 52.212C57.907 52.2311 57.7504 52.2836 57.6093 52.3661C57.4682 52.4486 57.3457 52.5593 57.2495 52.6913C57.1532 52.8234 57.0852 52.9739 57.0498 53.1334C57.0145 53.293 57.0124 53.4581 57.0438 53.6185C57.0641 53.7291 57.0641 53.8424 57.0438 53.953C57.0036 54.458 57.0779 54.5509 57.5519 54.5726C57.5519 54.8421 57.4187 54.9103 57.1708 54.9753C56.6897 55.0969 56.2225 55.2682 55.7768 55.4865C55.6579 55.5557 55.5254 55.5982 55.3884 55.611C55.2515 55.6239 55.1134 55.6067 54.9837 55.5609C54.5097 55.4029 54.0357 55.2511 53.5711 55.0683C53.2613 54.9568 53.001 54.7585 52.7005 54.6872C52.1398 54.5323 51.291 54.8143 51.1299 55.44C51.0339 55.8149 51.4954 55.7034 51.703 55.6166C51.9393 55.485 52.1835 55.3681 52.4341 55.2665C52.6512 55.2488 52.8683 55.3009 53.0537 55.4153C53.7043 55.6848 54.3796 55.8985 55.0271 56.1804C55.4232 56.3656 55.8746 56.3944 56.291 56.261C56.5975 56.1934 56.9079 56.1448 57.2204 56.1154C57.4311 56.0813 57.5767 56.1928 57.5829 56.3663C57.6036 56.8085 57.5932 57.2515 57.5519 57.6922C57.524 57.9648 57.3257 58.0268 57.0438 58.002C56.2601 57.9215 55.4732 57.8843 54.6863 57.8254C54.577 57.8076 54.4649 57.8289 54.3697 57.8856C54.2745 57.9422 54.2023 58.0306 54.1659 58.1352C53.949 58.7734 53.8158 59.994 53.2365 60.437C52.7625 60.8025 51.923 60.4556 51.356 60.7716C51.1144 60.9079 50.6249 61.3447 50.9409 61.6173C51.2569 61.8899 51.6906 61.3973 51.9415 61.3075C52.5611 61.0721 53.1528 61.7009 53.6826 61.261C54.1194 60.8986 54.203 60.2046 54.4292 59.7121C54.4372 59.6929 54.4465 59.6743 54.4571 59.6563C54.7978 59.0522 54.8009 59.0367 55.4918 59.1514C55.7303 59.1854 55.9596 59.2505 56.1919 59.3062C56.2702 59.3335 56.3468 59.3656 56.4211 59.4023C56.2722 59.5929 56.0993 59.7637 55.9069 59.9103C54.8164 60.5299 55.0426 61.2239 55.5258 62.1904C55.8169 62.7727 56.0734 63.3717 56.2941 63.9841C56.3467 64.1389 56.3422 64.3073 56.2814 64.459C56.2206 64.6107 56.1075 64.7356 55.9627 64.8113C55.677 64.9975 55.4596 65.2715 55.3431 65.5919C55.2904 65.7685 55.2161 66.3695 55.4701 66.447C55.6312 66.4934 55.7117 66.2704 55.7613 66.1589C55.8541 65.832 56.0429 65.5406 56.3034 65.3224C56.5606 65.1551 56.8889 65.0498 57.0314 64.7555C57.0693 64.643 57.0816 64.5235 57.0677 64.4057C57.0538 64.2878 57.0139 64.1745 56.9509 64.074C56.715 63.4685 56.5214 62.8475 56.3716 62.2152C56.3061 62.0758 56.295 61.917 56.3402 61.7699C56.3854 61.6227 56.4839 61.4976 56.6163 61.419C56.9757 61.2208 57.3505 61.0597 57.7192 60.88C57.9577 60.7623 58.3759 60.3688 58.6238 60.66C58.8096 60.8769 58.7477 61.2796 58.7942 61.5399C58.8752 62.0411 59.0844 62.513 59.4014 62.9097C59.7183 63.3065 60.1323 63.6147 60.6033 63.8044C61.7372 64.2134 63.0228 63.8044 64.1195 63.473C64.6957 63.3026 65.7428 63.0516 66.2633 63.473C66.4046 63.5932 66.5123 63.748 66.5758 63.9223C66.6393 64.0966 66.6565 64.2844 66.6257 64.4674C66.5235 65.1768 65.9411 65.8336 65.1914 65.7933C64.5718 65.7623 63.8221 65.276 64.3549 64.6378C64.5563 64.393 65.0303 64.3559 64.9745 64.7245C64.9466 64.8918 64.7205 64.802 64.8227 65.0715C64.925 65.341 65.2347 65.2233 65.3742 65.0498C66.0247 64.2381 64.6833 63.7394 64.0668 64.043C63.3047 64.4209 63.4132 65.5145 63.9863 65.9854C65.3958 67.1471 67.2887 65.9172 67.2918 64.2412C67.2918 63.0826 66.3624 62.4475 65.2719 62.5033C63.9088 62.5777 62.775 63.5535 61.3747 63.4606C59.9745 63.3676 59.2496 62.1378 59.2062 60.8831C59.2182 60.1725 59.4181 59.4778 59.7855 58.8694C60.2632 57.933 60.5825 56.9238 60.7304 55.883C60.7978 55.4823 60.781 55.0718 60.6808 54.6779C60.5041 53.9052 60.5041 53.1025 60.6808 52.3297C60.7835 51.6193 60.7296 50.895 60.5228 50.2076C60.3676 49.5957 60.2497 48.975 60.1696 48.3489C60.117 47.9864 59.9683 47.2212 60.2409 46.9083C60.402 46.7287 60.5693 46.6698 60.7613 46.8619C60.4887 46.9238 60.8543 47.5558 60.8543 47.7014C60.9565 47.4908 61.2601 46.9269 60.9317 46.7503C60.7768 46.6667 60.4887 46.7503 60.3741 46.5645" fill="#839D8D"/>
<path d="M23.5333 45.2417L23.428 45.3223C22.0432 46.3632 22.8766 46.8713 23.4807 48.1445C23.8927 49.0057 24.2923 50.4122 23.3443 51.0473C23.1387 50.7352 22.9966 50.3857 22.9261 50.0187C22.4862 48.5844 20.8288 49.6439 20.6089 48.5565C20.2402 49.0584 19.9893 49.6284 19.599 50.1055C22.288 49.7709 22.8208 55.0126 20.8722 55.1334C21.0225 54.8703 21.0895 54.5679 21.0645 54.266C21.0395 53.964 20.9236 53.6767 20.7321 53.4419C20.5406 53.2072 20.2825 53.0359 19.9917 52.9508C19.7009 52.8656 19.3912 52.8705 19.1033 52.9649C16.2625 53.8292 16.8294 58.284 17.7805 60.2016C19.1467 62.9557 23.3567 61.416 22.796 58.473C22.5792 57.3237 21.5568 56.1588 20.3177 56.0628C19.4936 56.0008 18.809 56.5616 18.4589 57.2648C18.2896 57.5982 18.1917 57.9633 18.1714 58.3367C18.1511 58.7101 18.209 59.0836 18.3412 59.4333C18.366 59.4953 18.8214 60.2326 18.7253 60.2357C18.5364 60.2357 18.3598 59.9848 18.2544 59.8516C18.0212 59.5318 17.8572 59.1669 17.773 58.7802C17.6887 58.3934 17.686 57.9934 17.765 57.6056C18.0934 56.2735 19.1993 55.499 20.5531 55.437C21.2008 55.4019 21.8434 55.5679 22.3931 55.9123C22.9427 56.2567 23.3723 56.7627 23.6232 57.3608C24.5525 59.5294 24.1002 62.0914 22.006 63.3615C21.0365 63.9273 19.9146 64.1764 18.7968 64.0742C17.6789 63.9721 16.6208 63.5236 15.7699 62.7915C14.2024 61.4253 13.5611 59.5542 13.084 57.618C12.9229 56.9643 12.7277 56.3044 12.5047 55.6694C12.3338 55.0711 12.2493 54.4514 12.2538 53.8292C12.2538 53.569 12.3839 53.0485 12.0276 52.9959C11.9842 52.4692 12.5481 51.3911 12.2445 50.9698C11.7643 51.2145 12.1298 50.3316 12.1856 50.1767C12.3188 49.8267 12.7835 48.8942 12.6162 48.5379C12.5078 48.6092 12.4242 48.7176 12.3064 48.7269C12.2383 48.225 12.6658 47.5683 12.8238 47.0974C12.9353 46.7721 13.2916 46.2919 13.2172 45.9419C12.9725 45.9016 12.9229 46.1587 12.7277 46.2517C12.3095 45.8985 14.0227 43.7578 14.2767 43.4635C16.0642 41.4716 18.0252 40.2975 20.7824 40.1952C21.0271 40.1952 21.371 40.1518 21.4949 39.9939C22.1826 39.0924 23.8555 39.5385 24.8437 39.396C25.2991 39.3309 25.739 39.1078 26.1913 39.0862C27.1021 39.049 27.1207 39.7367 27.604 40.3253C27.9138 40.6909 28.3258 40.8923 28.6449 41.1958C28.7416 41.2888 28.8171 41.4015 28.8662 41.5264C28.9152 41.6512 28.9366 41.7852 28.929 41.9192C28.9213 42.0531 28.8848 42.1838 28.8218 42.3022C28.7589 42.4207 28.6711 42.5241 28.5644 42.6054C28.1833 42.9307 27.5142 43.0608 27.0464 43.1847C26.5256 43.3055 26.0387 43.5416 25.6213 43.8756C25.3042 44.1836 24.9599 44.4625 24.5928 44.7089C24.2264 44.8589 23.8722 45.0371 23.5333 45.2417Z" fill="#839D8D"/>
<path d="M42.0775 45.5546C42.2014 45.5546 42.0527 45.8489 42.0217 45.8922C41.9249 46.0104 41.8123 46.1146 41.6871 46.202C41.2868 46.5364 40.9866 46.9749 40.8197 47.4691C40.6732 47.7909 40.6 48.1413 40.6053 48.4949C40.6107 48.8485 40.6945 49.1965 40.8507 49.5137C40.9986 49.8428 41.1825 50.1545 41.399 50.4431C41.5497 50.6189 41.6563 50.828 41.7102 51.0532C41.7641 51.2783 41.7636 51.5131 41.7088 51.738C41.5715 52.2793 41.5952 52.8488 41.777 53.3768C41.8326 53.5073 41.9125 53.6261 42.0124 53.7269C42.089 53.8114 42.1422 53.9145 42.1667 54.0259C42.1911 54.1373 42.186 54.2532 42.1518 54.362C42.1084 54.5509 41.9659 54.5633 41.842 54.427C41.5975 54.1419 41.371 53.8418 41.1636 53.5286C41.0799 53.369 41.0363 53.1915 41.0365 53.0113C41.0118 52.5962 41.0613 52.1717 40.9963 51.7721C40.8507 50.9941 40.4129 50.3013 39.7726 49.8359C39.373 49.5261 38.9578 49.2163 38.583 48.8755C38.3889 48.7148 38.2484 48.4986 38.1803 48.256C38.0099 47.435 37.4337 47.0571 36.7242 46.8061C35.925 46.5211 35.1164 46.264 34.3264 45.9666C33.4144 45.6544 32.5509 45.2154 31.7614 44.6624C31.34 44.3526 30.8939 44.0645 30.4138 43.733C30.3878 43.8608 30.3702 43.9901 30.3611 44.1202C30.343 44.4372 30.3482 44.7551 30.3766 45.0713C30.4254 45.254 30.5073 45.4262 30.6182 45.5794C30.6802 45.6971 30.801 45.7931 30.832 45.9139C30.8402 45.9702 30.8349 46.0277 30.8166 46.0815C30.7983 46.1354 30.7675 46.1841 30.7266 46.2237C30.6823 46.2427 30.6336 46.2495 30.5857 46.2435C30.5378 46.2375 30.4924 46.2189 30.454 46.1896C30.1651 45.8927 29.9077 45.5667 29.6857 45.2169C29.6145 45.008 29.6145 44.7814 29.6857 44.5725C29.7427 44.3729 29.7536 44.163 29.7176 43.9585C29.6817 43.7541 29.5998 43.5604 29.4782 43.3922C29.4287 43.3091 29.3964 43.217 29.3831 43.1212C29.3698 43.0255 29.3758 42.928 29.4007 42.8346C29.4449 42.7294 29.5274 42.6449 29.6315 42.5983C29.7356 42.5517 29.8536 42.5465 29.9615 42.5837C30.4138 42.6983 30.8568 42.8625 31.2998 43.0112C31.3505 43.0392 31.3983 43.0724 31.4423 43.1103C31.9596 43.4542 31.9472 43.4418 32.1796 42.8718C32.3906 42.3754 32.6295 41.8913 32.8952 41.4219C33.2021 40.7751 33.3527 40.0652 33.3351 39.3494C33.3351 39.2286 33.2081 39.0799 33.1028 38.9839C32.9672 38.8906 32.8177 38.8195 32.6598 38.7732C32.5451 38.7267 32.4119 38.7174 32.3004 38.6648C32.123 38.5358 31.9933 38.3517 31.9317 38.1412C31.8824 38.0238 31.8612 37.8965 31.8698 37.7695C31.885 37.7123 31.9183 37.6616 31.9646 37.6248C32.0109 37.588 32.0678 37.567 32.1269 37.565C32.1858 37.565 32.2075 37.6208 32.257 37.6394C32.3373 37.6569 32.4199 37.6622 32.5018 37.6549C32.844 37.6617 33.1857 37.6232 33.5179 37.5402C33.8258 37.4973 34.1378 37.4911 34.4473 37.5216C34.5898 37.5216 34.757 37.5836 34.8655 37.5216C35.0766 37.3898 35.2572 37.2145 35.3952 37.0074C35.5563 36.741 35.3549 36.205 35.0545 35.982C34.8004 35.793 34.5278 35.6257 34.2831 35.4243C34.0494 35.2395 33.8346 35.0319 33.6418 34.8048C33.5303 34.6716 33.4745 34.3618 33.6418 34.2409C33.8091 34.1201 33.8958 34.337 33.9268 34.4609C33.9466 34.6044 33.9873 34.7443 34.0476 34.876C34.1189 34.9999 34.2583 35.0774 34.3574 34.9194C34.4155 34.7012 34.4272 34.4732 34.3915 34.2502C34.3635 34.058 34.3848 33.8619 34.4535 33.6802C34.5123 33.5718 34.6176 33.4912 34.7106 33.6059C34.8035 33.7205 34.757 33.9157 34.7416 34.0396C34.7106 34.2678 34.7106 34.4991 34.7416 34.7273C34.7449 34.8346 34.7702 34.94 34.8159 35.0371C34.8758 35.0875 34.9439 35.1273 35.0173 35.1548C35.104 35.1982 35.1443 34.7366 35.1412 34.6901C35.1412 34.5352 35.1412 34.3803 35.3178 34.3215C35.4944 34.2626 35.5687 34.4485 35.5501 34.5879C35.514 34.7213 35.4653 34.851 35.4045 34.9751C35.3054 35.2633 35.5129 35.5204 35.6616 35.7527C35.8103 35.9851 35.9714 36.0161 36.0892 35.7961C36.1728 35.6505 36.2007 35.446 36.3989 35.3965C36.6499 35.3314 36.6902 35.6567 36.6158 35.824C36.5012 36.0811 36.1945 36.1802 36.0644 36.4188C35.9683 36.6016 35.8816 36.7936 35.798 36.9826C35.7484 37.0972 35.5687 37.3575 35.6028 37.4814C35.6369 37.6053 35.7484 37.5 35.8258 37.4628C35.9033 37.4256 36.0241 37.3853 36.1356 37.3482C36.1821 37.3296 36.1945 37.3017 36.2348 37.3482C36.3401 37.4535 36.1356 37.658 36.083 37.754C35.9942 37.9151 35.8549 38.0425 35.6864 38.1164C35.5625 38.1722 35.3952 38.3054 35.3766 38.4262C35.2679 39.2668 35.2069 40.1129 35.1939 40.9603C35.1939 42.184 35.8444 43.0855 36.8605 43.7485C37.6676 44.2953 38.564 44.6969 39.5093 44.935C40.2156 45.0992 40.6586 46.1463 41.5136 45.9573C41.6317 45.9284 41.7445 45.8814 41.8482 45.8179C41.8997 45.7862 41.9475 45.7488 41.9907 45.7064C42.0248 45.6692 42.0372 45.6041 42.0898 45.5917L42.0775 45.5546Z" fill="#839D8D"/>
<path d="M42.3877 52.116C42.4295 52.1559 42.4689 52.1983 42.5054 52.243C42.7161 52.5032 42.6015 52.8285 42.5984 53.1321C42.5953 53.4357 42.8586 53.3645 42.9267 53.0949C42.9635 52.9388 42.9582 52.7757 42.9114 52.6222C42.8646 52.4687 42.778 52.3304 42.6603 52.2213C42.5471 52.1365 42.4433 52.04 42.3505 51.9332C42.3103 51.8744 42.1863 51.6606 42.2421 51.5894C42.2067 51.627 42.1802 51.6722 42.1646 51.7216C42.149 51.7709 42.1448 51.8232 42.1523 51.8744C42.0973 51.8728 42.0436 51.891 42.001 51.9257C41.9583 51.9604 41.9296 52.0092 41.9199 52.0633C42.0376 51.8589 42.2359 51.9859 42.3877 52.116Z" fill="#839D8D"/>
<path d="M43.1031 10.0214C42.8243 10.0927 42.4526 10.3002 42.2915 10.3312C41.8826 10.4211 41.2877 10.1422 40.978 10.5264C40.6031 10.2166 39.7388 9.9068 39.3453 10.387C39.2152 10.545 39.2524 10.641 39.4755 10.6627C39.6118 10.6782 39.7419 10.545 39.8751 10.5264C40.0637 10.5128 40.2513 10.563 40.4079 10.6689C40.7177 10.8424 40.9594 11.0964 41.263 11.2885C41.5619 11.4297 41.8898 11.4986 42.2202 11.4898C42.3225 11.4898 42.815 11.4372 42.7964 11.2544C42.7964 11.18 42.3472 11.2544 42.2512 11.2203C42.0839 11.18 41.7555 11.084 41.7184 10.8764C41.6688 10.6069 42.0498 10.6689 42.1954 10.7123C42.6415 10.8486 43.1806 10.9756 43.3788 10.4458C43.5337 10.0121 43.3603 9.95946 43.1031 10.0214Z" fill="#839D8D"/>
<path d="M48.3539 56.5121C48.2486 56.6299 48.4716 56.9304 48.5181 57.0357C48.6065 57.2291 48.68 57.429 48.7381 57.6336C48.8513 58.0259 48.8788 58.4379 48.8186 58.8418C48.6854 59.7247 46.9816 61.8932 45.9221 61.1033C45.5813 61.5958 45.1445 62.1194 44.5373 61.4533C44.2864 62.1411 43.4902 61.9428 43.041 61.5679C42.4988 62.361 41.6748 61.8034 41.0707 61.4967C40.6029 62.1163 40.5595 61.887 39.8501 61.6516C39.2522 61.4502 39.2305 61.9397 38.7473 61.9614C38.4994 61.9614 38.202 61.6516 37.9108 61.7321C37.6196 61.8127 37.5329 62.0915 37.251 62.1813C36.969 62.2712 36.7119 62.1813 36.4455 62.2557C36.1791 62.33 35.9281 62.5655 35.6091 62.615C34.9616 62.7359 34.4071 62.9496 33.7503 63.1324C32.7125 63.4422 31.8606 63.5599 30.9622 62.8226C30.7931 62.7141 30.6037 62.6414 30.4055 62.6089C30.2073 62.5764 30.0046 62.5848 29.8097 62.6336C29.2464 62.812 28.6518 62.8698 28.0646 62.803C27.4775 62.7363 26.911 62.5466 26.402 62.2464C25.897 61.9812 25.3335 61.847 24.7632 61.8561C24.6539 61.854 24.5453 61.8736 24.4436 61.9136C24.3419 61.9536 24.2491 62.0133 24.1705 62.0893C24.0919 62.1653 24.0291 62.2561 23.9857 62.3564C23.9423 62.4567 23.9191 62.5646 23.9175 62.6739C23.9145 62.7852 23.9383 62.8957 23.9868 62.9959C24.0353 63.0962 24.1072 63.1833 24.1963 63.2501C24.2583 63.309 24.8964 63.5971 24.8778 63.532C24.8646 63.4292 24.8646 63.3251 24.8778 63.2222C25.1876 63.1727 25.1226 63.5909 25.358 63.6033C25.3348 63.5312 25.3323 63.454 25.3509 63.3806C25.3696 63.3071 25.4085 63.2404 25.4633 63.1882C25.5129 63.3895 25.6399 63.7241 25.8537 63.7365C25.8359 63.6706 25.8365 63.601 25.8557 63.5354C25.8748 63.4698 25.9116 63.4108 25.9621 63.3647C26.2316 63.6188 26.3122 63.8759 26.6839 64.0184C27.0557 64.1609 27.4522 64.1547 27.8209 64.2941C28.3227 64.4862 28.8618 64.6039 29.3698 64.7402C29.4597 64.765 29.5526 64.7836 29.5929 64.9075C28.9049 65.0589 28.2072 65.1624 27.5049 65.2173C27.0774 65.2452 26.3989 65.5085 25.9869 65.3257C25.8692 65.2731 25.4045 64.5977 25.4324 65.208C25.4324 65.0779 24.8469 64.7 24.6827 64.8022C24.3946 64.9788 24.4131 65.8059 24.5742 66.0414C24.8361 66.3349 25.2013 66.5158 25.5935 66.5463C26.7459 66.695 27.9107 66.7229 29.06 66.8716C29.7602 66.9614 30.4324 67.2279 31.1295 67.3549C32.2509 67.5624 33.3816 67.7173 34.5062 67.9001C34.6387 67.9334 34.7691 67.9748 34.8965 68.024C34.1159 68.6436 32.9324 68.117 32.3996 69.1486L32.9015 69.2446L32.6289 69.5544C33.1338 70.174 33.6914 70.0656 34.3234 69.7248C34.9037 69.4103 35.5088 69.1441 36.1326 68.9286C36.6747 68.7397 36.9752 68.4453 36.9969 67.8691C37.0073 67.7788 37.0388 67.6922 37.0889 67.6163C37.1389 67.5405 37.2061 67.4774 37.285 67.4323C38.3363 67.1432 39.3916 66.8809 40.4511 66.6455C40.5557 66.619 40.6646 66.6141 40.7711 66.6311C40.8777 66.6482 40.9796 66.6868 41.0707 66.7446C41.4734 67.0977 41.334 67.454 40.8291 67.674C40.5536 67.8029 40.3158 68.0002 40.1382 68.2471C39.9771 68.4577 40.0949 68.5879 40.3334 68.7923C40.8693 69.2601 41.2628 68.9999 41.7244 68.752C42.0527 68.5755 42.3873 68.4082 42.7064 68.2099C42.7933 68.1724 42.8715 68.1172 42.9358 68.0477C43.0001 67.9782 43.0491 67.896 43.0798 67.8064C43.1104 67.7169 43.122 67.6219 43.1137 67.5276C43.1054 67.4332 43.0775 67.3417 43.0317 67.2588C42.9802 67.173 42.9473 67.0773 42.935 66.9779C42.9228 66.8785 42.9316 66.7777 42.9608 66.6819C42.99 66.5862 43.039 66.4976 43.1045 66.4219C43.1701 66.3463 43.2508 66.2852 43.3415 66.2427C44.4196 65.5395 45.51 64.827 46.6191 64.2012C47.7932 63.5506 48.9394 62.9032 49.6551 61.7012C50.7517 59.8424 50.3583 57.711 48.7071 56.6299C48.6327 56.5803 48.4624 56.4471 48.3973 56.509L48.3539 56.5121Z" fill="#839D8D"/>
<path d="M31.0243 38.383C30.9407 37.8099 30.4047 37.7634 30.0051 37.748L30.0578 37.7108C30.4946 37.3793 30.8694 36.5212 30.287 36.1618C30.1742 36.083 30.0351 36.0512 29.8992 36.0732C29.7633 36.0952 29.6413 36.1692 29.559 36.2795C29.4672 36.3967 29.394 36.5273 29.3422 36.6668C29.2957 36.7783 29.274 36.9766 29.1966 37.054C29.1067 36.9053 29.1098 36.704 28.9859 36.5491C28.8779 36.4151 28.7305 36.3187 28.5646 36.2733C28.3804 36.2297 28.1869 36.2487 28.0147 36.3272C27.8425 36.4057 27.7013 36.5394 27.6135 36.7071C27.5382 36.852 27.5108 37.017 27.5353 37.1785C27.5598 37.3399 27.6349 37.4894 27.7498 37.6055C27.8746 37.7424 28.0294 37.8484 28.2021 37.9152C27.8149 37.9834 27.4029 38.1879 27.6197 38.6619C27.655 38.7434 27.7105 38.8147 27.781 38.8689C27.8514 38.9231 27.9345 38.9584 28.0224 38.9716C28.2114 38.9995 28.642 38.8632 28.6978 38.6619C28.6549 38.7839 28.6414 38.9143 28.6583 39.0425C28.6752 39.1708 28.722 39.2932 28.795 39.4C28.868 39.5068 28.9651 39.5949 29.0784 39.6571C29.1918 39.7194 29.3182 39.7542 29.4475 39.7585C30.0671 39.7306 29.7573 39.0708 29.7046 38.7393C30.1011 39.2164 31.1482 39.204 31.0243 38.383ZM29.559 38.1228C29.401 38.4481 28.7628 38.3985 29.0293 37.9524C29.0557 37.9116 29.0893 37.8759 29.1284 37.8471C29.3514 37.686 29.7232 37.7851 29.559 38.1228Z" fill="#839D8D"/>
<path d="M29.6519 11.9949C29.6551 12.0358 29.647 12.0768 29.6284 12.1135C29.6098 12.1501 29.5815 12.1809 29.5465 12.2024C29.2518 12.4055 29.0053 12.671 28.8247 12.98C28.7256 13.1473 28.7504 13.2898 28.9301 13.3517C29.1015 13.4037 29.2781 13.437 29.4567 13.4509C29.9059 13.5128 30.3613 13.6677 29.8501 14.1386C29.6859 14.2904 28.7783 14.5011 28.9641 14.8109C29.1872 15.1764 30.0081 14.8326 30.321 14.7551C30.857 14.625 31.2287 14.0705 31.7709 14.0023C32.2657 13.962 32.763 13.962 33.2579 14.0023C33.368 14.0112 33.4749 14.0434 33.5716 14.0968C33.6683 14.1502 33.7525 14.2236 33.8186 14.3121C33.9637 14.491 34.1469 14.6353 34.3548 14.7344C34.5628 14.8336 34.7902 14.8851 35.0206 14.8852C35.383 14.9038 36.0739 14.4825 36.2226 15.0835C36.2505 15.1981 36.1327 15.4738 36.2412 15.5637C36.4549 15.7372 36.6377 15.2539 36.6594 15.1021C36.6737 14.936 36.6447 14.7691 36.5752 14.6176C36.5057 14.4661 36.3981 14.3352 36.2628 14.2378C36.0243 14.0643 35.6433 13.9868 35.5596 13.6708C35.6822 13.7042 35.8103 13.712 35.9361 13.6939C36.0618 13.6758 36.1825 13.6321 36.2907 13.5655C36.3434 13.5252 36.4023 13.4385 36.4611 13.4292C36.5166 13.4393 36.5714 13.4527 36.6253 13.4695C36.7296 13.4753 36.8329 13.4471 36.9196 13.3889C37.0187 13.3456 37.1303 13.3889 37.2294 13.3889C37.3463 13.3854 37.4612 13.358 37.5671 13.3084C37.7791 13.217 37.9508 13.0519 38.0504 12.8437C38.1171 12.9121 38.198 12.965 38.2874 12.9987C38.3768 13.0324 38.4724 13.0461 38.5677 13.0389C38.7567 13.0389 38.9116 12.8902 39.082 12.8716C39.1222 13.0729 39.4506 13.1101 39.6117 13.0636C39.6913 13.0265 39.7581 12.9667 39.8038 12.8918C39.8496 12.8168 39.8722 12.7301 39.8688 12.6423C39.8739 12.5466 39.8603 12.4509 39.8286 12.3604C39.7389 12.1275 39.5866 11.9238 39.3887 11.7718C39.0284 11.5014 38.5986 11.3392 38.1495 11.304C37.5793 11.239 37.0045 11.3773 36.5262 11.6944C35.8291 12.1776 35.4109 12.7446 34.4908 12.4317C34.3373 12.3947 34.1807 12.3719 34.023 12.3635C33.2176 12.252 32.4214 12.4193 31.6191 12.4379C31.3962 12.4525 31.1724 12.4389 30.953 12.3976C30.7177 12.3449 30.5026 12.2255 30.3334 12.0537C30.274 12.0014 30.2265 11.937 30.194 11.8647C30.1382 11.682 30.1599 11.208 29.8842 11.5271C29.7536 11.6504 29.6713 11.8163 29.6519 11.9949Z" fill="#839D8D"/>
<path d="M45.3492 60.2945C45.2935 60.4525 45.8604 60.4773 45.9316 60.4494C46.0292 60.3978 46.1147 60.3262 46.1825 60.2391C46.2503 60.1521 46.2989 60.0517 46.3251 59.9445C46.8083 60.53 47.431 59.7617 47.2978 59.2041C47.6727 59.2041 47.9174 59.1483 48.0351 58.7611C48.1343 58.4513 48.1126 58.0454 47.8338 57.875C48.0816 57.6644 47.9205 57.1037 47.5456 57.1749C47.1708 57.2462 46.6163 58.4575 46.387 58.7796C46.1859 59.0839 45.9381 59.3547 45.6528 59.582C45.4638 59.7214 44.2216 60.1768 44.6584 60.5609C44.8659 60.753 45.2718 60.5114 45.3492 60.2945Z" fill="#839D8D"/>
<path d="M29.9122 38.9746C30.0175 39.3216 30.2994 39.6376 30.3831 40.0341C30.4487 40.3896 30.4381 40.7549 30.3521 41.106C30.3118 41.326 29.968 42.3049 30.5256 42.1841C30.6867 41.8743 30.4388 41.295 30.7331 41.0502C31.0274 40.8055 31.4735 40.8985 31.7617 40.6599C31.9807 40.4539 32.1383 40.1912 32.2171 39.9009C32.068 39.7555 31.8721 39.6678 31.6644 39.6536C31.4566 39.6394 31.2506 39.6996 31.0832 39.8235C30.7951 40.0527 30.7486 40.378 30.6278 40.6971C30.5937 40.2045 30.6278 39.7677 30.3676 39.3216C30.2863 39.1791 30.1815 39.0514 30.0578 38.9437C29.9432 38.8321 29.6086 38.7795 29.9122 38.9746Z" fill="#839D8D"/>
<path d="M51.1978 56.6886C50.3954 57.5467 50.699 60.1676 52.6011 59.548C53.9766 59.0988 53.4159 57.1378 52.3285 56.5926C51.8204 56.3385 51.4456 56.4222 51.1978 56.6886Z" fill="#839D8D"/>
<path d="M56.7742 46.9455C56.4861 47.0756 56.4644 47.4009 56.3777 47.8005C56.2568 48.4201 56.1546 48.5378 55.5815 48.4201C55.0951 48.321 54.5654 48.1506 54.4012 48.7733C54.1719 49.6531 54.8132 49.5632 55.3956 49.8173C56.4303 50.2727 55.0858 51.4065 56.0369 51.8371C56.39 51.9982 56.7618 52.1252 57.0654 51.8371C57.369 51.549 57.211 51.0038 57.4681 50.7312C57.9266 50.251 58.7538 51.1029 59.0543 50.3284C59.1503 50.0837 59.2339 49.5385 59.0543 49.3123C58.7631 48.9344 58.1559 49.2658 57.8368 48.8445C57.5177 48.4232 58.1466 47.8098 58.0784 47.3513C58.0103 46.8928 57.1552 46.772 56.7742 46.9455Z" fill="#839D8D"/>
<path d="M32.2852 15.1424C32.2804 15.1496 32.274 15.1556 32.2664 15.1599C32.2589 15.1642 32.2505 15.1667 32.2418 15.1671C32.1954 15.1671 32.1365 15.1207 32.0931 15.1052C31.5324 14.9255 31.1266 15.3003 31.0212 15.8611C30.9159 16.4218 31.0646 17.1002 31.6222 17.3914L31.678 17.4193C31.7286 17.4407 31.7839 17.4482 31.8383 17.4411C31.8928 17.434 31.9444 17.4126 31.9878 17.3791C32.1396 17.2923 32.1737 17.3419 32.2976 17.4286C32.4277 17.4939 32.5753 17.5155 32.7187 17.4904C32.8621 17.4653 32.9936 17.3948 33.0938 17.2892C33.2685 17.157 33.4139 16.9898 33.5205 16.7983C33.6272 16.6068 33.6929 16.3953 33.7133 16.1771C33.7408 15.9512 33.6964 15.7225 33.5863 15.5234C33.4857 15.3616 33.3273 15.2442 33.1433 15.195C33.0644 15.1721 32.9835 15.1565 32.9017 15.1485C32.8521 15.1485 32.691 15.2074 32.7499 15.1052C32.7856 15.0616 32.8239 15.0203 32.8645 14.9813C32.9265 14.9038 32.9822 14.7985 32.8645 14.7644C32.8087 14.7577 32.7523 14.7721 32.7065 14.8047C32.66 14.8326 32.6229 14.8945 32.5826 14.9193C32.5423 14.9441 32.5609 14.941 32.5361 14.8976C32.5242 14.8701 32.5169 14.8408 32.5144 14.8109C32.5031 14.7104 32.4737 14.6128 32.4277 14.5228C32.3564 14.4081 32.1179 14.2378 32.0343 14.4329C31.9506 14.6281 32.1055 14.7985 32.2139 14.9441C32.2294 14.9937 32.3193 15.0928 32.2852 15.1424Z" fill="#839D8D"/>
<path d="M21.4361 57.1347C21.2472 56.967 21.0163 56.8537 20.7681 56.8068C20.5199 56.7599 20.2636 56.7811 20.0265 56.8683C19.7414 56.9472 19.4797 57.0941 19.2638 57.2965C19.048 57.4988 18.8845 57.7505 18.7874 58.03C18.6891 58.3433 18.6784 58.6776 18.7564 58.9966C18.8261 59.2589 18.9566 59.5011 19.1375 59.7035C19.3184 59.9059 19.5444 60.0628 19.7973 60.1614C20.0663 60.2465 20.3512 60.2692 20.6303 60.2279C20.9094 60.1866 21.1754 60.0823 21.4082 59.9228C21.6093 59.7627 21.7715 59.5591 21.8825 59.3273C21.9936 59.0955 22.0507 58.8416 22.0495 58.5845C22.0495 58.5597 22.0495 58.5381 22.0495 58.5133C22.0493 58.2534 21.9946 57.9964 21.889 57.759C21.7833 57.5215 21.629 57.3088 21.4361 57.1347ZM21.3463 58.0641C21.2917 58.1915 21.2104 58.3056 21.1077 58.3987C20.9218 58.6062 20.7422 58.8293 20.5439 59.0182C20.4812 59.1023 20.3966 59.1676 20.2994 59.2069C20.2022 59.2462 20.096 59.2581 19.9925 59.2413C19.9105 59.2146 19.8354 59.1702 19.7725 59.1112C19.6269 58.9749 19.407 58.6217 19.6362 58.4575C19.7973 58.3429 19.9274 58.6527 20.0451 58.7146C20.578 58.9904 20.705 57.5715 21.179 57.8224C21.2626 57.872 21.3649 57.9526 21.3463 58.0548V58.0641Z" fill="#839D8D"/>
<path d="M56.4366 42.1873C56.3943 42.41 56.33 42.6279 56.2445 42.8379C56.1399 43.0628 56.088 43.3086 56.0927 43.5566C56.0618 43.7265 56.0161 43.8934 55.9564 44.0554C55.9289 44.1471 55.9122 44.2417 55.9068 44.3373C55.8904 44.7581 55.7382 45.1624 55.4731 45.4897C55.4078 45.5751 55.3207 45.6415 55.221 45.6818C55.1213 45.7221 55.0125 45.735 54.9062 45.7189C54.8597 45.7189 54.7854 45.6663 54.7823 45.6353C54.7793 45.5655 54.8 45.4967 54.8411 45.4401C54.9067 45.3816 54.9772 45.3287 55.0518 45.2821C55.136 45.2202 55.2068 45.1419 55.26 45.0519C55.3132 44.962 55.3478 44.8622 55.3616 44.7586C55.4014 44.4673 55.4806 44.1828 55.597 43.9129C55.6336 43.7934 55.6513 43.6691 55.6497 43.5442C55.6497 43.3955 55.6497 43.2344 55.6745 43.0919C55.6962 42.875 55.7271 42.6582 55.7581 42.4444C55.7751 42.3392 55.801 42.2355 55.8356 42.1346C55.9025 41.7951 55.9233 41.4481 55.8975 41.103C55.8975 40.8459 55.9347 40.5888 55.9564 40.3317C56.0012 40.0489 55.9625 39.7593 55.8449 39.4983C55.7211 39.2655 55.5856 39.0391 55.439 38.8199C55.3685 38.7127 55.331 38.5872 55.331 38.459C55.331 38.3307 55.3685 38.2052 55.439 38.098C55.6239 37.737 55.6744 37.3219 55.5815 36.927C55.527 36.1018 55.527 35.2739 55.5815 34.4487C55.5366 33.8594 55.5459 33.2673 55.6094 32.6798C55.7178 32.0974 56.0214 31.5521 55.9657 30.9418C55.9378 30.7099 55.8549 30.4879 55.724 30.2944C55.6342 30.1488 55.5598 29.9846 55.4669 29.8514C55.4248 29.7997 55.369 29.7611 55.3058 29.7398C55.1355 29.6922 54.9792 29.604 54.8504 29.4827C54.8213 29.4549 54.8003 29.4197 54.7898 29.3809C54.7793 29.342 54.7797 29.301 54.7909 29.2624C54.8021 29.2237 54.8236 29.1889 54.8533 29.1616C54.8829 29.1344 54.9194 29.1158 54.9588 29.1079C55.0372 29.0888 55.1188 29.0869 55.198 29.1024C55.2771 29.118 55.352 29.1505 55.4173 29.1977C55.6945 29.3752 56.0176 29.4678 56.3467 29.4641C56.472 29.4817 56.5894 29.5355 56.6844 29.619C56.7558 29.6798 56.8434 29.7183 56.9364 29.7299C57.0295 29.7415 57.1238 29.7255 57.2079 29.6841C57.3164 29.6438 57.2885 29.5911 57.3504 29.5075C57.3751 29.4722 57.4128 29.4481 57.4552 29.4405C57.4976 29.433 57.5413 29.4426 57.5766 29.4672C57.6119 29.4919 57.636 29.5295 57.6436 29.572C57.6511 29.6144 57.6415 29.658 57.6169 29.6934C57.5456 29.8049 57.3659 29.7584 57.3071 29.8638C57.2482 29.9691 57.4093 30.1395 57.4929 30.2045C57.5778 30.2628 57.6782 30.2941 57.7811 30.2944C57.8647 30.2944 57.97 30.2572 58.0289 30.347C58.0411 30.3685 58.0483 30.3925 58.05 30.4172C58.0516 30.4418 58.0477 30.4666 58.0385 30.4895C58.0292 30.5124 58.0149 30.533 57.9966 30.5496C57.9784 30.5662 57.9566 30.5785 57.9329 30.5856C57.7965 30.6289 57.6231 30.4926 57.462 30.4771C57.0964 30.44 56.9198 30.5763 56.8703 30.9325C56.8114 31.3415 56.7525 31.7473 56.7216 32.1562C56.6607 33.0027 56.6773 33.853 56.7711 34.6965C56.7648 35.0602 56.8312 35.4214 56.9663 35.7591C57.115 36.0162 57.3597 36.1278 57.4991 36.4376C57.656 36.8503 57.8846 37.2321 58.1745 37.5652C58.3951 37.7851 58.6588 37.957 58.949 38.0702C59.5247 38.2899 60.0451 38.6336 60.4732 39.077C60.6291 39.281 60.7352 39.5186 60.7829 39.7709C60.8754 40.1914 60.9262 40.6199 60.9347 41.0504C60.9612 41.2982 61.0015 41.5444 61.0556 41.7877C61.0556 41.7877 61.0556 41.8249 61.0773 41.831C61.1563 41.8974 61.2169 41.983 61.2532 42.0796C61.2896 42.1762 61.3005 42.2805 61.2848 42.3825C61.2848 42.6427 61.2848 42.906 61.2848 43.1663C61.288 43.2071 61.2794 43.2479 61.26 43.284C61.2352 43.3212 61.1919 43.3707 61.1547 43.3707C61.1175 43.3707 61.0649 43.3304 61.0401 43.2933C61.0101 43.2411 60.9921 43.1829 60.9874 43.1229C60.9533 42.8689 60.9316 42.6179 60.9007 42.3639C60.8728 42.1656 60.8449 41.9674 60.8139 41.7691C60.7829 41.5708 60.7365 41.3973 60.7117 41.2115C60.6497 40.7623 60.6002 40.3162 60.5413 39.867C60.5413 39.8267 60.5041 39.7926 60.4855 39.7523C60.4639 39.7926 60.4267 39.8267 60.4205 39.867C60.3771 40.2046 60.3307 40.5392 60.2997 40.8769C60.2577 41.2146 60.3227 41.557 60.4855 41.8558C60.5475 41.9674 60.6466 42.0572 60.7179 42.1656C60.7473 42.2165 60.7633 42.2741 60.7644 42.3329C60.7835 42.7961 60.7669 43.2601 60.7148 43.7208C60.673 44.1387 60.6544 44.5586 60.659 44.9785C60.654 45.0831 60.6264 45.1854 60.5781 45.2783C60.5299 45.3712 60.462 45.4525 60.3793 45.5167C60.2966 45.5809 60.2009 45.6264 60.0989 45.65C59.997 45.6737 59.8911 45.675 59.7885 45.6539C59.7543 45.6435 59.7219 45.6278 59.6925 45.6074C59.581 45.5269 59.581 45.4773 59.708 45.4308C59.8771 45.3679 60.0228 45.2545 60.1253 45.106C60.2279 44.9575 60.2822 44.7811 60.2811 44.6006C60.2997 44.3868 60.3028 44.1731 60.3028 43.9593C60.3028 43.6495 60.2842 43.3057 60.3028 42.9804C60.3102 42.7782 60.2515 42.5792 60.1355 42.4135L59.8536 41.9983H59.8195C59.8252 42.0722 59.8356 42.1457 59.8505 42.2183C59.8814 42.3329 59.9279 42.4475 59.9558 42.5622C60.0001 42.8907 59.9157 43.2237 59.7204 43.4915C59.5128 43.8664 59.3145 44.2474 59.1318 44.6378C59.0508 44.8402 58.9815 45.047 58.9242 45.2574C58.8991 45.3352 58.8587 45.4074 58.8056 45.4696C58.7524 45.5318 58.6874 45.5828 58.6144 45.6198C58.4206 45.7157 58.2197 45.7965 58.0134 45.8615C57.9951 45.871 57.9751 45.8769 57.9546 45.8786C57.9341 45.8804 57.9134 45.878 57.8937 45.8717C57.8741 45.8653 57.856 45.8551 57.8403 45.8417C57.8247 45.8282 57.8119 45.8118 57.8027 45.7933C57.7594 45.6942 57.8275 45.6322 57.8926 45.5795C58.0196 45.4742 58.1435 45.3658 58.2767 45.2698C58.4333 45.1431 58.5523 44.9759 58.6206 44.7865C58.7259 44.5603 58.8374 44.3404 58.9459 44.1173C59.2031 43.6583 59.3174 43.133 59.2743 42.6086C59.2559 42.4939 59.2215 42.3823 59.172 42.2772C59.045 41.9921 58.9087 41.7102 58.7724 41.4283C58.7166 41.3137 58.6392 41.2084 58.5865 41.0937C58.5255 40.9637 58.4747 40.829 58.4347 40.691C58.3944 40.5392 58.3232 40.468 58.1714 40.4958C57.783 40.545 57.389 40.5272 57.0066 40.4432C56.9353 40.4432 56.8827 40.4432 56.8796 40.5237C56.8625 40.6842 56.8563 40.8457 56.861 41.007C56.8759 41.225 56.9017 41.4421 56.9384 41.6576C57.0004 42.0247 57.0004 42.3995 56.9384 42.7666C56.9141 43.0885 56.9445 43.4122 57.0283 43.7239C57.1117 44.0768 57.1399 44.4404 57.1119 44.802C57.0744 44.915 57.0256 45.024 56.9663 45.1272C56.9346 45.1992 56.9239 45.2787 56.9353 45.3565C56.9601 45.499 56.9353 45.5981 56.7773 45.6229C56.6457 45.6399 56.5124 45.6399 56.3808 45.6229C56.35 45.6131 56.3219 45.5962 56.2988 45.5736C56.2756 45.551 56.2581 45.5234 56.2476 45.4928C56.2476 45.4556 56.3002 45.3782 56.3467 45.3534C56.4749 45.2883 56.5742 45.1779 56.6255 45.0436C56.6974 44.8944 56.7264 44.7281 56.7092 44.5634C56.6999 44.45 56.6999 44.336 56.7092 44.2226C56.7088 43.7715 56.6536 43.3222 56.545 42.8843C56.5202 42.7294 56.4954 42.5745 56.4675 42.4197C56.4737 42.3391 56.4551 42.2648 56.4366 42.1873Z" fill="#839D8D"/>
<path d="M53.4129 53.8758C53.1026 53.8214 52.8155 53.6762 52.5878 53.4585C52.3601 53.2409 52.2021 52.9606 52.1337 52.6531C52.0653 52.3456 52.0896 52.0247 52.2037 51.7311C52.3177 51.4375 52.5162 51.1842 52.7742 51.0035C53.0321 50.8227 53.3379 50.7224 53.6528 50.7155C53.9677 50.7085 54.2776 50.7951 54.5433 50.9643C54.809 51.1335 55.0186 51.3777 55.1455 51.666C55.2724 51.9543 55.3109 52.2738 55.2562 52.584C55.1829 52.9996 54.9476 53.3692 54.6019 53.6114C54.2563 53.8536 53.8286 53.9487 53.4129 53.8758ZM53.8249 51.5276C53.6717 51.5018 53.5142 51.5218 53.3723 51.585C53.2303 51.6483 53.1102 51.752 53.0269 51.8832C52.9436 52.0144 52.9008 52.1672 52.904 52.3226C52.9071 52.478 52.956 52.629 53.0446 52.7567C53.1331 52.8844 53.2574 52.9832 53.4018 53.0406C53.5462 53.0981 53.7043 53.1116 53.8564 53.0796C54.0085 53.0476 54.1478 52.9715 54.2568 52.8607C54.3658 52.75 54.4397 52.6095 54.4693 52.457C54.4889 52.3535 54.4878 52.2472 54.4659 52.1443C54.444 52.0413 54.4019 51.9437 54.3419 51.8572C54.2819 51.7707 54.2053 51.697 54.1165 51.6404C54.0278 51.5838 53.9287 51.5455 53.8249 51.5276Z" fill="#839D8D"/>
<path d="M54.9835 54.7741C54.8796 54.7553 54.7872 54.6963 54.7264 54.61L54.0634 53.6651C54.0123 53.5779 53.9958 53.4746 54.0172 53.3759C54.0387 53.2771 54.0965 53.19 54.1792 53.1318C54.2619 53.0737 54.3635 53.0488 54.4637 53.0621C54.5639 53.0754 54.6554 53.1258 54.7202 53.2035L55.38 54.1484C55.4104 54.1913 55.432 54.2397 55.4436 54.291C55.4552 54.3423 55.4566 54.3953 55.4477 54.4471C55.4388 54.4989 55.4197 54.5484 55.3916 54.5929C55.3635 54.6373 55.327 54.6757 55.284 54.706C55.1965 54.767 55.0887 54.7915 54.9835 54.7741Z" fill="#839D8D"/>
<path d="M54.0012 26.2732C53.9579 26.2062 53.9321 26.1294 53.9262 26.0498C53.9202 25.9703 53.9343 25.8905 53.9672 25.8178C53.9837 25.7915 53.9972 25.7634 54.0074 25.7341C54.0121 25.693 54.0121 25.6514 54.0074 25.6102H53.9021L53.9857 25.5049C54.0363 25.451 54.0746 25.3869 54.0981 25.3168C54.1217 25.2468 54.1298 25.1725 54.1221 25.0991C54.1174 25.0797 54.1174 25.0595 54.1221 25.0402C54.1569 24.7798 54.1081 24.5151 53.9826 24.2843C53.9499 24.1835 53.9271 24.0797 53.9145 23.9745C53.899 23.8599 53.8525 23.7793 53.7844 23.7731C53.7162 23.7669 53.6481 23.8351 53.6295 23.9528C53.5915 24.1772 53.5687 24.4038 53.5613 24.6313C53.5469 25.2297 53.4952 25.8267 53.4064 26.4188C53.3755 26.6604 53.36 26.9082 53.3135 27.1468C53.267 27.358 53.2038 27.5652 53.1245 27.7664C53.1036 27.8317 53.0674 27.8911 53.0189 27.9396C52.9704 27.9881 52.911 28.0243 52.8457 28.0452C52.697 28.0948 52.5948 28.0049 52.635 27.8531C52.6574 27.7617 52.6951 27.6748 52.7466 27.596C52.9991 27.2094 53.1435 26.7623 53.1648 26.301C53.2051 25.9572 53.2484 25.6102 53.2825 25.2632C53.3207 24.9052 53.328 24.5445 53.3042 24.1852C53.2675 23.8824 53.2931 23.5754 53.3794 23.2829C53.4657 22.9905 53.6109 22.7187 53.8061 22.4844C54.0131 22.2006 54.2782 21.9641 54.5836 21.7905C54.7974 21.6851 55.0266 21.6108 55.2497 21.5271C55.3364 21.4931 55.4294 21.4683 55.5161 21.4342C55.5637 21.4184 55.6087 21.3954 55.6493 21.3661C55.6821 21.3418 55.7062 21.3075 55.7179 21.2684C55.7297 21.2294 55.7284 21.1875 55.7144 21.1492C55.7039 21.1138 55.6815 21.0831 55.651 21.0623C55.6206 21.0414 55.5839 21.0316 55.5471 21.0346C55.4076 21.0249 55.2684 21.0573 55.1475 21.1275C54.8934 21.2762 54.8377 21.2638 54.6301 21.0377C54.5775 20.9757 54.5279 20.9138 54.4721 20.8549C54.4504 20.8367 54.4362 20.8112 54.4322 20.7832C54.4282 20.7551 54.4347 20.7266 54.4504 20.7031C54.4875 20.645 54.5216 20.585 54.5527 20.5234C54.5757 20.4865 54.5835 20.4421 54.5744 20.3995C54.5523 20.3567 54.5432 20.3085 54.5482 20.2606C54.5532 20.2127 54.5719 20.1673 54.6022 20.13C54.6771 20.0294 54.7124 19.9048 54.7014 19.7799C54.7042 19.7557 54.7094 19.7318 54.7169 19.7087L54.7788 19.7675C54.8133 19.7903 54.8537 19.8025 54.895 19.8025C54.9363 19.8025 54.9767 19.7903 55.0112 19.7675C55.0649 19.7368 55.1236 19.7159 55.1846 19.7056C55.2275 19.694 55.2674 19.6734 55.3016 19.645C55.3358 19.6167 55.3636 19.5814 55.3829 19.5414C55.4789 19.3524 55.5316 19.3462 55.64 19.5259C55.6872 19.5979 55.7497 19.6586 55.823 19.7036C55.8964 19.7486 55.9789 19.7768 56.0645 19.7861C56.334 19.8419 56.6004 19.91 56.8637 19.9875C56.9489 20.0189 57.0261 20.0686 57.0899 20.1331C57.2169 20.2508 57.3284 20.384 57.4585 20.4986C57.5615 20.5885 57.6453 20.6981 57.7049 20.8211C57.7645 20.944 57.7987 21.0778 57.8055 21.2143C57.8365 21.5705 57.8644 21.9237 57.8736 22.2799C57.8782 22.4296 57.8657 22.5792 57.8365 22.726C57.8365 22.7725 57.79 22.9367 57.8613 22.9677C57.9325 22.9987 57.9728 22.9088 58.0131 22.884C58.0459 22.8633 58.0831 22.8503 58.1217 22.846C58.1604 22.8417 58.1995 22.8463 58.2361 22.8593C58.3879 22.9119 58.3662 22.9832 58.2671 23.0761C58.1679 23.169 57.9573 23.3859 57.7714 23.4107C57.6302 23.4035 57.4906 23.3775 57.3563 23.3332C57.3563 23.2031 57.4059 23.0049 57.3098 22.8964C57.3098 22.8809 57.2541 22.8964 57.2231 22.8964C57.2884 22.8397 57.3319 22.7619 57.3461 22.6765C57.3602 22.5911 57.3441 22.5034 57.3005 22.4286C57.2169 22.4782 57.2045 22.565 57.1766 22.6455C57.1367 22.8304 57.0436 22.9996 56.9087 23.1323C56.7739 23.2649 56.6032 23.3553 56.4176 23.3921L56.3123 23.4169V24.0984L56.2472 24.0427C56.2438 24.1025 56.2524 24.1624 56.2727 24.2188C56.2929 24.2753 56.3243 24.327 56.365 24.371C56.365 24.5104 56.4393 24.3896 56.365 24.5352C56.3338 24.6265 56.2819 24.7092 56.2132 24.7769C56.1233 24.8574 56.0149 24.9101 55.925 24.9875C55.8352 25.065 55.8445 25.1176 55.7825 25.1486C55.7456 25.1647 55.7041 25.1666 55.6658 25.1541C55.6275 25.1415 55.5952 25.1153 55.575 25.0805C55.5414 25.0263 55.5288 24.9617 55.5396 24.8989C55.5505 24.8361 55.584 24.7794 55.6338 24.7397C55.7825 24.6344 55.9127 24.5755 55.8228 24.3648C55.728 24.1608 55.6905 23.9349 55.7144 23.7112C55.6508 23.7148 55.5892 23.7342 55.535 23.7678C55.4809 23.8013 55.4361 23.8479 55.4046 23.9033C55.3289 24.032 55.2716 24.1707 55.2342 24.3153C55.2001 24.4915 55.1753 24.6693 55.1599 24.8481C55.0793 24.7676 55.0421 24.7769 54.9957 24.8946C54.9943 24.9101 54.9943 24.9256 54.9957 24.9411C54.9493 25.1628 54.8883 25.3811 54.8129 25.5947C54.7385 25.8519 54.9089 26.1214 55.1846 25.9975C55.3024 25.9448 55.2528 25.9076 55.3302 25.8549C55.575 25.6815 55.5719 26.0501 55.4108 26.1833C55.3179 26.2608 55.1939 26.3041 55.101 26.3847C55.0081 26.4652 54.9523 26.5799 54.8067 26.552C54.6349 26.5039 54.4599 26.4677 54.2831 26.4436C54.119 26.3971 54.0694 26.4002 54.0012 26.2732Z" fill="#839D8D"/>
<path d="M26.1665 60.9823C26.5344 60.9823 26.8326 60.6841 26.8326 60.3162C26.8326 59.9483 26.5344 59.6501 26.1665 59.6501C25.7987 59.6501 25.5005 59.9483 25.5005 60.3162C25.5005 60.6841 25.7987 60.9823 26.1665 60.9823Z" fill="#839D8D"/>
<path d="M25.6679 59.1887C25.8887 59.1887 26.0676 59.0098 26.0676 58.789C26.0676 58.5683 25.8887 58.3894 25.6679 58.3894C25.4472 58.3894 25.2683 58.5683 25.2683 58.789C25.2683 59.0098 25.4472 59.1887 25.6679 59.1887Z" fill="#839D8D"/>
<path d="M27.542 61.3261C27.7627 61.3261 27.9416 61.1472 27.9416 60.9265C27.9416 60.7058 27.7627 60.5269 27.542 60.5269C27.3213 60.5269 27.1423 60.7058 27.1423 60.9265C27.1423 61.1472 27.3213 61.3261 27.542 61.3261Z" fill="#839D8D"/>
<path d="M24.9892 61.2456C25.2099 61.2456 25.3889 61.0666 25.3889 60.8459C25.3889 60.6252 25.2099 60.4463 24.9892 60.4463C24.7685 60.4463 24.5896 60.6252 24.5896 60.8459C24.5896 61.0666 24.7685 61.2456 24.9892 61.2456Z" fill="#839D8D"/>
<path d="M26.1259 60.2298L25.0168 60.7319L25.0948 60.9041L26.2039 60.4019L26.1259 60.2298Z" fill="#839D8D"/>
<path d="M26.2022 60.234L26.1255 60.4067L27.5016 61.0177L27.5782 60.845L26.2022 60.234Z" fill="#839D8D"/>
<path d="M25.799 58.8825L25.6194 58.9412L26.077 60.343L26.2567 60.2843L25.799 58.8825Z" fill="#839D8D"/>
<path d="M60.8788 38.2496C60.8633 37.6301 60.9439 36.5892 60.3429 36.1802C59.903 35.8704 59.3267 35.9076 58.8744 35.6567C58.6731 35.5452 58.3354 35.13 58.7165 34.9751C59.0015 34.8574 59.2803 35.2849 59.5436 35.2137C59.8069 35.1424 59.5436 34.9039 59.4011 34.7955C58.9172 34.4113 58.5362 33.9132 58.292 33.3456C58.0895 32.9295 58.0552 32.4513 58.196 32.0104C58.3943 31.5148 58.8156 31.4838 59.1935 31.8369C59.3298 31.9671 59.46 32.1746 59.683 32.1127C60.1074 31.9949 59.8596 31.5953 59.683 31.4249C59.4507 31.2081 58.8682 31.0594 58.7846 30.731C58.6762 30.319 59.0015 30.3933 59.2307 30.5203C59.4599 30.6473 59.5963 30.6504 59.5095 30.3778C59.4228 30.1052 59.0851 29.972 58.9054 29.8295C58.5275 29.5197 58.134 29.2502 57.7685 28.9311C57.3483 28.5945 56.9871 28.1904 56.6997 27.7353C56.5913 27.537 56.3279 26.62 56.7771 26.62C57.0498 26.62 57.152 27.1591 57.3967 27.2396C58.0566 27.4627 57.341 26.05 57.3131 25.8796C57.2852 25.7092 57.3131 25.291 57.5423 25.4521C57.6322 25.5172 57.6198 26.0717 57.8521 25.9044C57.9203 25.8548 57.8738 25.6628 57.8521 25.5946C57.7964 25.2074 57.6446 24.8511 57.88 24.501C58.1253 24.2273 58.386 23.9677 58.6607 23.7235C58.8342 23.519 59.1068 23.2402 59.1223 22.9676C59.1378 22.695 58.893 22.4812 59.0975 22.2179C59.4414 21.778 60.0052 23.3517 60.0826 23.5469C60.3837 24.349 60.6037 25.1793 60.7394 26.0252C61.0337 27.7353 61.0802 29.4732 61.2227 31.1988C61.3094 32.577 61.3094 33.9594 61.2227 35.3376C61.1948 35.9572 61.6316 38.2682 60.789 38.5378C60.7952 38.42 60.7332 38.3116 60.8788 38.2496Z" fill="#839D8D"/>
<path d="M54.6738 64.3559C54.4931 64.8791 54.462 65.4424 54.584 65.9823C53.9586 66.0158 53.3394 65.8443 52.8205 65.4937C52.3016 65.1431 51.9113 64.6326 51.7091 64.0399C51.517 63.4544 51.4799 62.7109 52.0685 62.3422C52.6571 61.9736 53.159 62.5095 53.4502 62.9618C53.4114 62.7299 53.4513 62.4917 53.5636 62.2851C53.6758 62.0785 53.854 61.9154 54.0697 61.8218C54.7482 61.5832 55.0921 62.178 55.0797 62.7759C55.0278 63.3206 54.8909 63.8537 54.6738 64.3559Z" fill="#839D8D"/>
<path d="M55.8943 68.1263C55.8107 68.0364 55.5845 67.8753 55.5566 67.7607C55.5009 67.5779 55.696 67.5191 55.8447 67.5624C55.9656 67.6174 56.0825 67.6806 56.1948 67.7514C56.3184 67.7973 56.4509 67.8142 56.582 67.801C56.8299 67.801 57.0622 67.801 57.3008 67.8227C57.5393 67.8444 57.4526 67.7638 57.3534 67.5965C57.1325 67.0934 57.0963 66.5283 57.2512 66.0011C57.3946 65.4861 57.7263 65.0438 58.1806 64.7619C58.4468 64.5874 58.7507 64.4786 59.0672 64.4445C59.3837 64.4103 59.7038 64.4518 60.0011 64.5655C60.2984 64.6793 60.5645 64.862 60.7774 65.0986C60.9903 65.3353 61.144 65.6191 61.2258 65.9267C61.2824 66.1206 61.292 66.3251 61.2537 66.5234C61.2155 66.7216 61.1305 66.9079 61.0059 67.0668C60.8871 67.214 60.7254 67.3204 60.5433 67.3712C60.3611 67.422 60.1676 67.4146 59.9899 67.3501C59.8121 67.2856 59.6589 67.1672 59.5517 67.0115C59.4445 66.8557 59.3886 66.6703 59.3919 66.4813C59.3894 66.4168 59.4061 66.353 59.4397 66.2979C59.4733 66.2428 59.5224 66.1988 59.5808 66.1715C59.6341 66.147 59.6943 66.142 59.7508 66.1573C59.8074 66.1726 59.8569 66.2072 59.8906 66.2551C59.9464 66.3481 59.9185 66.379 59.8906 66.4627C59.8906 66.4627 59.7853 66.6083 59.8318 66.6145C60.0207 66.6424 60.1199 66.4224 60.0734 66.2706C60.0392 66.1792 59.9778 66.1005 59.8975 66.0452C59.8171 65.9898 59.7218 65.9603 59.6242 65.9608C59.5252 65.9572 59.4276 65.9852 59.3457 66.041C59.2637 66.0967 59.2018 66.1772 59.1688 66.2706C59.0963 66.4698 59.0872 66.6866 59.1426 66.8912C59.1981 67.0959 59.3154 67.2784 59.4786 67.4137C59.6118 67.5325 59.7675 67.6234 59.9365 67.6808C60.1055 67.7382 60.2843 67.7611 60.4623 67.7481C60.6403 67.7351 60.8139 67.6865 60.9727 67.6051C61.1315 67.5237 61.2724 67.4112 61.3869 67.2743C61.8175 66.8004 61.7959 66.2675 61.5573 65.7254C61.4868 65.6002 61.4093 65.4792 61.325 65.3629C61.3135 65.3464 61.3056 65.3277 61.3019 65.3079C61.2981 65.2882 61.2986 65.2678 61.3033 65.2483C61.3154 65.2283 61.3316 65.2111 61.3508 65.1977C61.37 65.1844 61.3918 65.1752 61.4148 65.1708C61.4427 65.1708 61.4923 65.2111 61.5077 65.2452C61.6397 65.5227 61.7941 65.7889 61.9693 66.0414C62.1676 66.2954 62.5363 66.4596 62.6726 66.0228C62.7004 65.9267 62.7345 65.8307 62.7531 65.7316C62.7717 65.6324 62.7345 65.5457 62.7531 65.459C62.7577 65.4102 62.7784 65.3645 62.812 65.3288C62.833 65.3213 62.8556 65.319 62.8778 65.3222C62.9 65.3255 62.921 65.3341 62.939 65.3474C63.0474 65.4497 62.939 65.778 62.9669 65.9174C63.0292 66.1223 63.1068 66.3222 63.1992 66.5153C63.2869 66.7658 63.3103 67.0342 63.2674 67.296C63.1936 67.72 63.0313 68.1237 62.7911 68.4808C62.5509 68.8379 62.2382 69.1404 61.8733 69.3685C60.7395 70.174 58.9829 70.0873 57.7809 69.4863C57.0963 69.1789 56.4801 68.7375 55.9686 68.1882L55.8943 68.1263Z" fill="#839D8D"/>
<path d="M25.3891 14.3277C25.4046 14.2936 25.4387 14.2502 25.4325 14.2192C25.4112 14.0544 25.3483 13.8976 25.2497 13.7638C25.1479 13.6501 25.0152 13.5685 24.8678 13.5289C24.7204 13.4893 24.5646 13.4934 24.4195 13.5408C24.276 13.5755 24.1466 13.6536 24.0491 13.7645C23.9515 13.8754 23.8905 14.0136 23.8743 14.1604C23.8299 14.467 23.8946 14.7795 24.057 15.0433C24.1314 15.1703 24.2212 15.288 24.2987 15.415C24.3526 15.5008 24.4012 15.5897 24.4443 15.6814C24.4587 15.7125 24.4662 15.7463 24.4662 15.7806C24.4662 15.8148 24.4587 15.8487 24.4443 15.8797C24.3761 15.8116 24.3173 15.7465 24.2491 15.6845C24.1389 15.5874 24.0091 15.5151 23.8686 15.4723C23.728 15.4296 23.58 15.4174 23.4344 15.4367C23.0707 15.4836 22.724 15.6186 22.4244 15.8301C22.1425 16.0129 21.8668 16.205 21.5911 16.394C21.1684 16.675 20.6667 16.8129 20.1598 16.7874C20.1424 16.7845 20.1246 16.7845 20.1072 16.7874C20.2871 16.8729 20.4763 16.9373 20.671 16.9795C20.8631 17.0136 21.0582 17.0321 21.2441 17.0569L20.9002 17.0848L20.9467 17.1096C21.5555 17.4224 22.2328 17.5779 22.917 17.5619C23.3353 17.5629 23.752 17.5087 24.1562 17.4008C24.4762 17.3222 24.7767 17.1788 25.0391 16.9795C25.2231 16.8476 25.3503 16.651 25.3951 16.4291C25.4399 16.2072 25.3991 15.9766 25.2807 15.7837C25.1788 15.6178 25.0638 15.4604 24.9368 15.3128C24.8098 15.1517 24.6673 15.003 24.5434 14.8357C24.4205 14.6835 24.3567 14.4921 24.3637 14.2967C24.358 14.2521 24.366 14.2068 24.3865 14.1668C24.407 14.1268 24.4391 14.0939 24.4787 14.0724C24.5182 14.051 24.5633 14.042 24.608 14.0466C24.6527 14.0513 24.695 14.0693 24.7293 14.0984C24.8185 14.158 24.9006 14.2276 24.974 14.306C25.0209 14.3506 25.0597 14.403 25.0886 14.4609C25.1629 14.6125 25.2685 14.7466 25.3984 14.8543C25.4635 14.8977 25.5162 14.8729 25.5162 14.7954C25.5125 14.7534 25.5009 14.7124 25.4821 14.6746C25.4387 14.56 25.3922 14.4485 25.3458 14.3338L25.3891 14.3277Z" fill="#839D8D"/>
<path d="M23.3782 26.2236C23.403 26.2546 23.3782 26.3011 23.3193 26.3723C22.9233 26.7378 22.4022 26.9374 21.8633 26.9299C21.1665 26.9108 20.4845 26.7249 19.8744 26.3878C19.8063 26.3537 19.6793 26.3042 19.6297 26.3878C19.619 26.4253 19.619 26.465 19.6297 26.5024C19.6708 26.7564 19.8016 26.9872 19.9984 27.153C20.1904 27.3667 19.735 27.3048 19.639 27.2831C19.2732 27.2243 18.9292 27.0705 18.6415 26.837C18.4765 26.681 18.3552 26.4845 18.2894 26.2672C18.2237 26.0499 18.2158 25.8191 18.2666 25.5978C18.388 25.206 18.6297 24.8624 18.9575 24.6158C19.2673 24.3525 19.6173 24.1387 19.9209 23.8692C20.2361 23.61 20.4545 23.252 20.5405 22.8531C20.5831 22.6525 20.5582 22.4436 20.4696 22.2587C20.3811 22.0738 20.2339 21.9233 20.051 21.8308C20.1795 22.0789 20.2335 22.3588 20.2065 22.6369C20.1796 22.915 20.0729 23.1794 19.8992 23.3983C19.4005 24.0179 18.4432 24.1604 18.0962 24.8605C18.0467 24.9628 18.0002 25.0805 17.8949 25.1176C17.8183 25.1365 17.7374 25.1254 17.6687 25.0867C17.4854 25.0022 17.3298 24.8673 17.2201 24.6979C17.1104 24.5284 17.0511 24.3313 17.0491 24.1294C17.163 24.1756 17.2849 24.1988 17.4077 24.1977C17.5306 24.1965 17.652 24.171 17.7649 24.1226C17.8779 24.0742 17.9801 24.0038 18.0657 23.9157C18.1512 23.8275 18.2185 23.7233 18.2635 23.609C18.2946 23.5602 18.313 23.5044 18.3171 23.4466C18.3211 23.3889 18.3107 23.3311 18.2866 23.2784C18.2626 23.2258 18.2258 23.18 18.1796 23.1452C18.1333 23.1104 18.0791 23.0877 18.0219 23.0792C17.8957 23.0567 17.7663 23.0599 17.6414 23.0885C17.5165 23.1171 17.3986 23.1706 17.2948 23.2458C17.191 23.321 17.1034 23.4163 17.0372 23.526C16.9711 23.6358 16.9277 23.7578 16.9097 23.8847C16.9097 23.9435 16.2901 23.6988 16.2561 23.6709C16.0486 23.5408 15.8737 23.3649 15.7449 23.1567C15.59 22.915 15.7077 22.7663 15.875 22.5619C16.0529 22.374 16.2166 22.1731 16.3645 21.9609C16.4729 21.7719 16.5287 21.5581 16.6309 21.3661C16.8849 20.8797 17.4085 20.5885 17.7059 20.1269C17.8949 19.8171 17.9847 19.4794 18.152 19.1696C18.331 18.8459 18.5916 18.5746 18.9079 18.3828C19.1227 18.2416 19.3624 18.1428 19.6142 18.0916C19.7103 18.0916 19.8713 18.0699 19.924 18.1628C19.9767 18.2557 19.8621 18.4726 19.766 18.5562C19.67 18.6399 19.4903 18.866 19.6142 18.9838C19.7907 18.8402 19.9782 18.7108 20.1749 18.5965C20.6039 18.3714 21.0851 18.2644 21.569 18.2867C21.7053 18.2867 22.1297 18.2867 22.1545 18.4788C22.1886 18.7638 21.4947 18.6864 21.5163 19.0519C22.0354 18.9261 22.5802 18.9583 23.0809 19.1443C23.5815 19.3303 24.0152 19.6617 24.3262 20.0959C24.3788 20.1703 24.4253 20.3128 24.3014 20.3468C24.1775 20.3809 23.9699 20.2353 23.8553 20.2136C23.767 20.1906 23.674 20.1939 23.5876 20.2231C23.5011 20.2522 23.4251 20.306 23.3689 20.3778C23.9409 20.6615 24.4836 21.0008 24.9891 21.3908C25.048 21.4373 25.113 21.5117 25.0728 21.5736C25.052 21.5985 25.0237 21.6159 24.9922 21.6232L24.6236 21.7502C24.9762 21.9595 25.2753 22.248 25.4972 22.5928C25.5591 22.6889 25.6118 22.8221 25.5375 22.9026C25.49 22.9439 25.4299 22.9679 25.3671 22.9708C24.9521 23.0109 24.5434 23.1003 24.1496 23.2372C24.0566 23.2775 23.8956 23.3456 23.9141 23.4727C23.9234 23.5149 23.9463 23.553 23.9792 23.5811C24.0942 23.6926 24.2387 23.7691 24.3956 23.8015C24.5525 23.8338 24.7154 23.8208 24.8652 23.7639C25.0573 23.6864 24.8435 24.244 24.8125 24.3091C24.6629 24.6476 24.4353 24.9459 24.1483 25.1796C23.8614 25.4132 23.5231 25.5757 23.1613 25.6536C22.9765 25.6872 22.7881 25.6976 22.6006 25.6846C22.5139 25.6846 22.1173 25.6195 22.1359 25.7775C22.1425 25.8113 22.1586 25.8425 22.1824 25.8673C22.3314 26.0377 22.5373 26.1478 22.7617 26.1771C22.9011 26.1895 23.2884 26.1028 23.3782 26.2236ZM17.5293 21.5395C17.5417 21.55 17.556 21.5578 17.5714 21.5626C17.5868 21.5674 17.6031 21.569 17.6192 21.5674C17.771 21.5674 17.7555 21.4032 17.8701 21.363C17.9351 21.3382 18.0374 21.363 18.0931 21.3196C18.214 21.2267 18.0684 21.1802 17.9754 21.174C17.8967 21.1705 17.8182 21.1849 17.7458 21.216C17.6733 21.2471 17.6089 21.2942 17.5572 21.3537C17.5076 21.4125 17.4859 21.4962 17.5293 21.5395Z" fill="#839D8D"/>
<path d="M24.7293 18.3364C24.6639 18.5296 24.6479 18.7363 24.6829 18.9374C24.791 19.4547 25.0665 19.922 25.4669 20.2669C25.8673 20.6119 26.3703 20.8153 26.8979 20.8457C27.4679 20.8983 28.1649 20.6536 28.3446 20.065C28.1927 20.0546 28.0402 20.0735 27.8954 20.1208C27.5936 20.1375 27.2926 20.0755 27.0218 19.9411C26.6571 19.769 26.3306 19.5257 26.0615 19.2255C25.8787 19.0427 25.7114 18.8475 25.5255 18.6678C25.3985 18.5439 25.2374 18.2806 25.0763 18.2031C25.0463 18.1818 25.0115 18.1682 24.975 18.1636C24.9385 18.159 24.9014 18.1635 24.8671 18.1767C24.8328 18.1899 24.8022 18.2114 24.7782 18.2392C24.7541 18.2671 24.7374 18.3004 24.7293 18.3364Z" fill="#839D8D"/>
<path d="M25.5285 18.2185C25.5285 18.3146 25.671 18.454 25.7453 18.5283C25.9857 18.7667 26.2413 18.9892 26.5105 19.1944C26.8102 19.4208 27.1437 19.5985 27.4988 19.721C27.6351 19.7582 27.9727 19.8418 28.0471 19.6808C28.0997 19.5723 27.9882 19.4453 27.9232 19.371C27.5576 18.9682 26.938 18.7235 26.4486 18.5097C26.2596 18.4292 25.8011 18.0574 25.5873 18.1411C25.5698 18.1448 25.5543 18.1546 25.5435 18.1688C25.5327 18.1831 25.5273 18.2007 25.5285 18.2185Z" fill="#839D8D"/>
<path d="M27.1858 17.3355C27.6659 17.6513 28.2408 17.7904 28.8122 17.729C29.1066 17.6901 29.38 17.5551 29.5898 17.3448C29.6246 17.3117 29.6481 17.2684 29.657 17.2212C29.6659 17.1739 29.6597 17.1251 29.6393 17.0815C29.6115 16.9855 29.5309 16.97 29.4504 16.9638C28.9798 16.9273 28.5183 16.8143 28.0842 16.6292C27.7192 16.4789 27.4154 16.2102 27.2215 15.8663C27.0277 15.5224 26.9551 15.1234 27.0154 14.7333C27.0267 14.6629 27.0519 14.5955 27.0897 14.535C27.1579 14.408 27.2384 14.2841 27.3097 14.154C27.3312 14.1182 27.344 14.0779 27.3469 14.0363C27.354 13.9849 27.3422 13.9327 27.3137 13.8894C27.2852 13.8461 27.242 13.8146 27.192 13.8008C27.1453 13.8001 27.0995 13.8133 27.0603 13.8386C27.0212 13.864 26.9904 13.9004 26.972 13.9433C26.9132 14.0765 26.8512 14.2066 26.7954 14.3398C26.7282 14.4923 26.6212 14.624 26.4857 14.7209C26.3145 14.8542 26.1881 15.0365 26.1233 15.2435C26.0585 15.4506 26.0585 15.6725 26.1232 15.8795C26.2233 16.293 26.4381 16.6699 26.7428 16.9669C26.9163 17.1218 27.0928 17.255 27.1858 17.3355Z" fill="#839D8D"/>
<path d="M27.127 14.8108C27.1007 15.1143 27.153 15.4194 27.2788 15.6968C27.4365 16.0457 27.718 16.3238 28.0687 16.4775L28.14 16.5085C28.2617 16.5765 28.3965 16.6178 28.5354 16.6295C28.6743 16.6413 28.8141 16.6233 28.9455 16.5766C29.2382 16.5208 29.5011 16.3613 29.6859 16.1274C29.7457 16.0479 29.7918 15.9589 29.8222 15.8641C29.8281 15.8365 29.827 15.8079 29.8189 15.7809C29.8109 15.7539 29.7961 15.7293 29.776 15.7096C29.7559 15.6898 29.7312 15.6754 29.704 15.6678C29.6769 15.6601 29.6483 15.6594 29.6208 15.6658C29.4318 15.6999 29.246 15.7557 29.057 15.7835C28.7356 15.8421 28.4052 15.8272 28.0904 15.7402C27.8896 15.6765 27.7059 15.5682 27.5529 15.4233C27.4 15.2784 27.2819 15.1008 27.2075 14.9037L27.1703 14.8108H27.127Z" fill="#839D8D"/>
<path d="M42.2849 51.2301C42.2012 51.1219 42.1439 50.9957 42.1176 50.8614C42.096 50.6786 42.1393 50.4928 42.1176 50.31C42.1186 50.1788 42.0759 50.0509 41.9963 49.9466C41.9166 49.8423 41.8046 49.7674 41.6777 49.7338C41.8109 49.6935 41.9163 49.771 42.0371 49.8174C42.0413 49.7719 42.0579 49.7284 42.0853 49.6918C42.1126 49.6552 42.1495 49.6268 42.192 49.6099C42.0185 49.8918 42.2911 50.1551 42.4026 50.3936C42.4782 50.5397 42.5124 50.7036 42.5018 50.8676C42.4744 51.0231 42.421 51.1729 42.3438 51.3106C42.3213 51.286 42.3015 51.259 42.2849 51.2301Z" fill="#839D8D"/>
<path d="M42.5298 47.6923C42.513 47.7204 42.4943 47.7473 42.474 47.7729C42.4639 47.7626 42.4519 47.7544 42.4386 47.7488C42.4253 47.7432 42.411 47.7404 42.3966 47.7404C42.3821 47.7404 42.3678 47.7432 42.3545 47.7488C42.3412 47.7544 42.3292 47.7626 42.3191 47.7729C42.3285 47.7696 42.3384 47.7684 42.3483 47.7693C42.3582 47.7703 42.3677 47.7734 42.3763 47.7784C42.3848 47.7834 42.3922 47.7902 42.3978 47.7984C42.4035 47.8065 42.4073 47.8158 42.4089 47.8256C42.4337 47.9278 42.3036 47.9712 42.2447 48.0238C42.1555 48.1109 42.0868 48.2167 42.0434 48.3336C41.9876 48.4854 42.0775 48.6155 42.2447 48.5629C42.412 48.5102 42.4895 48.2531 42.4802 48.0827C42.4709 47.9123 42.536 47.6676 42.6878 47.6149C42.6569 47.6122 42.6258 47.618 42.598 47.6317C42.5701 47.6453 42.5466 47.6663 42.5298 47.6923Z" fill="#839D8D"/>
<path d="M42.1769 47.2677C42.1095 47.3328 42.0464 47.4021 41.9879 47.4753C41.6409 47.8997 41.8299 48.4294 41.833 48.9251C41.833 49.4672 41.4117 49.3062 41.3002 48.8631C41.2404 48.6087 41.2487 48.343 41.3243 48.0929C41.3999 47.8427 41.5401 47.6168 41.7308 47.4381C41.9204 47.3011 42.0939 47.1431 42.2481 46.9672C42.3163 46.8712 42.5177 46.5242 42.4278 46.4065C42.485 46.4691 42.5279 46.5433 42.5536 46.6241C42.5792 46.7048 42.5871 46.7902 42.5765 46.8743C42.6658 46.8711 42.7531 46.9009 42.8217 46.9581C42.8903 47.0152 42.9354 47.0957 42.9483 47.1841C42.7376 46.8464 42.4123 47.0292 42.1769 47.2677Z" fill="#839D8D"/>
<path d="M41.3679 55.815C41.3932 55.8021 41.4171 55.7865 41.4392 55.7686C41.4949 55.7097 41.56 55.5579 41.6498 55.5579C41.7397 55.5579 41.8047 55.6323 41.8698 55.6694C41.9348 55.7066 42.1083 55.7097 42.0371 55.7872C41.9658 55.8646 41.9193 55.8398 41.8791 55.8677L41.656 56.0102C41.6219 56.0319 41.5817 56.0505 41.5445 56.0691C41.4762 56.1088 41.3968 56.1251 41.3183 56.1155C41.2843 56.1155 41.2719 56.1155 41.2626 56.1558C41.1648 56.4538 40.975 56.713 40.7204 56.8962C40.6164 56.9619 40.5077 57.0199 40.3952 57.0697C40.4602 57.1286 40.5315 57.1162 40.6151 57.1317C40.7167 57.1579 40.8233 57.1579 40.9249 57.1317C40.99 57.1131 41.1665 57.0418 41.2068 57.1317C41.2471 57.2215 41.1635 57.2742 41.1294 57.3082C41.0406 57.3849 40.9341 57.4381 40.8196 57.4631C40.5996 57.5344 40.2341 57.6025 40.0668 57.3888C40.0135 57.314 39.9775 57.2283 39.9615 57.1379C39.9611 57.1322 39.9595 57.1266 39.957 57.1215C39.9544 57.1164 39.9509 57.1118 39.9466 57.1081C39.9423 57.1043 39.9373 57.1015 39.9318 57.0997C39.9264 57.0979 39.9207 57.0972 39.915 57.0976C39.8069 57.084 39.702 57.0515 39.6052 57.0015C39.592 56.998 39.5781 56.998 39.5649 57.0015C39.4889 57.009 39.4183 57.0443 39.3667 57.1007C39.314 57.1688 39.2861 57.2556 39.2272 57.3175C39.1646 57.3843 39.082 57.4289 38.9918 57.4445C38.9144 57.4631 38.682 57.5158 38.6572 57.4074C38.6572 57.364 38.6789 57.3051 38.6913 57.2649C38.7044 57.1946 38.7251 57.1261 38.7533 57.0604C38.8168 56.9593 38.9147 56.8844 39.029 56.8497C39.0878 56.8312 39.1343 56.8497 39.1777 56.7878C39.2162 56.7438 39.2447 56.692 39.2613 56.636C39.266 56.6198 39.266 56.6026 39.2613 56.5864C39.2235 56.477 39.2088 56.361 39.218 56.2456C39.218 56.2209 39.218 56.2116 39.1901 56.1992C39.1225 56.1598 39.0573 56.1163 38.9949 56.0691C38.9442 56.0284 38.9038 55.9763 38.8769 55.9171C38.85 55.8579 38.8373 55.7933 38.84 55.7283C38.8358 55.5863 38.8568 55.4447 38.902 55.3101C38.9206 55.2388 38.9422 55.1149 39.0104 55.0684C39.0205 55.0593 39.0326 55.0526 39.0458 55.0489C39.0589 55.0451 39.0727 55.0444 39.0861 55.0468C39.0996 55.0492 39.1123 55.0546 39.1233 55.0627C39.1344 55.0707 39.1434 55.0812 39.1498 55.0932C39.2025 55.2233 39.1002 55.3844 39.1498 55.5207C39.1755 55.5901 39.2169 55.6526 39.2706 55.7035C39.3033 55.7384 39.3305 55.7781 39.3512 55.8212C39.4011 55.7664 39.4448 55.7061 39.4813 55.6416C39.5314 55.5795 39.5874 55.5224 39.6486 55.4712C39.7735 55.3695 39.9136 55.288 40.0637 55.2295C40.1872 55.1844 40.3134 55.1472 40.4416 55.118C40.4695 55.118 40.4819 55.0994 40.485 55.0715C40.4891 54.9902 40.5208 54.9126 40.5748 54.8516C40.6306 54.7865 40.9187 54.3745 41.0209 54.4922C41.0488 54.5263 41.0364 54.5975 41.0426 54.6378C41.0723 54.7084 41.0777 54.7869 41.0581 54.8609C41.024 54.929 40.9094 54.9755 40.8475 55.0158C40.833 55.0222 40.8207 55.0326 40.8119 55.0458C40.8031 55.0589 40.7983 55.0743 40.7979 55.0901H40.8444C40.9378 55.1026 41.032 55.1088 41.1263 55.1087C41.1851 55.1087 41.2874 55.0901 41.3245 55.1521C41.3617 55.214 41.1975 55.2295 41.2161 55.2853C41.2347 55.3411 41.371 55.214 41.4144 55.2605C41.4578 55.307 41.4392 55.3844 41.4144 55.4371C41.3998 55.5158 41.3916 55.5956 41.3896 55.6756C41.3896 55.719 41.3896 55.7655 41.371 55.8088L41.3679 55.815Z" fill="#839D8D"/>
<path d="M49.5747 56.5212C49.5072 56.526 49.4396 56.5139 49.3779 56.4861C49.3162 56.4583 49.2624 56.4157 49.2212 56.3619C49.1801 56.3082 49.1529 56.2451 49.1422 56.1783C49.1314 56.1114 49.1374 56.043 49.1596 55.9791C49.2434 55.7752 49.3471 55.5801 49.4694 55.3967C49.5252 55.3037 49.6088 55.3223 49.6584 55.3967C49.7778 55.5774 49.8814 55.7682 49.9682 55.9667C49.9914 56.0295 49.9989 56.097 49.9901 56.1634C49.9812 56.2298 49.9564 56.2931 49.9176 56.3477C49.8789 56.4023 49.8274 56.4466 49.7677 56.4769C49.7079 56.5071 49.6417 56.5223 49.5747 56.5212Z" fill="#839D8D"/>
<path d="M51.5015 51.5304C51.4463 51.4573 51.3704 51.4026 51.2836 51.3733C51.1969 51.344 51.1033 51.3415 51.0151 51.3663C50.9267 51.3916 50.8488 51.4447 50.793 51.5178C50.7372 51.591 50.7064 51.6801 50.7053 51.7721C50.6681 52.1221 50.6124 52.1562 50.2747 52.054C50.2017 52.0296 50.1223 52.0332 50.0519 52.0641C49.9815 52.095 49.9251 52.1511 49.8936 52.2213C49.8637 52.2924 49.8613 52.3722 49.8871 52.445C49.9129 52.5178 49.965 52.5783 50.033 52.6147L50.1632 52.6798C50.1303 52.7215 50.1012 52.766 50.0764 52.813C49.8967 53.2095 49.7171 53.603 49.5405 53.9995C49.4478 54.1923 49.4052 54.4054 49.4166 54.6191C49.4274 54.7397 49.4274 54.861 49.4166 54.9815C49.4027 55.041 49.4085 55.1033 49.4331 55.1592C49.4576 55.215 49.4997 55.2614 49.5529 55.2913C49.6137 55.3169 49.6817 55.32 49.7447 55.3002C49.8077 55.2803 49.8615 55.2388 49.8967 55.1829C49.9499 55.1081 50.0136 55.0414 50.0857 54.9846C50.2928 54.8502 50.4539 54.6556 50.5473 54.427C50.7115 54.0584 50.8819 53.6928 51.043 53.3241C51.0729 53.2463 51.0977 53.1666 51.1173 53.0856L51.2567 53.1414C51.3309 53.1696 51.413 53.1683 51.4862 53.1377C51.5594 53.1072 51.6181 53.0497 51.6502 52.9772C51.6801 52.906 51.6825 52.8262 51.6567 52.7535C51.6309 52.6807 51.5788 52.6201 51.5108 52.5837L51.4271 52.5435C51.3902 52.5285 51.3577 52.5042 51.333 52.473C51.3084 52.4417 51.2922 52.4045 51.2863 52.3651C51.2804 52.3257 51.2848 52.2854 51.2992 52.2482C51.3135 52.2111 51.3374 52.1783 51.3683 52.1531C51.4193 52.1067 51.465 52.0548 51.5046 51.9982C51.5566 51.9312 51.5846 51.8487 51.5841 51.7638C51.5835 51.6789 51.5544 51.5967 51.5015 51.5304ZM50.7022 53.5689C50.5752 53.8477 50.4575 54.1327 50.3181 54.4053C50.2493 54.5414 50.1582 54.665 50.0485 54.7709C49.937 54.8762 49.7914 54.8235 49.7387 54.6377C49.7396 54.5413 49.7531 54.4455 49.779 54.3527C49.906 54.0429 50.0516 53.7331 50.1941 53.4047C50.219 53.3769 50.2532 53.3593 50.2902 53.3551C50.3676 53.3505 50.4451 53.3505 50.5225 53.3551C50.5904 53.3499 50.6585 53.3616 50.7208 53.3892C50.7765 53.4295 50.7301 53.5069 50.7022 53.5689Z" fill="#839D8D"/>
<path d="M25.5563 45.1427C25.4536 45.1272 25.3492 45.1272 25.2465 45.1427C24.8544 45.2431 24.5015 45.4589 24.2335 45.7623C23.9485 46.038 23.6139 46.3509 23.6542 46.7846C23.668 46.9641 23.7307 47.1364 23.8356 47.2828C23.9405 47.4292 24.0834 47.544 24.249 47.6148C24.6796 47.7759 25.1009 47.5343 25.4324 47.2741C25.6295 47.0918 25.842 46.927 26.0675 46.7815C26.1865 46.7156 26.3189 46.6774 26.4547 46.67C26.5384 46.67 26.7645 46.7381 26.8389 46.67C26.9132 46.6018 26.7645 46.5306 26.7118 46.5027C26.4021 46.3416 26.2781 45.9389 26.1759 45.626C26.126 45.4969 26.042 45.3838 25.9329 45.2987C25.8238 45.2136 25.6936 45.1597 25.5563 45.1427Z" fill="#839D8D"/>
<path d="M26.6405 45.3501L26.6095 45.3346C26.5351 45.2367 26.4832 45.1235 26.4577 45.0031C26.4183 44.8807 26.3954 44.7536 26.3896 44.6252C26.3812 44.4967 26.4052 44.3681 26.4593 44.2512C26.5134 44.1343 26.596 44.0329 26.6993 43.956C27.0091 43.7175 27.6287 43.6463 27.8394 44.0428L27.8611 44.0831C28.0222 44.3929 27.7557 44.5849 27.48 44.681C27.2539 44.7615 26.6653 44.8018 26.6777 45.1147C26.6777 45.1735 26.721 45.2355 26.7179 45.2882C26.7148 45.3408 26.6746 45.3594 26.6405 45.3501Z" fill="#839D8D"/>
<path d="M26.1699 68.0209C25.7859 67.9933 25.4136 67.8766 25.0825 67.6801C24.9679 67.6244 24.8564 67.5686 24.7479 67.5252C24.3064 67.3384 23.8227 67.2742 23.3477 67.3394C23.3103 67.3436 23.2725 67.3403 23.2364 67.3296C23.2004 67.3188 23.1669 67.3009 23.1379 67.2769C23.109 67.2529 23.0852 67.2233 23.068 67.1898C23.0508 67.1563 23.0406 67.1198 23.0379 67.0822C23.034 67.0452 23.0376 67.0077 23.0483 66.9721C23.059 66.9364 23.0767 66.9032 23.1003 66.8744C23.1239 66.8456 23.153 66.8217 23.1859 66.8042C23.2188 66.7867 23.2548 66.7759 23.2919 66.7724C23.8587 66.699 24.4349 66.777 24.9617 66.9986C25.0887 67.0513 25.2126 67.1101 25.3304 67.1721C25.6242 67.366 25.9735 67.4584 26.3248 67.4354C26.3991 67.4168 26.4828 67.3889 26.5695 67.3611C26.7348 67.2991 26.9079 67.2605 27.0838 67.2464C27.121 67.2443 27.1583 67.2498 27.1933 67.2625C27.2284 67.2752 27.2605 67.2949 27.2877 67.3204C27.3149 67.3459 27.3367 67.3767 27.3517 67.4108C27.3667 67.4449 27.3746 67.4818 27.375 67.519C27.3762 67.5561 27.3702 67.593 27.3571 67.6277C27.3441 67.6623 27.3243 67.6941 27.299 67.7212C27.2737 67.7482 27.2433 67.77 27.2096 67.7853C27.1758 67.8006 27.1394 67.8091 27.1024 67.8103C26.9802 67.8244 26.8604 67.8546 26.7461 67.9001C26.6446 67.9348 26.5411 67.9638 26.4363 67.9868C26.349 68.0076 26.2597 68.0191 26.1699 68.0209Z" fill="#839D8D"/>
<path d="M19.2581 66.3262C19.1458 66.3265 19.0338 66.3161 18.9235 66.2952C18.5073 66.207 18.1399 65.9646 17.895 65.6168C17.8079 65.5074 17.7137 65.4039 17.6131 65.307C17.5649 65.2544 17.5383 65.1856 17.5383 65.1143C17.5384 65.043 17.5652 64.9743 17.6134 64.9218C17.6617 64.8693 17.7278 64.8368 17.7989 64.8306C17.8699 64.8245 17.9407 64.8453 17.9972 64.8888C18.1141 64.9982 18.2238 65.1151 18.3256 65.2388C18.4881 65.4865 18.7401 65.6619 19.0288 65.7283C19.2435 65.759 19.4615 65.759 19.6763 65.7283C19.7878 65.7283 19.8993 65.7035 20.0139 65.6973C20.051 65.6955 20.088 65.701 20.1229 65.7134C20.1578 65.7259 20.1899 65.7451 20.2174 65.77C20.2448 65.7949 20.2671 65.825 20.283 65.8585C20.2989 65.892 20.308 65.9283 20.3098 65.9653C20.3116 66.0023 20.3061 66.0393 20.2937 66.0742C20.2812 66.1091 20.262 66.1412 20.2371 66.1687C20.2122 66.1962 20.1822 66.2185 20.1486 66.2343C20.1151 66.2502 20.0788 66.2593 20.0418 66.2611L19.732 66.289C19.5749 66.3106 19.4166 66.323 19.2581 66.3262Z" fill="#839D8D"/>
<path d="M29.8126 69.545C29.6935 69.5446 29.5745 69.5363 29.4564 69.5203C29.1791 69.4634 28.9138 69.3586 28.6726 69.2105C28.5049 69.1054 28.3189 69.0328 28.1243 68.9967C27.8608 69.0014 27.6021 69.0672 27.3684 69.1888C27.1565 69.2837 26.9354 69.3563 26.7085 69.4056C26.0146 69.5357 25.4693 69.3003 24.9241 69.0742C24.8064 69.0246 24.6887 68.975 24.5648 68.9285C24.054 68.7413 23.5052 68.6817 22.9662 68.7551C22.6912 68.7941 22.411 68.7745 22.144 68.6977C21.8771 68.6208 21.6294 68.4883 21.4173 68.309L21.2221 68.185C20.6025 67.7823 20.1192 67.6305 19.7939 67.7389C19.7461 67.7584 19.6947 67.7678 19.643 67.7667C19.5914 67.7655 19.5405 67.7537 19.4936 67.7321C19.4466 67.7105 19.4046 67.6795 19.3701 67.641C19.3356 67.6025 19.3094 67.5574 19.2931 67.5083C19.2767 67.4593 19.2706 67.4074 19.2751 67.356C19.2796 67.3045 19.2946 67.2545 19.3192 67.209C19.3438 67.1636 19.3774 67.1236 19.4181 67.0917C19.4587 67.0597 19.5054 67.0365 19.5554 67.0233C20.1161 66.8374 20.7946 67.0233 21.631 67.55L21.8324 67.6801C22.2785 67.9744 22.3962 68.0549 22.9105 68.0054C23.5662 67.9181 24.2333 67.9936 24.8529 68.2253L25.2339 68.3802C25.7048 68.5785 26.1137 68.752 26.5877 68.6621C26.7633 68.6211 26.9345 68.563 27.0989 68.4886C27.4451 68.3174 27.828 68.2334 28.2141 68.2439C28.5082 68.2893 28.7897 68.3948 29.0413 68.5537C29.2092 68.6552 29.3922 68.7294 29.5834 68.7737C30.0631 68.819 30.5454 68.7198 30.9682 68.4886C31.0577 68.4447 31.1611 68.4381 31.2555 68.4703C31.3499 68.5026 31.4276 68.571 31.4716 68.6606C31.5155 68.7501 31.5221 68.8535 31.4899 68.9479C31.4576 69.0423 31.3892 69.12 31.2996 69.164C30.8404 69.405 30.3312 69.5354 29.8126 69.545Z" fill="#839D8D"/>
<path d="M23.7163 64.359C23.5609 64.4333 23.4361 64.5592 23.3632 64.7153C23.3594 64.7231 23.3534 64.7298 23.346 64.7344C23.3386 64.739 23.3301 64.7415 23.3213 64.7415C23.3126 64.7415 23.3041 64.739 23.2967 64.7344C23.2893 64.7298 23.2833 64.7231 23.2795 64.7153C23.2075 64.5586 23.0824 64.4324 22.9264 64.359C22.9185 64.3552 22.9119 64.3493 22.9072 64.3419C22.9026 64.3345 22.9001 64.3259 22.9001 64.3172C22.9001 64.3085 22.9026 64.2999 22.9072 64.2925C22.9119 64.2851 22.9185 64.2792 22.9264 64.2754C23.0828 64.2041 23.2083 64.0787 23.2795 63.9222C23.2833 63.9144 23.2893 63.9077 23.2967 63.9031C23.3041 63.8985 23.3126 63.896 23.3213 63.896C23.3301 63.896 23.3386 63.8985 23.346 63.9031C23.3534 63.9077 23.3594 63.9144 23.3632 63.9222C23.4353 64.078 23.5605 64.2032 23.7163 64.2754C23.7242 64.2792 23.7308 64.2851 23.7355 64.2925C23.7401 64.2999 23.7425 64.3085 23.7425 64.3172C23.7425 64.3259 23.7401 64.3345 23.7355 64.3419C23.7308 64.3493 23.7242 64.3552 23.7163 64.359Z" fill="#839D8D"/>
<path d="M23.2547 65.5052C22.9993 65.403 22.7671 65.2505 22.5718 65.0568C22.3765 64.8631 22.2221 64.6321 22.1177 64.3776C22.1124 64.3633 22.1029 64.3511 22.0905 64.3424C22.078 64.3337 22.0632 64.3291 22.048 64.3291C22.0328 64.3291 22.018 64.3337 22.0056 64.3424C21.9931 64.3511 21.9836 64.3633 21.9783 64.3776C21.8747 64.6345 21.7203 64.8679 21.5244 65.0638C21.3286 65.2596 21.0952 65.414 20.8383 65.5176C20.824 65.5229 20.8118 65.5324 20.8031 65.5449C20.7944 65.5573 20.7898 65.5721 20.7898 65.5873C20.7898 65.6025 20.7944 65.6173 20.8031 65.6298C20.8118 65.6422 20.824 65.6517 20.8383 65.657C21.0951 65.76 21.3284 65.9138 21.5243 66.1091C21.7202 66.3045 21.8747 66.5374 21.9783 66.794C21.9836 66.8082 21.9931 66.8205 22.0056 66.8291C22.018 66.8378 22.0328 66.8424 22.048 66.8424C22.0632 66.8424 22.078 66.8378 22.0905 66.8291C22.1029 66.8205 22.1124 66.8082 22.1177 66.794C22.2207 66.5375 22.3745 66.3046 22.5699 66.1092C22.7653 65.9138 22.9982 65.76 23.2547 65.657C23.2748 65.657 23.2941 65.649 23.3083 65.6348C23.3226 65.6206 23.3306 65.6013 23.3306 65.5811C23.3306 65.561 23.3226 65.5417 23.3083 65.5275C23.2941 65.5132 23.2748 65.5052 23.2547 65.5052ZM22.4523 65.6167C22.292 65.6903 22.1634 65.8189 22.0898 65.9792C22.086 65.9871 22.0801 65.9937 22.0727 65.9983C22.0653 66.003 22.0567 66.0054 22.048 66.0054C22.0393 66.0054 22.0307 66.003 22.0233 65.9983C22.0159 65.9937 22.01 65.9871 22.0062 65.9792C21.9296 65.8168 21.7963 65.6879 21.6313 65.6167C21.6235 65.6129 21.6169 65.607 21.6122 65.5996C21.6076 65.5922 21.6051 65.5837 21.6051 65.5749C21.6051 65.5662 21.6076 65.5576 21.6122 65.5502C21.6169 65.5429 21.6235 65.5369 21.6313 65.5331C21.7916 65.4595 21.9202 65.3309 21.9938 65.1706C21.9976 65.1628 22.0035 65.1562 22.0109 65.1515C22.0183 65.1469 22.0269 65.1444 22.0356 65.1444C22.0444 65.1444 22.0529 65.1469 22.0603 65.1515C22.0677 65.1562 22.0736 65.1628 22.0774 65.1706C22.151 65.3309 22.2796 65.4595 22.4399 65.5331C22.4485 65.5356 22.4561 65.5405 22.462 65.5472C22.4679 65.5539 22.4717 65.5621 22.473 65.5709C22.4743 65.5798 22.473 65.5888 22.4694 65.5969C22.4657 65.605 22.4598 65.6119 22.4523 65.6167Z" fill="#839D8D"/>
</svg>
