<svg width="20" height="20" viewBox="0 0 20 20" fill="none" xmlns="http://www.w3.org/2000/svg">
<g id="call">
<mask id="mask0_9071_3391" style="mask-type:alpha" maskUnits="userSpaceOnUse" x="0" y="0" width="20" height="20">
<rect id="Bounding box" width="20" height="20" fill="#D9D9D9"/>
</mask>
<g mask="url(#mask0_9071_3391)">
<path id="call_2" d="M16.2131 17.0346C14.5646 17.0346 12.9458 16.6534 11.3566 15.8911C9.76738 15.1288 8.34859 14.1235 7.1002 12.8751C5.85179 11.6267 4.84512 10.2093 4.08018 8.62272C3.31522 7.0362 2.93274 5.41868 2.93274 3.77018C2.93274 3.53407 3.01954 3.33268 3.19316 3.16602C3.36677 2.99935 3.57163 2.91602 3.80774 2.91602H6.60897C6.82479 2.91602 7.00962 2.98252 7.16347 3.11554C7.3173 3.24855 7.41345 3.42029 7.45193 3.63077L7.97116 6.14516C8.00427 6.3364 7.99732 6.51241 7.95032 6.6732C7.90331 6.83399 7.81891 6.96995 7.69711 7.08106L5.77243 8.97529C6.375 10.0373 7.12634 11.0191 8.02645 11.9208C8.92656 12.8225 9.94553 13.6019 11.0834 14.259L12.9455 12.3231C13.0951 12.1735 13.2452 12.0771 13.3958 12.0338C13.5465 11.9905 13.719 11.9855 13.9135 12.0186L16.3525 12.5314C16.563 12.5645 16.7347 12.6593 16.8678 12.8158C17.0008 12.9724 17.0673 13.1585 17.0673 13.3743V16.1596C17.0673 16.3957 16.9839 16.6005 16.8173 16.7741C16.6506 16.9478 16.4492 17.0346 16.2131 17.0346Z" fill="#006D35"/>
</g>
</g>
</svg>
