<svg width="20" height="20" viewBox="0 0 20 20" fill="none" xmlns="http://www.w3.org/2000/svg">
<g id="chat">
<mask id="mask0_9071_3395" style="mask-type:alpha" maskUnits="userSpaceOnUse" x="0" y="0" width="20" height="20">
<rect id="Bounding box" width="20" height="20" fill="#D9D9D9"/>
</mask>
<g mask="url(#mask0_9071_3395)">
<path id="chat_2" d="M5.87241 11.4589H10.8567C11.027 11.4589 11.1768 11.3951 11.3061 11.2675C11.4353 11.1398 11.5 10.9815 11.5 10.7923C11.5 10.615 11.4332 10.4595 11.2997 10.326C11.1661 10.1924 11.0115 10.1257 10.8359 10.1257H5.85157C5.68129 10.1257 5.53152 10.1895 5.40224 10.3171C5.27298 10.4447 5.20834 10.6031 5.20834 10.7923C5.20834 10.9696 5.27511 11.1251 5.40866 11.2586C5.5422 11.3922 5.69678 11.4589 5.87241 11.4589ZM5.87174 9.00061H14.1491C14.3189 9.00061 14.4685 8.93679 14.5977 8.80915C14.727 8.68151 14.7916 8.52312 14.7916 8.33396C14.7916 8.15662 14.7249 8.00117 14.5913 7.86763C14.4578 7.73409 14.3034 7.66732 14.1282 7.66732H5.85091C5.68107 7.66732 5.53152 7.73114 5.40224 7.85878C5.27298 7.98641 5.20834 8.14481 5.20834 8.33396C5.20834 8.51131 5.27511 8.66675 5.40866 8.8003C5.5422 8.93384 5.69656 9.00061 5.87174 9.00061ZM5.87174 6.54228H14.1491C14.3189 6.54228 14.4685 6.47846 14.5977 6.35082C14.727 6.22318 14.7916 6.06478 14.7916 5.87563C14.7916 5.69828 14.7249 5.54284 14.5913 5.4093C14.4578 5.27576 14.3034 5.20898 14.1282 5.20898H5.85091C5.68107 5.20898 5.53152 5.2728 5.40224 5.40044C5.27298 5.52808 5.20834 5.68648 5.20834 5.87563C5.20834 6.05298 5.27511 6.20842 5.40866 6.34196C5.5422 6.47551 5.69656 6.54228 5.87174 6.54228ZM2.08334 15.6288V3.67373C2.08334 3.22987 2.23734 2.85395 2.54532 2.54596C2.85331 2.23798 3.22923 2.08398 3.67309 2.08398H16.3269C16.7707 2.08398 17.1467 2.23798 17.4547 2.54596C17.7626 2.85395 17.9166 3.22987 17.9166 3.67373V12.9942C17.9166 13.4381 17.7626 13.814 17.4547 14.122C17.1467 14.4299 16.7707 14.5839 16.3269 14.5839H5.03205L3.44714 16.1689C3.19607 16.4199 2.906 16.479 2.57695 16.3462C2.24788 16.2133 2.08334 15.9742 2.08334 15.6288ZM3.41666 14.3051L4.47116 13.2506H16.3269C16.4017 13.2506 16.4631 13.2266 16.5112 13.1785C16.5593 13.1304 16.5833 13.069 16.5833 12.9942V3.67373C16.5833 3.59894 16.5593 3.53751 16.5112 3.48942C16.4631 3.44134 16.4017 3.4173 16.3269 3.4173H3.67309C3.5983 3.4173 3.53686 3.44134 3.48878 3.48942C3.4407 3.53751 3.41666 3.59894 3.41666 3.67373V14.3051ZM3.41666 3.67373V3.4173V14.3051V3.67373Z" fill="#006D35"/>
</g>
</g>
</svg>
