<svg width="15" height="15" viewBox="0 0 15 15" fill="none" xmlns="http://www.w3.org/2000/svg">
<path d="M2.43889 6.8391C2.43889 7.79465 2.68611 8.67798 3.18056 9.4891C3.675 10.3002 4.34444 10.9335 5.18889 11.3891C5.34444 11.478 5.45 11.5947 5.50556 11.7391C5.56111 11.8835 5.54444 12.028 5.45556 12.1724C5.36667 12.328 5.23333 12.428 5.05556 12.4724C4.87778 12.5169 4.70556 12.4947 4.53889 12.4058C3.51667 11.8391 2.71111 11.0585 2.12222 10.0641C1.53333 9.06965 1.23889 7.9891 1.23889 6.82243C1.23889 6.46687 1.26667 6.11965 1.32222 5.78076C1.37778 5.44187 1.46111 5.10576 1.57222 4.77243L0.905555 5.15576C0.761111 5.24465 0.611111 5.2641 0.455556 5.2141C0.3 5.1641 0.177778 5.06687 0.0888889 4.92243C0 4.77798 -0.0222222 4.62798 0.0222222 4.47243C0.0666667 4.31687 0.161111 4.19465 0.305556 4.10576L2.38889 2.90576C2.53333 2.81687 2.68333 2.79465 2.83889 2.8391C2.99444 2.88354 3.11667 2.97798 3.20556 3.12243L4.40556 5.22243C4.49444 5.36687 4.51667 5.51687 4.47222 5.67243C4.42778 5.82798 4.33333 5.95021 4.18889 6.0391C4.04444 6.12798 3.89444 6.15021 3.73889 6.10576C3.58333 6.06132 3.46111 5.96687 3.37222 5.82243L2.82222 4.87243C2.7 5.18354 2.60556 5.50576 2.53889 5.8391C2.47222 6.17243 2.43889 6.50576 2.43889 6.8391ZM7.63889 1.60576C7.15 1.60576 6.67778 1.67243 6.22222 1.80576C5.76667 1.9391 5.33333 2.13354 4.92222 2.3891C4.76667 2.47798 4.61111 2.51132 4.45556 2.4891C4.3 2.46687 4.17778 2.38354 4.08889 2.2391C4 2.08354 3.975 1.91965 4.01389 1.74743C4.05278 1.57521 4.15 1.44465 4.30556 1.35576C4.80556 1.04465 5.33611 0.80854 5.89722 0.647428C6.45833 0.486317 7.03889 0.405762 7.63889 0.405762C8.56111 0.405762 9.43889 0.594651 10.2722 0.972428C11.1056 1.35021 11.8278 1.8891 12.4389 2.5891V1.80576C12.4389 1.6391 12.4972 1.49743 12.6139 1.38076C12.7306 1.2641 12.8722 1.20576 13.0389 1.20576C13.2056 1.20576 13.3472 1.2641 13.4639 1.38076C13.5806 1.49743 13.6389 1.6391 13.6389 1.80576V4.20576C13.6389 4.37243 13.5806 4.5141 13.4639 4.63076C13.3472 4.74743 13.2056 4.80576 13.0389 4.80576H10.6389C10.4722 4.80576 10.3306 4.74743 10.2139 4.63076C10.0972 4.5141 10.0389 4.37243 10.0389 4.20576C10.0389 4.0391 10.0972 3.89743 10.2139 3.78076C10.3306 3.6641 10.4722 3.60576 10.6389 3.60576H11.7389C11.2389 2.97243 10.6306 2.48076 9.91389 2.13076C9.19722 1.78076 8.43889 1.60576 7.63889 1.60576ZM11.5389 10.2224C11.9722 9.72243 12.3 9.17243 12.5222 8.57243C12.7444 7.97243 12.8444 7.34465 12.8222 6.6891C12.8111 6.51132 12.8583 6.35298 12.9639 6.2141C13.0694 6.07521 13.2056 6.00576 13.3722 6.00576C13.5611 6.00576 13.7194 6.07243 13.8472 6.20576C13.975 6.3391 14.0389 6.50021 14.0389 6.6891C14.0611 7.45576 13.9444 8.19465 13.6889 8.90576C13.4333 9.61687 13.0611 10.2669 12.5722 10.8558C12.1056 11.4224 11.5583 11.8974 10.9306 12.2808C10.3028 12.6641 9.62222 12.9335 8.88889 13.0891L9.55556 13.4724C9.7 13.5613 9.79444 13.6835 9.83889 13.8391C9.88333 13.9947 9.86111 14.1447 9.77222 14.2891C9.68333 14.4335 9.56111 14.528 9.40555 14.5724C9.25 14.6169 9.1 14.5947 8.95555 14.5058L6.87222 13.3058C6.72778 13.2169 6.63333 13.0947 6.58889 12.9391C6.54444 12.7835 6.56667 12.6335 6.65556 12.4891L7.85556 10.4058C7.94444 10.2613 8.06667 10.1669 8.22222 10.1224C8.37778 10.078 8.52778 10.1002 8.67222 10.1891C8.81667 10.278 8.91389 10.403 8.96389 10.5641C9.01389 10.7252 8.99444 10.878 8.90555 11.0224L8.35556 11.9558C8.97778 11.8669 9.56111 11.6724 10.1056 11.3724C10.65 11.0724 11.1278 10.6891 11.5389 10.2224Z" fill="white"/>
</svg>
