<svg width="18" height="18" viewBox="0 0 18 18" fill="none" xmlns="http://www.w3.org/2000/svg">
<path d="M3.04861 8.1735C3.04861 9.36795 3.35764 10.4721 3.97569 11.486C4.59375 12.4999 5.43056 13.2916 6.48611 13.861C6.68056 13.9721 6.8125 14.1179 6.88194 14.2985C6.95139 14.4791 6.93056 14.6596 6.81944 14.8402C6.70833 15.0346 6.54167 15.1596 6.31944 15.2152C6.09722 15.2707 5.88195 15.2429 5.67361 15.1318C4.39583 14.4235 3.38889 13.4478 2.65278 12.2048C1.91667 10.9617 1.54861 9.611 1.54861 8.15267C1.54861 7.70823 1.58333 7.2742 1.65278 6.85059C1.72222 6.42697 1.82639 6.00684 1.96528 5.59017L1.13194 6.06934C0.951389 6.18045 0.763889 6.20475 0.569444 6.14225C0.375 6.07975 0.222222 5.95822 0.111111 5.77767C0 5.59711 -0.0277778 5.40961 0.0277778 5.21517C0.0833333 5.02072 0.201389 4.86795 0.381944 4.75684L2.98611 3.25684C3.16667 3.14572 3.35417 3.11795 3.54861 3.1735C3.74306 3.22906 3.89583 3.34711 4.00694 3.52767L5.50694 6.15267C5.61806 6.33322 5.64583 6.52072 5.59028 6.71517C5.53472 6.90961 5.41667 7.06239 5.23611 7.1735C5.05556 7.28461 4.86806 7.31239 4.67361 7.25684C4.47917 7.20128 4.32639 7.08322 4.21528 6.90267L3.52778 5.71517C3.375 6.10406 3.25694 6.50684 3.17361 6.9235C3.09028 7.34017 3.04861 7.75684 3.04861 8.1735ZM9.54861 1.63184C8.9375 1.63184 8.34722 1.71517 7.77778 1.88184C7.20833 2.0485 6.66667 2.29156 6.15278 2.611C5.95833 2.72211 5.76389 2.76378 5.56944 2.736C5.375 2.70823 5.22222 2.60406 5.11111 2.4235C5 2.22906 4.96875 2.0242 5.01736 1.80892C5.06597 1.59364 5.1875 1.43045 5.38194 1.31934C6.00694 0.930447 6.67014 0.635308 7.37153 0.433919C8.07292 0.23253 8.79861 0.131836 9.54861 0.131836C10.7014 0.131836 11.7986 0.367947 12.8403 0.840169C13.8819 1.31239 14.7847 1.986 15.5486 2.861V1.88184C15.5486 1.6735 15.6215 1.49642 15.7674 1.35059C15.9132 1.20475 16.0903 1.13184 16.2986 1.13184C16.5069 1.13184 16.684 1.20475 16.8299 1.35059C16.9757 1.49642 17.0486 1.6735 17.0486 1.88184V4.88184C17.0486 5.09017 16.9757 5.26725 16.8299 5.41309C16.684 5.55892 16.5069 5.63184 16.2986 5.63184H13.2986C13.0903 5.63184 12.9132 5.55892 12.7674 5.41309C12.6215 5.26725 12.5486 5.09017 12.5486 4.88184C12.5486 4.6735 12.6215 4.49642 12.7674 4.35059C12.9132 4.20475 13.0903 4.13184 13.2986 4.13184H14.6736C14.0486 3.34017 13.2882 2.72559 12.3924 2.28809C11.4965 1.85059 10.5486 1.63184 9.54861 1.63184ZM14.4236 12.4027C14.9653 11.7777 15.375 11.0902 15.6528 10.3402C15.9306 9.59017 16.0556 8.80545 16.0278 7.986C16.0139 7.76378 16.0729 7.56586 16.2049 7.39225C16.3368 7.21864 16.5069 7.13184 16.7153 7.13184C16.9514 7.13184 17.1493 7.21517 17.309 7.38184C17.4688 7.5485 17.5486 7.74989 17.5486 7.986C17.5764 8.94434 17.4306 9.86795 17.1111 10.7568C16.7917 11.6457 16.3264 12.4582 15.7153 13.1943C15.1319 13.9027 14.4479 14.4964 13.6632 14.9756C12.8785 15.4548 12.0278 15.7916 11.1111 15.986L11.9444 16.4652C12.125 16.5763 12.2431 16.7291 12.2986 16.9235C12.3542 17.1179 12.3264 17.3054 12.2153 17.486C12.1042 17.6666 11.9514 17.7846 11.7569 17.8402C11.5625 17.8957 11.375 17.8679 11.1944 17.7568L8.59028 16.2568C8.40972 16.1457 8.29167 15.9929 8.23611 15.7985C8.18056 15.6041 8.20833 15.4166 8.31944 15.236L9.81944 12.6318C9.93056 12.4513 10.0833 12.3332 10.2778 12.2777C10.4722 12.2221 10.6597 12.2499 10.8403 12.361C11.0208 12.4721 11.1424 12.6284 11.2049 12.8298C11.2674 13.0311 11.2431 13.2221 11.1319 13.4027L10.4444 14.5693C11.2222 14.4582 11.9514 14.2152 12.6319 13.8402C13.3125 13.4652 13.9097 12.986 14.4236 12.4027Z" fill="black"/>
</svg>
