<svg width="6" height="6" viewBox="0 0 10 10" fill="none" xmlns="http://www.w3.org/2000/svg">
<path d="M5.0004 5.98294L1.78373 9.19961C1.6504 9.33294 1.48929 9.39683 1.3004 9.39128C1.11151 9.38572 0.950398 9.31628 0.817065 9.18294C0.683732 9.04961 0.617065 8.88572 0.617065 8.69128C0.617065 8.49683 0.683732 8.33294 0.817065 8.19961L4.01707 4.99961L0.800398 1.78294C0.667065 1.64961 0.603176 1.48572 0.608732 1.29128C0.614287 1.09683 0.683732 0.932943 0.817065 0.799609C0.950398 0.666276 1.11429 0.599609 1.30873 0.599609C1.50318 0.599609 1.66707 0.666276 1.8004 0.799609L5.0004 4.01628L8.21707 0.799609C8.3504 0.666276 8.51429 0.599609 8.70873 0.599609C8.90318 0.599609 9.06707 0.666276 9.2004 0.799609C9.33373 0.932943 9.4004 1.09683 9.4004 1.29128C9.4004 1.48572 9.33373 1.64961 9.2004 1.78294L5.98373 4.99961L9.2004 8.21628C9.33373 8.34961 9.4004 8.51072 9.4004 8.69961C9.4004 8.8885 9.33373 9.04961 9.2004 9.18294C9.06707 9.31628 8.90318 9.38294 8.70873 9.38294C8.51429 9.38294 8.3504 9.31628 8.21707 9.18294L5.0004 5.98294Z" fill="#006D35"/>
</svg>
