<svg width="42" height="41" viewBox="0 0 42 41" fill="none" xmlns="http://www.w3.org/2000/svg">
<path d="M5.37533 19.2603C3.91699 19.2603 2.68435 18.7568 1.67741 17.7498C0.670464 16.7429 0.166992 15.5103 0.166992 14.0519C0.166992 12.5936 0.670464 11.3609 1.67741 10.354C2.68435 9.34706 3.91699 8.84359 5.37533 8.84359C6.83366 8.84359 8.0663 9.34706 9.07324 10.354C10.0802 11.3609 10.5837 12.5936 10.5837 14.0519C10.5837 15.5103 10.0802 16.7429 9.07324 17.7498C8.0663 18.7568 6.83366 19.2603 5.37533 19.2603ZM14.7503 10.9269C13.292 10.9269 12.0594 10.4234 11.0524 9.4165C10.0455 8.40956 9.54199 7.17692 9.54199 5.71859C9.54199 4.26025 10.0455 3.02762 11.0524 2.02067C12.0594 1.01373 13.292 0.510254 14.7503 0.510254C16.2087 0.510254 17.4413 1.01373 18.4482 2.02067C19.4552 3.02762 19.9587 4.26025 19.9587 5.71859C19.9587 7.17692 19.4552 8.40956 18.4482 9.4165C17.4413 10.4234 16.2087 10.9269 14.7503 10.9269ZM27.2503 10.9269C25.792 10.9269 24.5594 10.4234 23.5524 9.4165C22.5455 8.40956 22.042 7.17692 22.042 5.71859C22.042 4.26025 22.5455 3.02762 23.5524 2.02067C24.5594 1.01373 25.792 0.510254 27.2503 0.510254C28.7087 0.510254 29.9413 1.01373 30.9482 2.02067C31.9552 3.02762 32.4587 4.26025 32.4587 5.71859C32.4587 7.17692 31.9552 8.40956 30.9482 9.4165C29.9413 10.4234 28.7087 10.9269 27.2503 10.9269ZM36.6253 19.2603C35.167 19.2603 33.9344 18.7568 32.9274 17.7498C31.9205 16.7429 31.417 15.5103 31.417 14.0519C31.417 12.5936 31.9205 11.3609 32.9274 10.354C33.9344 9.34706 35.167 8.84359 36.6253 8.84359C38.0837 8.84359 39.3163 9.34706 40.3232 10.354C41.3302 11.3609 41.8337 12.5936 41.8337 14.0519C41.8337 15.5103 41.3302 16.7429 40.3232 17.7498C39.3163 18.7568 38.0837 19.2603 36.6253 19.2603ZM9.85449 40.0936C8.29199 40.0936 6.98123 39.4946 5.9222 38.2967C4.86317 37.0988 4.33366 35.6839 4.33366 34.0519C4.33366 32.2464 4.94998 30.6665 6.18262 29.3123C7.41526 27.9582 8.63922 26.6214 9.85449 25.3019C10.8614 24.2255 11.7295 23.0537 12.4587 21.7863C13.1878 20.5189 14.0559 19.3297 15.0628 18.2186C15.8267 17.3158 16.7121 16.5693 17.7191 15.979C18.726 15.3887 19.8198 15.0936 21.0003 15.0936C22.1809 15.0936 23.2746 15.3714 24.2816 15.9269C25.2885 16.4825 26.1739 17.2116 26.9378 18.1144C27.9101 19.2255 28.7694 20.4234 29.516 21.7082C30.2625 22.9929 31.1392 24.1908 32.1462 25.3019C33.3614 26.6214 34.5854 27.9582 35.818 29.3123C37.0507 30.6665 37.667 32.2464 37.667 34.0519C37.667 35.6839 37.1375 37.0988 36.0785 38.2967C35.0194 39.4946 33.7087 40.0936 32.1462 40.0936C30.2712 40.0936 28.4135 39.9373 26.5732 39.6248C24.733 39.3123 22.8753 39.1561 21.0003 39.1561C19.1253 39.1561 17.2677 39.3123 15.4274 39.6248C13.5871 39.9373 11.7295 40.0936 9.85449 40.0936Z" fill="#44544A"/>
</svg>
