<svg width="24" height="24" viewBox="0 0 24 24" fill="none" xmlns="http://www.w3.org/2000/svg">
<path d="M18.8906 4.40625H18.0469V3H16.6406V4.40625H7.35938V3H5.95312V4.40625H5.10938C3.94627 4.40625 3 5.35252 3 6.51562V18.8906C3 20.0537 3.94627 21 5.10938 21H15.1115L21 14.8851V6.51562C21 5.35252 20.0537 4.40625 18.8906 4.40625ZM15.5156 18.553V16.0078C15.5156 15.6201 15.831 15.3047 16.2188 15.3047H18.6437L15.5156 18.553ZM19.5938 13.8984H16.2188C15.0556 13.8984 14.1094 14.8447 14.1094 16.0078V19.5938H5.10938C4.72167 19.5938 4.40625 19.2783 4.40625 18.8906V9.60938H19.5938V13.8984ZM19.5938 8.20312H4.40625V6.51562C4.40625 6.12792 4.72167 5.8125 5.10938 5.8125H5.95312V7.21875H7.35938V5.8125H16.6406V7.21875H18.0469V5.8125H18.8906C19.2783 5.8125 19.5938 6.12792 19.5938 6.51562V8.20312Z" fill="#1F515B"/>
</svg>
