<svg width="18" height="19" viewBox="0 0 18 19" fill="none" xmlns="http://www.w3.org/2000/svg">
<path d="M4 14.1992H11V12.1992H4V14.1992ZM4 10.1992H14V8.19922H4V10.1992ZM4 6.19922H14V4.19922H4V6.19922ZM2 18.1992C1.45 18.1992 0.979167 18.0034 0.5875 17.6117C0.195833 17.2201 0 16.7492 0 16.1992V2.19922C0 1.64922 0.195833 1.17839 0.5875 0.786719C0.979167 0.395052 1.45 0.199219 2 0.199219H16C16.55 0.199219 17.0208 0.395052 17.4125 0.786719C17.8042 1.17839 18 1.64922 18 2.19922V16.1992C18 16.7492 17.8042 17.2201 17.4125 17.6117C17.0208 18.0034 16.55 18.1992 16 18.1992H2ZM2 16.1992H16V2.19922H2V16.1992Z" fill="#44544A"/>
</svg>