<svg width="15" height="18" viewBox="0 0 15 18" fill="none" xmlns="http://www.w3.org/2000/svg">
<path d="M4.26693 13.9993H10.9336V12.3327H4.26693V13.9993ZM4.26693 10.666H10.9336V8.99935H4.26693V10.666ZM2.60026 17.3327C2.14193 17.3327 1.74957 17.1695 1.42318 16.8431C1.09679 16.5167 0.933594 16.1243 0.933594 15.666V2.33268C0.933594 1.87435 1.09679 1.48199 1.42318 1.1556C1.74957 0.82921 2.14193 0.666016 2.60026 0.666016H9.26693L14.2669 5.66602V15.666C14.2669 16.1243 14.1037 16.5167 13.7773 16.8431C13.451 17.1695 13.0586 17.3327 12.6003 17.3327H2.60026ZM8.43359 6.49935H12.6003L8.43359 2.33268V6.49935Z" fill="white"/>
</svg>
