<svg width="48" height="48" viewBox="0 0 48 48" fill="none" xmlns="http://www.w3.org/2000/svg">
<g id="done">
<mask id="mask0_8871_2166" style="mask-type:alpha" maskUnits="userSpaceOnUse" x="0" y="0" width="48" height="48">
<rect id="Bounding box" width="48" height="48" fill="#D9D9D9"/>
</mask>
<g mask="url(#mask0_8871_2166)">
<path id="done_2" d="M18.8999 30.6652L36.6825 12.9109C37.0815 12.5167 37.554 12.3196 38.1002 12.3196C38.6464 12.3196 39.1166 12.5176 39.5108 12.9135C39.905 13.3095 40.1021 13.7837 40.1021 14.3361C40.1021 14.8886 39.905 15.3657 39.5108 15.7674L20.3173 34.9609C19.9163 35.3551 19.4421 35.5522 18.8948 35.5522C18.3475 35.5522 17.8767 35.3551 17.4825 34.9609L8.43904 25.9174C8.04484 25.5135 7.85136 25.0349 7.85859 24.4818C7.86586 23.9287 8.06748 23.4551 8.46344 23.0609C8.85941 22.6667 9.33361 22.4696 9.88604 22.4696C10.4385 22.4696 10.9156 22.6667 11.3173 23.0609L18.8999 30.6652Z" fill="#52F990"/>
</g>
</g>
</svg>
