<svg width="69" height="69" viewBox="0 0 69 69" fill="none" xmlns="http://www.w3.org/2000/svg">
<g id="egg">
<mask id="mask0_8871_2128" style="mask-type:alpha" maskUnits="userSpaceOnUse" x="0" y="0" width="69" height="69">
<rect id="Bounding box" width="69" height="69" fill="#D9D9D9"/>
</mask>
<g mask="url(#mask0_8871_2128)">
<path id="egg_2" d="M34.4998 60.375C28.8936 60.375 24.1378 58.4224 20.2326 54.5172C16.3274 50.612 14.3748 45.8563 14.3748 40.25C14.3748 36.5604 14.9858 32.8469 16.2076 29.1094C17.4295 25.3719 19.0108 21.9818 20.9514 18.9391C22.892 15.8964 25.0602 13.4167 27.4561 11.5C29.8519 9.58333 32.1998 8.625 34.4998 8.625C36.8477 8.625 39.2076 9.58333 41.5795 11.5C43.9514 13.4167 46.1076 15.8964 48.0483 18.9391C49.9889 21.9818 51.5701 25.3719 52.792 29.1094C54.0139 32.8469 54.6248 36.5604 54.6248 40.25C54.6248 45.8563 52.6722 50.612 48.767 54.5172C44.8618 58.4224 40.1061 60.375 34.4998 60.375ZM37.3748 51.75C38.1894 51.75 38.8722 51.4745 39.4233 50.9234C39.9743 50.3724 40.2498 49.6896 40.2498 48.875C40.2498 48.0604 39.9743 47.3776 39.4233 46.8266C38.8722 46.2755 38.1894 46 37.3748 46C34.979 46 32.9425 45.1615 31.2654 43.4844C29.5884 41.8073 28.7498 39.7708 28.7498 37.375C28.7498 36.5604 28.4743 35.8776 27.9233 35.3266C27.3722 34.7755 26.6894 34.5 25.8748 34.5C25.0602 34.5 24.3774 34.7755 23.8264 35.3266C23.2753 35.8776 22.9998 36.5604 22.9998 37.375C22.9998 41.3521 24.4014 44.7422 27.2045 47.5453C30.0076 50.3484 33.3977 51.75 37.3748 51.75Z" fill="#F2FFF8"/>
</g>
</g>
</svg>
