<svg width="21" height="32" viewBox="0 0 21 32" fill="none" xmlns="http://www.w3.org/2000/svg">
<path d="M19.1714 27.0687V13.1989C19.1714 9.83737 16.8928 6.94775 13.7299 6.1007V4.92126C13.7299 4.04732 13.4135 3.35066 12.9311 3.03426C12.9363 2.96994 12.9363 2.91085 12.9363 2.84654C12.9363 1.27594 11.6551 0 10.0842 0C8.5079 0 7.23197 1.27594 7.23197 2.84654C7.23197 2.91086 7.2372 2.97518 7.2372 3.03426C6.74918 3.35587 6.43319 4.05296 6.43319 4.92126V6.1007C3.27026 6.94248 0.991704 9.83727 0.991704 13.1989V27.063C0.412813 27.2346 0 27.8244 0 28.548C0 29.352 0.514568 29.9899 1.19552 30.0703C1.20076 30.0917 1.20636 30.1238 1.20636 30.156V30.6866C1.20636 31.4263 1.72654 32 2.3858 32H17.7778C18.4427 32 18.9573 31.4211 18.9573 30.6866L18.9569 30.1564C18.9569 30.119 18.9621 30.092 18.9677 30.0707C19.6487 29.9851 20.1633 29.3471 20.1633 28.5484C20.1685 27.8296 19.7504 27.2399 19.1716 27.0686L19.1714 27.0687ZM13.6761 14.743H10.883V7.61798C12.5448 8.40068 13.6761 10.438 13.6761 12.7326V14.743ZM17.5791 21.0958H15.2741V16.3458H17.5791V21.0958ZM13.6761 21.0958H10.883V16.3458L13.6761 16.3462V21.0958ZM12.0677 4.45542C12.0998 4.55191 12.1372 4.71271 12.1372 4.92736V5.49017H8.03073V4.92736C8.03073 4.71308 8.06813 4.55191 8.10029 4.45542H12.0677ZM9.28546 7.61836V14.7434H6.49234V12.733C6.49234 10.4384 7.62353 8.40146 9.28546 7.61836ZM9.28546 16.3466V21.0962H6.49234V16.3462L9.28546 16.3466ZM4.90001 21.0962H2.59494V16.3462H4.90001V21.0962ZM4.90001 22.7046V27.0148H2.59494V22.7046H4.90001ZM6.49234 22.7046H9.28546V27.0148H6.49234V22.7046ZM10.883 22.7046H13.6761V27.0148H10.883V22.7046ZM15.2684 22.7046H17.5735V27.0148H15.2684V22.7046ZM17.5791 13.1993V14.7378H15.2741L15.2737 12.733C15.2737 10.8083 14.6144 9.01253 13.5314 7.71524C15.8956 8.44409 17.5791 10.6531 17.5791 13.1993ZM10.0843 1.60889C10.7757 1.60889 11.3441 2.16646 11.3441 2.85265H8.82441C8.82441 2.16644 9.39282 1.60889 10.0843 1.60889ZM6.63709 7.71524C5.55415 9.01253 4.89483 10.8086 4.89483 12.733V14.7382H2.58976V13.1997C2.58939 10.653 4.27295 8.44406 6.63709 7.71524ZM17.364 30.1619V30.3978H2.80392V30.1619C2.80392 29.4648 2.45539 28.8807 1.94606 28.6178H18.2227C17.7133 28.8807 17.3648 29.4652 17.3648 30.1619H17.364Z" fill="#44544A"/>
</svg>
