<svg width="16" height="16" viewBox="0 0 16 16" fill="none" xmlns="http://www.w3.org/2000/svg">
<path d="M2.36637 15.5C1.90804 15.5 1.51568 15.3368 1.18929 15.0104C0.862901 14.684 0.699707 14.2917 0.699707 13.8333V2.16667C0.699707 1.70833 0.862901 1.31597 1.18929 0.989583C1.51568 0.663194 1.90804 0.5 2.36637 0.5H14.033C14.4914 0.5 14.8837 0.663194 15.2101 0.989583C15.5365 1.31597 15.6997 1.70833 15.6997 2.16667V13.8333C15.6997 14.2917 15.5365 14.684 15.2101 15.0104C14.8837 15.3368 14.4914 15.5 14.033 15.5H2.36637ZM3.19971 12.1667H13.1997L10.0747 8L7.57471 11.3333L5.69971 8.83333L3.19971 12.1667ZM5.28304 6.33333C5.63026 6.33333 5.9254 6.21181 6.16846 5.96875C6.41151 5.72569 6.53304 5.43056 6.53304 5.08333C6.53304 4.73611 6.41151 4.44097 6.16846 4.19792C5.9254 3.95486 5.63026 3.83333 5.28304 3.83333C4.93582 3.83333 4.64068 3.95486 4.39762 4.19792C4.15457 4.44097 4.03304 4.73611 4.03304 5.08333C4.03304 5.43056 4.15457 5.72569 4.39762 5.96875C4.64068 6.21181 4.93582 6.33333 5.28304 6.33333Z" fill="white"/>
</svg>