<svg width="69" height="69" viewBox="0 0 69 69" fill="none" xmlns="http://www.w3.org/2000/svg">
<g id="egg">
<mask id="mask0_8871_2152" style="mask-type:alpha" maskUnits="userSpaceOnUse" x="0" y="0" width="69" height="69">
<rect id="Bounding box" width="69" height="69" fill="#D9D9D9"/>
</mask>
<g mask="url(#mask0_8871_2152)">
<g id="egg_2">
<g id="Hatched chicken eggs">
<path id="Vector" d="M32.1523 26.1176L33.9994 28.5647L35.8465 26.1176L33.9994 24.8823L32.1523 26.1176Z" fill="white"/>
<path id="Vector_2" d="M19.8815 31.7059C19.879 33.5463 20.2388 35.3692 20.9403 37.0706L22.2345 38.1059L28.1168 33.4L33.9992 38.1059L39.8815 33.4L45.7639 38.1059L47.058 37.0706C47.7595 35.3692 48.1193 33.5463 48.1168 31.7059C50.4697 29.3529 52.4227 27.9412 52.4227 24.6471C52.4226 23.7728 52.2501 22.9071 51.915 22.0996C51.5799 21.2921 51.0888 20.5586 50.4697 19.9412L46.5168 23.8941C44.5874 18.7647 41.058 13.7882 36.7639 12.2235L38.9874 11.7059C39.2994 11.631 39.5689 11.4352 39.7366 11.1616C39.9043 10.8881 39.9564 10.5591 39.8815 10.2471C39.8066 9.93504 39.6109 9.66555 39.3373 9.49787C39.0637 9.33019 38.7347 9.27806 38.4227 9.35294L35.1756 10.2V8.17647C35.1756 7.86445 35.0517 7.56521 34.8311 7.34458C34.6104 7.12395 34.3112 7 33.9992 7C33.6871 7 33.3879 7.12395 33.1673 7.34458C32.9466 7.56521 32.8227 7.86445 32.8227 8.17647C32.8227 13.0941 32.8227 11.4 32.8227 11.8C27.8698 12.5647 23.6462 18.0941 21.458 23.8941L17.5286 19.9412C16.9096 20.5586 16.4186 21.2921 16.0835 22.0996C15.7485 22.9071 15.576 23.7728 15.576 24.6471C15.576 25.5213 15.7485 26.387 16.0835 27.1945C16.4186 28.002 16.9096 28.7355 17.5286 29.3529L19.8815 31.7059ZM38.4697 26.5294C33.2933 33.4353 34.7521 33.4941 29.5286 26.5294C29.4332 26.4011 29.365 26.2548 29.3281 26.0993C29.2912 25.9438 29.2864 25.7824 29.3139 25.625C29.3414 25.4676 29.4007 25.3174 29.4882 25.1836C29.5757 25.0499 29.6895 24.9354 29.8227 24.8471C33.4933 22.4 33.8227 21.9176 34.6462 22.4941C38.3639 24.9765 38.5756 24.9647 38.6933 25.6235C38.7388 25.943 38.6587 26.2677 38.4697 26.5294ZM38.705 19.9412V21.1176C38.705 21.4297 38.5811 21.7289 38.3605 21.9495C38.1398 22.1702 37.8406 22.2941 37.5286 22.2941C37.2166 22.2941 36.9173 22.1702 36.6967 21.9495C36.476 21.7289 36.3521 21.4297 36.3521 21.1176V19.9412C36.3521 19.6292 36.476 19.3299 36.6967 19.1093C36.9173 18.8887 37.2166 18.7647 37.5286 18.7647C37.8406 18.7647 38.1398 18.8887 38.3605 19.1093C38.5811 19.3299 38.705 19.6292 38.705 19.9412ZM29.2933 19.9412C29.2933 19.6292 29.4172 19.3299 29.6379 19.1093C29.8585 18.8887 30.1577 18.7647 30.4698 18.7647C30.7818 18.7647 31.081 18.8887 31.3016 19.1093C31.5223 19.3299 31.6462 19.6292 31.6462 19.9412V21.1176C31.6462 21.4297 31.5223 21.7289 31.3016 21.9495C31.081 22.1702 30.7818 22.2941 30.4698 22.2941C30.1577 22.2941 29.8585 22.1702 29.6379 21.9495C29.4172 21.7289 29.2933 21.4297 29.2933 21.1176V19.9412Z" fill="white"/>
<path id="Vector_3" d="M53.8 38.1294L51.6471 36.4117L45.7647 41.1176L39.8824 36.4117L34 41.1176L28.1176 36.4117L22.2353 41.1176L16.3529 36.4117L14.2 38.1294C13.7959 40.9656 14.0058 43.8555 14.8155 46.6035C15.6252 49.3516 17.0158 51.8936 18.8933 54.0575C20.7707 56.2214 23.0911 57.9567 25.6974 59.146C28.3038 60.3353 31.1352 60.9507 34 60.9507C36.8648 60.9507 39.6962 60.3353 42.3026 59.146C44.9089 57.9567 47.2293 56.2214 49.1067 54.0575C50.9842 51.8936 52.3748 49.3516 53.1845 46.6035C53.9942 43.8555 54.2041 40.9656 53.8 38.1294Z" fill="white"/>
</g>
</g>
</g>
</g>
</svg>
