<svg width="24" height="24" viewBox="0 0 24 24" fill="none" xmlns="http://www.w3.org/2000/svg">
<g id="Group 79">
<g id="Group 77">
<path id="home_health" d="M3 21V9L12 3L21 9V21H3ZM5 19H19V10L12 5.5L5 10V19Z" fill="#44544A"/>
<path id="Line 79 (Stroke)" fill-rule="evenodd" clip-rule="evenodd" d="M7 19L7 13L9 13L9 19L7 19Z" fill="#44544A"/>
<path id="Line 81 (Stroke)" fill-rule="evenodd" clip-rule="evenodd" d="M19.0002 17L5.00024 17L5.00024 15L19.0002 15L19.0002 17Z" fill="#44544A"/>
<path id="Line 80 (Stroke)" fill-rule="evenodd" clip-rule="evenodd" d="M10.9998 19L10.9998 13L12.9998 13L12.9998 19L10.9998 19Z" fill="#44544A"/>
<path id="Line 82 (Stroke)" fill-rule="evenodd" clip-rule="evenodd" d="M15.0002 19L15.0002 13L17.0002 13L17.0002 19L15.0002 19Z" fill="#44544A"/>
</g>
</g>
</svg>
