<svg width="24" height="24" viewBox="0 0 24 24" fill="none" xmlns="http://www.w3.org/2000/svg">
<mask id="mask0_5511_2105" style="mask-type:alpha" maskUnits="userSpaceOnUse" x="0" y="0" width="24" height="24">
<rect width="24" height="24" fill="#D9D9D9"/>
</mask>
<g mask="url(#mask0_5511_2105)">
<path d="M1 17V7H3V15H11V7H19C20.1 7 21.0417 7.39167 21.825 8.175C22.6083 8.95833 23 9.9 23 11V17H1ZM13 15H21V11C21 10.45 20.8042 9.97917 20.4125 9.5875C20.0208 9.19583 19.55 9 19 9H13V15ZM7 14C7.83333 14 8.54167 13.7083 9.125 13.125C9.70833 12.5417 10 11.8333 10 11C10 10.1667 9.70833 9.45833 9.125 8.875C8.54167 8.29167 7.83333 8 7 8C6.16667 8 5.45833 8.29167 4.875 8.875C4.29167 9.45833 4 10.1667 4 11C4 11.8333 4.29167 12.5417 4.875 13.125C5.45833 13.7083 6.16667 14 7 14ZM7 12C6.71667 12 6.47917 11.9042 6.2875 11.7125C6.09583 11.5208 6 11.2833 6 11C6 10.7167 6.09583 10.4792 6.2875 10.2875C6.47917 10.0958 6.71667 10 7 10C7.28333 10 7.52083 10.0958 7.7125 10.2875C7.90417 10.4792 8 10.7167 8 11C8 11.2833 7.90417 11.5208 7.7125 11.7125C7.52083 11.9042 7.28333 12 7 12Z" fill="#1F515B"/>
</g>
</svg>
