<svg width="69" height="69" viewBox="0 0 69 69" fill="none" xmlns="http://www.w3.org/2000/svg">
<g id="egg">
<mask id="mask0_8871_2229" style="mask-type:alpha" maskUnits="userSpaceOnUse" x="0" y="0" width="69" height="69">
<rect id="Bounding box" width="69" height="69" fill="#D9D9D9"/>
</mask>
<g mask="url(#mask0_8871_2229)">
<path id="Subtract" fill-rule="evenodd" clip-rule="evenodd" d="M19.8578 54.8922C23.763 58.7974 28.5187 60.75 34.125 60.75C39.7313 60.75 44.487 58.7974 48.3922 54.8922C52.2974 50.987 54.25 46.2313 54.25 40.625C54.25 36.9354 53.6391 33.2219 52.4172 29.4844C51.1953 25.7469 49.6141 22.3568 47.6734 19.3141C45.7328 16.2714 43.5766 13.7917 41.2047 11.875C38.8328 9.95833 36.4729 9 34.125 9C31.825 9 29.4771 9.95833 27.0813 11.875C24.6854 13.7917 22.5172 16.2714 20.5766 19.3141C18.6359 22.3568 17.0547 25.7469 15.8328 29.4844C14.6109 33.2219 14 36.9354 14 40.625C14 46.2313 15.9526 50.987 19.8578 54.8922ZM29.2167 40.65L34.0167 35.85L38.8167 40.65C39.0722 40.9056 39.3778 41.0334 39.7334 41.0334C40.0889 41.0334 40.3945 40.9056 40.65 40.65C40.9056 40.3945 41.0333 40.0889 41.0333 39.7334C41.0333 39.3778 40.9056 39.0722 40.65 38.8167L35.85 34.0167L40.65 29.2167C40.9056 28.9611 41.0333 28.6556 41.0333 28.3C41.0333 27.9445 40.9056 27.6389 40.65 27.3834C40.3945 27.1278 40.0889 27 39.7334 27C39.3778 27 39.0722 27.1278 38.8167 27.3834L34.0167 32.1833L29.2167 27.3834C28.9611 27.1278 28.6556 27 28.3 27C27.9445 27 27.6389 27.1278 27.3834 27.3834C27.1278 27.6389 27 27.9445 27 28.3C27 28.6556 27.1278 28.9611 27.3834 29.2167L32.1833 34.0167L27.3834 38.8167C27.1278 39.0722 27 39.3778 27 39.7334C27 40.0889 27.1278 40.3945 27.3834 40.65C27.6389 40.9056 27.9445 41.0334 28.3 41.0334C28.6556 41.0334 28.9611 40.9056 29.2167 40.65Z" fill="#E93353"/>
</g>
</g>
</svg>
