<svg width="41" height="40" viewBox="0 0 41 40" fill="none" xmlns="http://www.w3.org/2000/svg">
<g clip-path="url(#clip0_2001_2391)">
<circle cx="20.0894" cy="20" r="20" fill="#1F515B"/>
<path d="M11.3394 28.1683C10.7894 28.1683 10.3185 27.9725 9.92686 27.5808C9.53519 27.1892 9.33936 26.7183 9.33936 26.1683C9.33936 25.6183 9.53519 25.1475 9.92686 24.7558C10.3185 24.3642 10.7894 24.1683 11.3394 24.1683H11.6019C11.6769 24.1683 11.756 24.185 11.8394 24.2183L16.3894 19.6683C16.356 19.585 16.3394 19.5058 16.3394 19.4308V19.1683C16.3394 18.6183 16.5352 18.1475 16.9269 17.7558C17.3185 17.3642 17.7894 17.1683 18.3394 17.1683C18.8894 17.1683 19.3602 17.3642 19.7519 17.7558C20.1435 18.1475 20.3394 18.6183 20.3394 19.1683C20.3394 19.2017 20.3227 19.3683 20.2894 19.6683L22.8394 22.2183C22.9227 22.185 23.0019 22.1683 23.0769 22.1683H23.6019C23.6769 22.1683 23.756 22.185 23.8394 22.2183L27.3894 18.6683C27.356 18.585 27.3394 18.5058 27.3394 18.4308V18.1683C27.3394 17.6183 27.5352 17.1475 27.9269 16.7558C28.3185 16.3642 28.7894 16.1683 29.3394 16.1683C29.8894 16.1683 30.3602 16.3642 30.7519 16.7558C31.1435 17.1475 31.3394 17.6183 31.3394 18.1683C31.3394 18.7183 31.1435 19.1892 30.7519 19.5808C30.3602 19.9725 29.8894 20.1683 29.3394 20.1683H29.0769C29.0019 20.1683 28.9227 20.1517 28.8394 20.1183L25.2894 23.6683C25.3227 23.7517 25.3394 23.8308 25.3394 23.9058V24.1683C25.3394 24.7183 25.1435 25.1892 24.7519 25.5808C24.3602 25.9725 23.8894 26.1683 23.3394 26.1683C22.7894 26.1683 22.3185 25.9725 21.9269 25.5808C21.5352 25.1892 21.3394 24.7183 21.3394 24.1683V23.9058C21.3394 23.8308 21.356 23.7517 21.3894 23.6683L18.8394 21.1183C18.756 21.1517 18.6769 21.1683 18.6019 21.1683H18.3394C18.306 21.1683 18.1394 21.1517 17.8394 21.1183L13.2894 25.6683C13.3227 25.7517 13.3394 25.8308 13.3394 25.9058V26.1683C13.3394 26.7183 13.1435 27.1892 12.7519 27.5808C12.3602 27.9725 11.8894 28.1683 11.3394 28.1683ZM12.3394 18.1433L11.7144 16.7933L10.3644 16.1683L11.7144 15.5433L12.3394 14.1933L12.9644 15.5433L14.3144 16.1683L12.9644 16.7933L12.3394 18.1433ZM23.3394 17.1683L22.3894 15.1183L20.3394 14.1683L22.3894 13.2183L23.3394 11.1683L24.2894 13.2183L26.3394 14.1683L24.2894 15.1183L23.3394 17.1683Z" fill="#52F990"/>
</g>
<defs>
<clipPath id="clip0_2001_2391">
<rect width="40" height="40" fill="white" transform="translate(0.0893555)"/>
</clipPath>
</defs>
</svg>
