<svg width="40" height="40" viewBox="0 0 40 40" fill="none" xmlns="http://www.w3.org/2000/svg">
<g clip-path="url(#clip0_8414_1939)">
<circle cx="20" cy="20" r="20" fill="black" fill-opacity="0.4"/>
<path d="M11.25 28.1683C10.7 28.1683 10.2292 27.9725 9.8375 27.5808C9.44583 27.1892 9.25 26.7183 9.25 26.1683C9.25 25.6183 9.44583 25.1475 9.8375 24.7558C10.2292 24.3642 10.7 24.1683 11.25 24.1683H11.5125C11.5875 24.1683 11.6667 24.185 11.75 24.2183L16.3 19.6683C16.2667 19.585 16.25 19.5058 16.25 19.4308V19.1683C16.25 18.6183 16.4458 18.1475 16.8375 17.7558C17.2292 17.3642 17.7 17.1683 18.25 17.1683C18.8 17.1683 19.2708 17.3642 19.6625 17.7558C20.0542 18.1475 20.25 18.6183 20.25 19.1683C20.25 19.2017 20.2333 19.3683 20.2 19.6683L22.75 22.2183C22.8333 22.185 22.9125 22.1683 22.9875 22.1683H23.5125C23.5875 22.1683 23.6667 22.185 23.75 22.2183L27.3 18.6683C27.2667 18.585 27.25 18.5058 27.25 18.4308V18.1683C27.25 17.6183 27.4458 17.1475 27.8375 16.7558C28.2292 16.3642 28.7 16.1683 29.25 16.1683C29.8 16.1683 30.2708 16.3642 30.6625 16.7558C31.0542 17.1475 31.25 17.6183 31.25 18.1683C31.25 18.7183 31.0542 19.1892 30.6625 19.5808C30.2708 19.9725 29.8 20.1683 29.25 20.1683H28.9875C28.9125 20.1683 28.8333 20.1517 28.75 20.1183L25.2 23.6683C25.2333 23.7517 25.25 23.8308 25.25 23.9058V24.1683C25.25 24.7183 25.0542 25.1892 24.6625 25.5808C24.2708 25.9725 23.8 26.1683 23.25 26.1683C22.7 26.1683 22.2292 25.9725 21.8375 25.5808C21.4458 25.1892 21.25 24.7183 21.25 24.1683V23.9058C21.25 23.8308 21.2667 23.7517 21.3 23.6683L18.75 21.1183C18.6667 21.1517 18.5875 21.1683 18.5125 21.1683H18.25C18.2167 21.1683 18.05 21.1517 17.75 21.1183L13.2 25.6683C13.2333 25.7517 13.25 25.8308 13.25 25.9058V26.1683C13.25 26.7183 13.0542 27.1892 12.6625 27.5808C12.2708 27.9725 11.8 28.1683 11.25 28.1683ZM12.25 18.1433L11.625 16.7933L10.275 16.1683L11.625 15.5433L12.25 14.1933L12.875 15.5433L14.225 16.1683L12.875 16.7933L12.25 18.1433ZM23.25 17.1683L22.3 15.1183L20.25 14.1683L22.3 13.2183L23.25 11.1683L24.2 13.2183L26.25 14.1683L24.2 15.1183L23.25 17.1683Z" fill="#52F990"/>
</g>
<defs>
<clipPath id="clip0_8414_1939">
<rect width="40" height="40" fill="white"/>
</clipPath>
</defs>
</svg>
