<svg width="20" height="20" viewBox="0 0 20 20" fill="none" xmlns="http://www.w3.org/2000/svg">
<mask id="mask0_13528_2521" style="mask-type:alpha" maskUnits="userSpaceOnUse" x="0" y="0" width="20" height="20">
<rect width="20" height="20" fill="#D9D9D9"/>
</mask>
<g mask="url(#mask0_13528_2521)">
<path d="M14 6C15.1111 6 16.0556 6.38889 16.8333 7.16667C17.6111 7.94444 18 8.88889 18 10C18 11.1111 17.6111 12.0556 16.8333 12.8333C16.0556 13.6111 15.1111 14 14 14C13.0135 14 12.1557 13.691 11.4268 13.0729C10.6978 12.4549 10.2431 11.6806 10.0625 10.75L2 10.75L2 9.25L10.0625 9.25C10.2431 8.31944 10.6978 7.54514 11.4268 6.92708C12.1557 6.30903 13.0135 6 14 6Z" fill="#E93353"/>
</g>
</svg>
