<svg width="22" height="19" viewBox="0 0 22 19" fill="none" xmlns="http://www.w3.org/2000/svg">
<path d="M18.95 13.95L17.4 12.4C18.1333 11.7167 18.7083 10.9083 19.125 9.97499C19.5417 9.04165 19.75 8.04999 19.75 6.99999C19.75 5.94999 19.5417 4.96665 19.125 4.04999C18.7083 3.13332 18.1333 2.33332 17.4 1.64999L18.95 0.0499878C19.8833 0.933321 20.625 1.97499 21.175 3.17499C21.725 4.37499 22 5.64999 22 6.99999C22 8.34999 21.725 9.62499 21.175 10.825C20.625 12.025 19.8833 13.0667 18.95 13.95ZM15.75 10.75L14.15 9.14999C14.45 8.86665 14.6917 8.54582 14.875 8.18749C15.0583 7.82915 15.15 7.43332 15.15 6.99999C15.15 6.56665 15.0583 6.17082 14.875 5.81249C14.6917 5.45415 14.45 5.13332 14.15 4.84999L15.75 3.24999C16.2833 3.73332 16.7 4.29582 17 4.93749C17.3 5.57915 17.45 6.26665 17.45 6.99999C17.45 7.73332 17.3 8.42082 17 9.06249C16.7 9.70415 16.2833 10.2667 15.75 10.75ZM8 11C6.9 11 5.95833 10.6083 5.175 9.82499C4.39167 9.04166 4 8.09999 4 6.99999C4 5.89999 4.39167 4.95832 5.175 4.17499C5.95833 3.39165 6.9 2.99999 8 2.99999C9.1 2.99999 10.0417 3.39165 10.825 4.17499C11.6083 4.95832 12 5.89999 12 6.99999C12 8.09999 11.6083 9.04166 10.825 9.82499C10.0417 10.6083 9.1 11 8 11ZM0 19V16.2C0 15.65 0.141667 15.1333 0.425 14.65C0.708333 14.1667 1.1 13.8 1.6 13.55C2.45 13.1167 3.40833 12.75 4.475 12.45C5.54167 12.15 6.71667 12 8 12C9.28333 12 10.4583 12.15 11.525 12.45C12.5917 12.75 13.55 13.1167 14.4 13.55C14.9 13.8 15.2917 14.1667 15.575 14.65C15.8583 15.1333 16 15.65 16 16.2V19H0ZM2 17H14V16.2C14 16.0167 13.9542 15.85 13.8625 15.7C13.7708 15.55 13.65 15.4333 13.5 15.35C12.9 15.05 12.1292 14.75 11.1875 14.45C10.2458 14.15 9.18333 14 8 14C6.81667 14 5.75417 14.15 4.8125 14.45C3.87083 14.75 3.1 15.05 2.5 15.35C2.35 15.4333 2.22917 15.55 2.1375 15.7C2.04583 15.85 2 16.0167 2 16.2V17ZM8 8.99999C8.55 8.99999 9.02083 8.80415 9.4125 8.41249C9.80417 8.02082 10 7.54999 10 6.99999C10 6.44999 9.80417 5.97915 9.4125 5.58749C9.02083 5.19582 8.55 4.99999 8 4.99999C7.45 4.99999 6.97917 5.19582 6.5875 5.58749C6.19583 5.97915 6 6.44999 6 6.99999C6 7.54999 6.19583 8.02082 6.5875 8.41249C6.97917 8.80415 7.45 8.99999 8 8.99999Z" fill="#1F515B"/>
</svg>
