<svg width="14" height="20" viewBox="0 0 14 20" fill="none" xmlns="http://www.w3.org/2000/svg">
<path d="M7 20C5.61667 20 4.4375 19.5125 3.4625 18.5375C2.4875 17.5625 2 16.3833 2 15V6C1.45 6 0.979167 5.80417 0.5875 5.4125C0.195833 5.02083 0 4.55 0 4V2C0 1.45 0.195833 0.979167 0.5875 0.5875C0.979167 0.195833 1.45 0 2 0H12C12.55 0 13.0208 0.195833 13.4125 0.5875C13.8042 0.979167 14 1.45 14 2V4C14 4.55 13.8042 5.02083 13.4125 5.4125C13.0208 5.80417 12.55 6 12 6V15C12 16.3833 11.5125 17.5625 10.5375 18.5375C9.5625 19.5125 8.38333 20 7 20ZM2 4H12V2H2V4ZM7 18C7.65 18 8.23333 17.8125 8.75 17.4375C9.26667 17.0625 9.625 16.5833 9.825 16H7V14H10V13H7V11H10V10H7V8H10V6H4V15C4 15.8333 4.29167 16.5417 4.875 17.125C5.45833 17.7083 6.16667 18 7 18Z" fill="#1F515B"/>
</svg>
