<svg width="22" height="16" viewBox="0 0 22 16" fill="none" xmlns="http://www.w3.org/2000/svg">
<g id="Mortality">
<path id="Subtract" fill-rule="evenodd" clip-rule="evenodd" d="M4.35 13.8267C6.35 15.2756 8.56667 16 11 16C13.4333 16 15.65 15.2756 17.65 13.8267C19.65 12.3778 21.1 10.4356 22 8C21.1 5.56444 19.65 3.62222 17.65 2.17333C15.65 0.724445 13.4333 0 11 0C8.56667 0 6.35 0.724445 4.35 2.17333C2.35 3.62222 0.9 5.56444 0 8C0.9 10.4356 2.35 12.3778 4.35 13.8267ZM7.78201 4.7761C7.97193 4.58618 8.21493 4.49023 8.47817 4.49023C8.7414 4.49023 8.9844 4.58618 9.17432 4.7761L9.17526 4.77704L10.9984 6.60971L12.8321 4.7761C13.022 4.58618 13.265 4.49023 13.5282 4.49023C13.7914 4.49023 14.0344 4.58618 14.2244 4.7761C14.4143 4.96602 14.5102 5.20902 14.5102 5.47225C14.5102 5.73549 14.4143 5.97849 14.2244 6.16841L12.3898 8.00296L14.2244 9.83752C14.4112 10.0243 14.5102 10.2641 14.5102 10.528C14.5102 10.7919 14.4112 11.0316 14.2244 11.2185C14.0344 11.4084 13.7914 11.5043 13.5282 11.5043C13.2652 11.5043 13.0225 11.4086 12.8326 11.219L12.8321 11.2185L10.9984 9.39434L9.16295 11.2298C8.97239 11.4204 8.72645 11.5177 8.45749 11.5098C8.19888 11.5022 7.9652 11.4016 7.78201 11.2185C7.59209 11.0285 7.49615 10.7855 7.49615 10.5223C7.49615 10.2591 7.59209 10.0161 7.78201 9.82614L9.60519 8.00296L7.77064 6.16841C7.57694 5.97472 7.48301 5.72564 7.49067 5.45769C7.49805 5.19939 7.59576 4.96235 7.78201 4.7761Z" fill="#44544A"/>
</g>
</svg>
