<svg width="17" height="21" viewBox="0 0 17 21" fill="none" xmlns="http://www.w3.org/2000/svg">
<path d="M17 15L15.6 16.4L13.95 14.825C13.75 16.5917 12.9875 18.0625 11.6625 19.2375C10.3375 20.4125 8.78333 21 7 21C5.05 21 3.39583 20.3208 2.0375 18.9625C0.679167 17.6042 0 15.95 0 14L0 11H2V14C2 15.3833 2.4875 16.5625 3.4625 17.5375C4.4375 18.5125 5.61667 19 7 19C8.2 19 9.25833 18.6167 10.175 17.85C11.0917 17.0833 11.6667 16.1083 11.9 14.925L10.425 16.4L9 15L13 11L17 15ZM16 9L9 9L9 0H16V9ZM7 9H0L0 0H7V9ZM5 7V2H2L2 7H5Z" fill="#1F415B"/>
</svg>
