<svg width="233" height="250" viewBox="0 0 233 250" fill="none" xmlns="http://www.w3.org/2000/svg">
<path d="M171.227 137.5L154.104 120L180.399 93.125C171.634 91.4583 157.62 92.3958 138.357 95.9375C119.094 99.4792 97.4361 113.229 73.3828 137.188C79.9057 112.812 93.0535 93.2292 112.826 78.4375C132.599 63.6458 154.919 56.25 179.788 56.25L154.104 30L171.227 12.5L232.379 75L171.227 137.5ZM97.8437 250C65.0253 221.458 40.5134 194.948 24.3081 170.469C8.10268 145.99 0 123.333 0 102.5C0 74.1667 9.47861 50 28.4358 30C47.3931 10 70.529 0 97.8437 0C104.978 0 112.113 0.78125 119.247 2.34375C126.381 3.90625 133.21 6.25 139.733 9.375L120.776 28.75C117.107 27.5 113.336 26.5625 109.463 25.9375C105.59 25.3125 101.717 25 97.8437 25C77.2558 25 59.8783 32.5521 45.7114 47.6562C31.5444 62.7604 24.4609 81.0417 24.4609 102.5C24.4609 117.292 30.4742 134.167 42.5009 153.125C54.5275 172.083 72.9751 193.229 97.8437 216.563C110.074 205.104 120.776 194.167 129.949 183.75C139.122 173.333 146.664 163.333 152.575 153.75L170.309 171.875C162.156 184.167 152.065 196.771 140.039 209.688C128.012 222.604 113.947 236.042 97.8437 250Z" fill="white"/>
</svg>
