<svg width="19" height="20" viewBox="0 0 19 20" fill="none" xmlns="http://www.w3.org/2000/svg">
<path d="M14 11L12.6 9.6L14.75 7.45C14.0333 7.31667 12.8875 7.39167 11.3125 7.675C9.7375 7.95833 7.96667 9.05833 6 10.975C6.53333 9.025 7.60833 7.45833 9.225 6.275C10.8417 5.09167 12.6667 4.5 14.7 4.5L12.6 2.4L14 1L19 6L14 11ZM8 20C5.31667 17.7167 3.3125 15.5958 1.9875 13.6375C0.6625 11.6792 0 9.86667 0 8.2C0 5.93333 0.775 4 2.325 2.4C3.875 0.8 5.76667 0 8 0C8.58333 0 9.16667 0.0625 9.75 0.1875C10.3333 0.3125 10.8917 0.5 11.425 0.75L9.875 2.3C9.575 2.2 9.26667 2.125 8.95 2.075C8.63333 2.025 8.31667 2 8 2C6.31667 2 4.89583 2.60417 3.7375 3.8125C2.57917 5.02083 2 6.48333 2 8.2C2 9.38333 2.49167 10.7333 3.475 12.25C4.45833 13.7667 5.96667 15.4583 8 17.325C9 16.4083 9.875 15.5333 10.625 14.7C11.375 13.8667 11.9917 13.0667 12.475 12.3L13.925 13.75C13.2583 14.7333 12.4333 15.7417 11.45 16.775C10.4667 17.8083 9.31667 18.8833 8 20Z" fill="#1F415B"/>
</svg>
