<svg width="20" height="21" viewBox="0 0 20 21" fill="none" xmlns="http://www.w3.org/2000/svg">
<path d="M7 10.6992H8V8.69922H9C9.28333 8.69922 9.52083 8.60339 9.7125 8.41172C9.90417 8.22005 10 7.98255 10 7.69922V6.69922C10 6.41589 9.90417 6.17839 9.7125 5.98672C9.52083 5.79505 9.28333 5.69922 9 5.69922H7V10.6992ZM8 7.69922V6.69922H9V7.69922H8ZM11 10.6992H13C13.2833 10.6992 13.5208 10.6034 13.7125 10.4117C13.9042 10.2201 14 9.98255 14 9.69922V6.69922C14 6.41589 13.9042 6.17839 13.7125 5.98672C13.5208 5.79505 13.2833 5.69922 13 5.69922H11V10.6992ZM12 9.69922V6.69922H13V9.69922H12ZM15 10.6992H16V8.69922H17V7.69922H16V6.69922H17V5.69922H15V10.6992ZM6 16.1992C5.45 16.1992 4.97917 16.0034 4.5875 15.6117C4.19583 15.2201 4 14.7492 4 14.1992V2.19922C4 1.64922 4.19583 1.17839 4.5875 0.786719C4.97917 0.395052 5.45 0.199219 6 0.199219H18C18.55 0.199219 19.0208 0.395052 19.4125 0.786719C19.8042 1.17839 20 1.64922 20 2.19922V14.1992C20 14.7492 19.8042 15.2201 19.4125 15.6117C19.0208 16.0034 18.55 16.1992 18 16.1992H6ZM6 14.1992H18V2.19922H6V14.1992ZM2 20.1992C1.45 20.1992 0.979167 20.0034 0.5875 19.6117C0.195833 19.2201 0 18.7492 0 18.1992V4.19922H2V18.1992H16V20.1992H2Z" fill="#44544A"/>
</svg>
