<svg width="36" height="36" viewBox="0 0 36 36" fill="none" xmlns="http://www.w3.org/2000/svg">
<g id="person_pin_circle">
<mask id="mask0_6218_4792" style="mask-type:alpha" maskUnits="userSpaceOnUse" x="0" y="0" width="36" height="36">
<rect id="Bounding box" width="36" height="36" fill="#D9D9D9"/>
</mask>
<g mask="url(#mask0_6218_4792)">
<path id="person_pin_circle_2" d="M17.9996 22.25C19.3229 22.25 20.5162 21.9354 21.5796 21.3063C22.643 20.6771 23.4913 19.8417 24.1246 18.8C23.2663 18.125 22.3187 17.6146 21.2817 17.2688C20.2448 16.9229 19.149 16.75 17.9943 16.75C16.8395 16.75 15.7455 16.9229 14.7121 17.2688C13.6788 17.6146 12.733 18.125 11.8746 18.8C12.508 19.8417 13.3563 20.6771 14.4197 21.3063C15.483 21.9354 16.6764 22.25 17.9996 22.25ZM18.0018 14.75C18.7587 14.75 19.4059 14.4805 19.9434 13.9415C20.4809 13.4026 20.7496 12.7546 20.7496 11.9978C20.7496 11.2409 20.4801 10.5938 19.9412 10.0563C19.4022 9.51876 18.7543 9.25001 17.9974 9.25001C17.2406 9.25001 16.5934 9.5195 16.0559 10.0585C15.5184 10.5975 15.2496 11.2454 15.2496 12.0022C15.2496 12.7591 15.5191 13.4062 16.0581 13.9437C16.5971 14.4812 17.245 14.75 18.0018 14.75ZM17.9996 29.7C21.233 26.75 23.6247 24.0729 25.1747 21.6688C26.7247 19.2646 27.4997 17.1417 27.4997 15.3C27.4997 12.4285 26.5827 10.0773 24.7486 8.24636C22.9146 6.41544 20.6649 5.49998 17.9996 5.49998C15.3344 5.49998 13.0847 6.41544 11.2506 8.24636C9.41662 10.0773 8.49961 12.4285 8.49961 15.3C8.49961 17.1417 9.28711 19.2646 10.8621 21.6688C12.4371 24.0729 14.8163 26.75 17.9996 29.7ZM17.9996 33C13.9746 29.575 10.9684 26.3938 8.98088 23.4563C6.99338 20.5188 5.99963 17.8 5.99963 15.3C5.99963 11.55 7.20588 8.5625 9.61838 6.3375C12.0309 4.1125 14.8246 3 17.9996 3C21.1746 3 23.9684 4.1125 26.3809 6.3375C28.7934 8.5625 29.9996 11.55 29.9996 15.3C29.9996 17.8 29.0059 20.5188 27.0184 23.4563C25.0309 26.3938 22.0246 29.575 17.9996 33Z" fill="#44544A"/>
</g>
</g>
</svg>
