<svg width="21" height="20" viewBox="0 0 21 20" fill="none" xmlns="http://www.w3.org/2000/svg">
<path d="M9.10039 15.4004L7.37539 19.6004L5.70039 18.9254L7.17539 15.3754C5.35872 15.1921 3.85872 14.4129 2.67539 13.0379C1.49206 11.6629 0.900391 10.0504 0.900391 8.20039V4.00039C0.900391 3.00039 1.25039 2.15039 1.95039 1.45039C2.65039 0.750391 3.50039 0.400391 4.50039 0.400391C4.76706 0.400391 5.02539 0.433724 5.27539 0.500391C5.52539 0.567057 5.77539 0.650391 6.02539 0.750391L12.4254 3.27539L8.10039 5.00039V6.17539L15.7754 10.6004H8.40039C7.90039 10.6004 7.47539 10.4254 7.12539 10.0754C6.77539 9.72539 6.60039 9.30039 6.60039 8.80039H4.80039C4.80039 9.80039 5.15039 10.6504 5.85039 11.3504C6.55039 12.0504 7.40039 12.4004 8.40039 12.4004H18.9004L20.1004 17.2004H18.3004L17.1004 15.4004H12.3004V19.6004H10.5004V15.4004H9.10039ZM4.50039 3.10039C4.25039 3.10039 4.03789 3.18789 3.86289 3.36289C3.68789 3.53789 3.60039 3.75039 3.60039 4.00039C3.60039 4.25039 3.68789 4.46289 3.86289 4.63789C4.03789 4.81289 4.25039 4.90039 4.50039 4.90039C4.75039 4.90039 4.96289 4.81289 5.13789 4.63789C5.31289 4.46289 5.40039 4.25039 5.40039 4.00039C5.40039 3.75039 5.31289 3.53789 5.13789 3.36289C4.96289 3.18789 4.75039 3.10039 4.50039 3.10039Z" fill="#1C1B1F"/>
</svg>
