<svg width="16" height="18" viewBox="0 0 16 18" fill="none" xmlns="http://www.w3.org/2000/svg">
<path d="M13 17.3776C12.3056 17.3776 11.7153 17.1345 11.2292 16.6484C10.7431 16.1623 10.5 15.572 10.5 14.8776C10.5 14.7804 10.5069 14.6797 10.5208 14.5755C10.5347 14.4714 10.5556 14.3776 10.5833 14.2943L4.70833 10.8776C4.47222 11.0859 4.20833 11.2491 3.91667 11.3672C3.625 11.4852 3.31944 11.5443 3 11.5443C2.30556 11.5443 1.71528 11.3012 1.22917 10.8151C0.743056 10.329 0.5 9.73872 0.5 9.04427C0.5 8.34983 0.743056 7.75955 1.22917 7.27344C1.71528 6.78733 2.30556 6.54427 3 6.54427C3.31944 6.54427 3.625 6.6033 3.91667 6.72135C4.20833 6.83941 4.47222 7.0026 4.70833 7.21094L10.5833 3.79427C10.5556 3.71094 10.5347 3.61719 10.5208 3.51302C10.5069 3.40885 10.5 3.30816 10.5 3.21094C10.5 2.51649 10.7431 1.92622 11.2292 1.4401C11.7153 0.953993 12.3056 0.710938 13 0.710938C13.6944 0.710938 14.2847 0.953993 14.7708 1.4401C15.2569 1.92622 15.5 2.51649 15.5 3.21094C15.5 3.90538 15.2569 4.49566 14.7708 4.98177C14.2847 5.46788 13.6944 5.71094 13 5.71094C12.6806 5.71094 12.375 5.65191 12.0833 5.53385C11.7917 5.4158 11.5278 5.2526 11.2917 5.04427L5.41667 8.46094C5.44444 8.54427 5.46528 8.63802 5.47917 8.74219C5.49306 8.84635 5.5 8.94705 5.5 9.04427C5.5 9.14149 5.49306 9.24219 5.47917 9.34635C5.46528 9.45052 5.44444 9.54427 5.41667 9.6276L11.2917 13.0443C11.5278 12.8359 11.7917 12.6727 12.0833 12.5547C12.375 12.4366 12.6806 12.3776 13 12.3776C13.6944 12.3776 14.2847 12.6207 14.7708 13.1068C15.2569 13.5929 15.5 14.1832 15.5 14.8776C15.5 15.572 15.2569 16.1623 14.7708 16.6484C14.2847 17.1345 13.6944 17.3776 13 17.3776ZM13 4.04427C13.2361 4.04427 13.434 3.96441 13.5938 3.80469C13.7535 3.64497 13.8333 3.44705 13.8333 3.21094C13.8333 2.97483 13.7535 2.77691 13.5938 2.61719C13.434 2.45747 13.2361 2.3776 13 2.3776C12.7639 2.3776 12.566 2.45747 12.4062 2.61719C12.2465 2.77691 12.1667 2.97483 12.1667 3.21094C12.1667 3.44705 12.2465 3.64497 12.4062 3.80469C12.566 3.96441 12.7639 4.04427 13 4.04427ZM3 9.8776C3.23611 9.8776 3.43403 9.79774 3.59375 9.63802C3.75347 9.4783 3.83333 9.28038 3.83333 9.04427C3.83333 8.80816 3.75347 8.61024 3.59375 8.45052C3.43403 8.2908 3.23611 8.21094 3 8.21094C2.76389 8.21094 2.56597 8.2908 2.40625 8.45052C2.24653 8.61024 2.16667 8.80816 2.16667 9.04427C2.16667 9.28038 2.24653 9.4783 2.40625 9.63802C2.56597 9.79774 2.76389 9.8776 3 9.8776ZM13 15.7109C13.2361 15.7109 13.434 15.6311 13.5938 15.4714C13.7535 15.3116 13.8333 15.1137 13.8333 14.8776C13.8333 14.6415 13.7535 14.4436 13.5938 14.2839C13.434 14.1241 13.2361 14.0443 13 14.0443C12.7639 14.0443 12.566 14.1241 12.4062 14.2839C12.2465 14.4436 12.1667 14.6415 12.1667 14.8776C12.1667 15.1137 12.2465 15.3116 12.4062 15.4714C12.566 15.6311 12.7639 15.7109 13 15.7109Z" fill="#1F415B"/>
</svg>
