<svg width="24" height="24" viewBox="0 0 24 24" fill="none" xmlns="http://www.w3.org/2000/svg">
<mask id="mask0_5742_1854" style="mask-type:alpha" maskUnits="userSpaceOnUse" x="0" y="0" width="24" height="24">
<rect width="24" height="24" fill="white"/>
</mask>
<g mask="url(#mask0_5742_1854)">
<path d="M15.5 24C13.7 24 12.1667 23.3667 10.9 22.1C9.63333 20.8333 9 19.3 9 17.5V16.925C7.56667 16.6917 6.375 16.0208 5.425 14.9125C4.475 13.8042 4 12.5 4 11V5H7V4H9V8H7V7H6V11C6 12.1 6.39167 13.0417 7.175 13.825C7.95833 14.6083 8.9 15 10 15C11.1 15 12.0417 14.6083 12.825 13.825C13.6083 13.0417 14 12.1 14 11V7H13V8H11V4H13V5H16V11C16 12.5 15.525 13.8042 14.575 14.9125C13.625 16.0208 12.4333 16.6917 11 16.925V17.5C11 18.75 11.4375 19.8125 12.3125 20.6875C13.1875 21.5625 14.25 22 15.5 22C16.75 22 17.8125 21.5625 18.6875 20.6875C19.5625 19.8125 20 18.75 20 17.5V15.825C19.4167 15.625 18.9375 15.2667 18.5625 14.75C18.1875 14.2333 18 13.65 18 13C18 12.1667 18.2917 11.4583 18.875 10.875C19.4583 10.2917 20.1667 10 21 10C21.8333 10 22.5417 10.2917 23.125 10.875C23.7083 11.4583 24 12.1667 24 13C24 13.65 23.8125 14.2333 23.4375 14.75C23.0625 15.2667 22.5833 15.625 22 15.825V17.5C22 19.3 21.3667 20.8333 20.1 22.1C18.8333 23.3667 17.3 24 15.5 24ZM21 14C21.2833 14 21.5208 13.9042 21.7125 13.7125C21.9042 13.5208 22 13.2833 22 13C22 12.7167 21.9042 12.4792 21.7125 12.2875C21.5208 12.0958 21.2833 12 21 12C20.7167 12 20.4792 12.0958 20.2875 12.2875C20.0958 12.4792 20 12.7167 20 13C20 13.2833 20.0958 13.5208 20.2875 13.7125C20.4792 13.9042 20.7167 14 21 14Z" fill="white"/>
</g>
</svg>
