<svg width="18" height="18" viewBox="0 0 18 18" fill="none" xmlns="http://www.w3.org/2000/svg">
<path fill-rule="evenodd" clip-rule="evenodd" d="M0 8.99974C0 4.03727 4.03736 0 8.99991 0C13.9624 0 17.9997 4.03727 17.9997 8.99974C17.9997 13.9625 13.9624 18 8.99991 18C4.03736 18 0 13.9626 0 8.99974ZM1.29014 8.99974C1.29014 13.2511 4.74874 16.7099 8.99991 16.7099C13.251 16.7099 16.7095 13.2511 16.7095 8.99974C16.7095 4.74865 13.251 1.29014 8.99991 1.29014C4.74874 1.29014 1.29014 4.74865 1.29014 8.99974ZM9.39828 8.84769H13.6277C13.9839 8.84769 14.2728 9.13651 14.2728 9.49276C14.2728 9.84901 13.984 10.1378 13.6277 10.1378H8.75321C8.39696 10.1378 8.10814 9.84901 8.10814 9.49276V4.22453C8.10814 3.86828 8.39696 3.57946 8.75321 3.57946C9.10955 3.57946 9.39828 3.86828 9.39828 4.22453V8.84769Z" fill="#44544A"/>
</svg>
