<svg width="160" height="124" viewBox="0 0 160 124" fill="none" xmlns="http://www.w3.org/2000/svg">
<g filter="url(#filter0_d_11370_1755)">
<path d="M131.754 87.2026C132.148 86.9051 132.49 86.5419 132.76 86.113C133.345 85.2335 133.527 84.1614 133.279 83.0193C133.066 82.1442 132.561 81.4265 131.847 80.9889C131.044 80.5251 130.189 80.3851 129.364 80.582C129 80.6564 128.659 80.8139 128.366 81.0327C128.916 79.6587 129.187 78.1797 129.138 76.6656C129.063 74.3683 128.114 72.2635 126.46 70.7364C124.811 69.2092 122.62 68.3909 120.297 68.4303C120.084 68.439 119.863 68.4609 119.628 68.4959C119.929 65.3322 117.89 62.3479 114.769 61.4727C113.412 61.1051 112.002 61.2758 110.792 61.9497C110.313 62.2166 109.892 62.5535 109.528 62.943C109.807 61.3721 109.967 59.7574 109.989 58.1121C110.264 58.3484 110.548 58.4796 110.774 58.554C110.871 58.5847 110.973 58.6109 111.08 58.6284C112.153 58.821 113.434 58.3265 114.232 57.3769C115.101 56.3486 115.225 55.0534 114.605 53.8019C114.919 54.1651 115.19 54.5808 115.385 54.874C115.624 55.2371 115.691 55.3334 115.797 55.364C115.802 55.364 115.81 55.364 115.815 55.3684C115.899 55.3859 115.988 55.3334 116.014 55.2503C116.152 54.8039 116.028 54.2307 115.673 53.6793C115.5 53.408 115.283 53.1674 115.052 52.9661L115.633 53.2593C115.633 53.2593 115.664 53.2724 115.682 53.2768C115.744 53.2855 115.806 53.268 115.846 53.2199L116.897 51.9815C116.932 51.9421 116.945 51.8896 116.932 51.8371C116.923 51.7846 116.888 51.7409 116.843 51.719L115.389 50.9751C115.318 50.9357 115.23 50.9532 115.176 51.0188L114.769 51.5002C115.168 50.6863 115.27 49.7236 114.8 49.0497C114.764 48.9972 114.702 48.9709 114.64 48.9753C114.409 48.9972 114.378 49.2466 114.343 49.5879C114.307 49.903 114.25 50.3668 114.055 50.8919C114.241 49.4567 113.665 48.2446 112.463 47.5619C111.279 46.8924 109.745 46.9231 108.819 47.6407C108.681 47.7457 108.526 47.8945 108.384 48.087C108.158 47.4307 107.914 46.783 107.644 46.1485C107.763 46.1835 107.888 46.2185 108.003 46.2404C109.32 46.4767 110.339 45.6978 110.858 44.827C111.665 43.4793 111.616 41.497 110.189 40.4206C110.734 40.635 111.12 40.9369 111.381 41.1513C111.545 41.287 111.687 41.4051 111.816 41.427C111.887 41.4401 111.953 41.427 112.015 41.3701C112.06 41.3351 112.077 41.2782 112.073 41.2213C112.024 40.7575 111.678 40.2805 111.129 39.9086C110.867 39.7336 110.588 39.6023 110.299 39.5104L110.929 39.5498C111.009 39.5542 111.084 39.506 111.106 39.4273L111.572 37.8695C111.585 37.8213 111.576 37.7644 111.55 37.7207C111.519 37.6769 111.474 37.6507 111.417 37.6463L109.785 37.5413C109.705 37.5369 109.63 37.585 109.608 37.6638L109.426 38.2677C109.466 37.3619 109.169 36.4298 108.477 36.001C108.424 35.9703 108.358 35.966 108.304 35.9966C108.096 36.106 108.167 36.3467 108.269 36.6836C108.362 36.9812 108.486 37.4231 108.522 37.9613C108.264 36.9549 107.44 36.1016 106.345 35.7165C105.232 35.3271 104.061 35.489 103.215 36.1498C102.634 36.5392 102.323 37.1299 102.221 37.7469C101.729 37.2131 101.215 36.7011 100.687 36.2023C101.109 36.1848 101.441 36.0579 101.667 35.931C102.709 35.3621 103.343 33.9706 103.175 32.6141C103.011 31.2794 102.133 30.2993 100.772 29.8967C101.361 29.8792 101.84 30.0061 102.168 30.1023C102.487 30.1942 102.745 30.2686 102.847 30.0498C102.869 30.0017 102.869 29.9404 102.842 29.8923C102.62 29.4985 102.133 29.1965 101.508 29.0696C101.188 28.9996 100.856 28.9909 100.532 29.0171L101.122 28.8071C101.197 28.7808 101.246 28.7065 101.237 28.6233L101.046 27.0086C101.042 26.9561 101.011 26.9124 100.967 26.8817C100.922 26.8555 100.865 26.8467 100.816 26.8642L99.2775 27.4112C99.2021 27.4375 99.1533 27.5119 99.1622 27.5906L99.2331 28.2076C98.9095 27.3674 98.2577 26.6323 97.4553 26.5142C97.3932 26.5054 97.3311 26.5273 97.2912 26.5754C97.1449 26.7592 97.309 26.9517 97.5351 27.2187C97.7434 27.4593 98.0449 27.8225 98.2932 28.3214C97.6636 27.4856 96.5552 27.013 95.3892 27.0874C94.201 27.1618 93.1901 27.77 92.6758 28.7152C92.2857 29.3191 92.2458 30.0148 92.4187 30.6449C88.6324 28.9296 84.4337 27.9669 80.0045 27.9669C75.5753 27.9669 71.3767 28.9296 67.5904 30.6449C67.7677 30.0148 67.7234 29.3191 67.3332 28.7152C66.8234 27.7744 65.8081 27.1662 64.6199 27.0874C63.4494 27.013 62.3454 27.4856 61.7158 28.3214C61.9686 27.8225 62.2701 27.4637 62.474 27.2187C62.7045 26.9517 62.8686 26.7592 62.7178 26.5754C62.6779 26.5273 62.6159 26.5054 62.5538 26.5142C61.7469 26.6323 61.0996 27.3674 60.7759 28.2076L60.8469 27.5906C60.8557 27.5119 60.807 27.4375 60.7316 27.4112L59.1931 26.8642C59.1443 26.8467 59.0867 26.8511 59.0424 26.8817C58.998 26.908 58.967 26.9561 58.9626 27.0086L58.7719 28.6233C58.7631 28.7021 58.8118 28.7765 58.8872 28.8071L59.4769 29.0171C59.1532 28.9865 58.8251 28.9996 58.5015 29.0696C57.8763 29.2009 57.3886 29.4985 57.167 29.8923C57.1404 29.9404 57.1359 29.9973 57.1625 30.0498C57.2645 30.2686 57.5216 30.1942 57.8409 30.1023C58.169 30.0061 58.6478 29.8792 59.2375 29.8967C57.8763 30.2993 56.9985 31.2794 56.8344 32.6141C56.666 33.9662 57.3 35.3621 58.3419 35.931C58.5724 36.0535 58.9049 36.1804 59.3261 36.2023C58.7985 36.7011 58.2842 37.2131 57.7921 37.7469C57.6901 37.1299 57.3798 36.5392 56.799 36.1498C55.9521 35.489 54.7861 35.3271 53.6688 35.7165C52.5737 36.1016 51.7491 36.9549 51.4919 37.9613C51.5274 37.4187 51.6515 36.9812 51.7446 36.6836C51.8466 36.3467 51.922 36.106 51.7092 35.9966C51.656 35.9703 51.5895 35.9703 51.5363 36.001C50.8446 36.4298 50.5476 37.3619 50.5875 38.2677L50.4057 37.6638C50.3835 37.585 50.3081 37.5369 50.2283 37.5413L48.5968 37.6463C48.5436 37.6463 48.4948 37.6769 48.4638 37.7207C48.4327 37.7644 48.4239 37.8169 48.4416 37.8695L48.9071 39.4273C48.9293 39.5016 49.0047 39.5542 49.0845 39.5498L49.714 39.5104C49.4259 39.6023 49.1465 39.7336 48.885 39.9086C48.3352 40.2805 47.9938 40.7575 47.9406 41.2213C47.9362 41.2782 47.9583 41.3307 47.9982 41.3701C48.0603 41.427 48.1268 41.4401 48.1977 41.427C48.3263 41.4051 48.4682 41.287 48.6322 41.1513C48.8938 40.9369 49.2795 40.6306 49.8249 40.4206C48.3973 41.497 48.3485 43.4793 49.1554 44.827C49.6741 45.6978 50.6939 46.4811 52.0107 46.2404C52.1259 46.2185 52.2456 46.1835 52.3698 46.1485C52.0993 46.783 51.8555 47.4307 51.6294 48.087C51.4875 47.8945 51.3323 47.7457 51.1949 47.6407C50.2638 46.9231 48.7298 46.8881 47.5504 47.5619C46.3489 48.2446 45.7726 49.4567 45.9588 50.8919C45.7681 50.3668 45.706 49.903 45.6706 49.5879C45.6307 49.2466 45.6041 48.9972 45.3735 48.9753C45.3115 48.9709 45.2494 48.9972 45.2139 49.0497C44.744 49.7236 44.8459 50.6907 45.245 51.5002L44.8371 51.0188C44.7839 50.9576 44.6952 50.9401 44.6242 50.9751L43.17 51.719C43.1257 51.7452 43.0902 51.789 43.0813 51.8371C43.0725 51.8896 43.0813 51.9421 43.1168 51.9815L44.1676 53.2199C44.2075 53.268 44.2696 53.2899 44.3316 53.2768C44.3494 53.2768 44.3627 53.268 44.3804 53.2593L44.9612 52.9661C44.7262 53.1718 44.5134 53.408 44.3405 53.6793C43.9902 54.2351 43.8617 54.8039 43.9991 55.2503C44.0257 55.3334 44.1099 55.3859 44.1986 55.3684C44.2031 55.3684 44.2119 55.3684 44.2164 55.364C44.3228 55.3334 44.3893 55.2371 44.6287 54.874C44.8238 54.5808 45.0942 54.1651 45.409 53.8019C44.7883 55.0534 44.9124 56.3486 45.7814 57.3769C46.5839 58.3265 47.8652 58.8253 48.9337 58.6284C49.0357 58.6109 49.1377 58.5847 49.2396 58.554C49.4658 58.484 49.7495 58.3527 50.0244 58.1121C50.0466 59.7574 50.2017 61.3721 50.4855 62.943C50.1219 62.5535 49.7007 62.2166 49.2219 61.9497C48.0115 61.2758 46.6016 61.1051 45.245 61.4727C42.1281 62.3479 40.0887 65.3278 40.3857 68.4959C40.1507 68.4609 39.929 68.439 39.7162 68.4303C37.393 68.3953 35.2028 69.2136 33.5535 70.7364C31.8998 72.2635 30.951 74.3683 30.8756 76.6656C30.8268 78.1797 31.0928 79.6587 31.647 81.0327C31.3544 80.8139 31.0175 80.6564 30.6495 80.582C29.8248 80.3851 28.9691 80.5251 28.1666 80.9889C27.4528 81.4221 26.9474 82.1398 26.7346 83.0193C26.4863 84.1614 26.6681 85.2335 27.2533 86.113C27.5238 86.5419 27.8696 86.9094 28.2598 87.2026H20.4521C20.4521 87.894 21.0197 88.4541 21.7202 88.4541H138.28C138.981 88.4541 139.548 87.894 139.548 87.2026H131.754ZM56.5241 83.4219C56.2315 83.5707 56.0452 83.7895 55.9344 84.1264C55.8413 84.4283 55.8723 84.7478 56.0186 85.0191C56.1916 85.3473 56.4886 85.5923 56.8522 85.7017C57.2157 85.8155 57.6014 85.7805 57.9251 85.6098C58.3197 85.426 58.6123 85.0847 58.7719 84.6078C58.9005 84.1658 58.8562 83.7063 58.6522 83.3213C58.3862 82.8312 57.9473 82.4723 57.4152 82.3061C56.8832 82.1398 56.3201 82.1923 55.8191 82.4461C55.2117 82.7568 54.7639 83.2906 54.5556 83.947C54.3427 84.6165 54.4048 85.321 54.7329 85.9336C55.0166 86.4631 55.4334 86.892 55.9388 87.1983H46.5662C48.4682 86.5594 50.2283 85.5267 51.7358 84.1395C52.9772 82.9799 53.988 81.6278 54.7418 80.1269C56.7679 79.4136 59.0291 80.2801 60.0355 82.1748C60.4345 82.9187 60.5099 83.772 60.2572 84.5815C60.0045 85.3823 59.4458 86.0474 58.6966 86.4456C58.1557 86.7257 57.5305 86.7826 56.9408 86.6075C56.3556 86.4237 55.8768 86.0255 55.5842 85.4829C55.3802 85.0979 55.3359 84.6559 55.4689 84.2402C55.5975 83.8245 55.8812 83.4875 56.2625 83.2863C56.5374 83.1462 56.8389 83.12 57.1271 83.2162C57.3133 83.2688 57.4773 83.3694 57.6103 83.5051C57.5172 83.435 57.4108 83.3825 57.2955 83.3475C57.0339 83.2688 56.7591 83.2906 56.5241 83.4175V83.4219ZM61.1705 84.8747C61.503 83.8201 61.4011 82.7086 60.8823 81.7328C59.8005 79.6981 57.4817 78.6085 55.2339 79.0154C55.6595 77.9434 55.9388 76.8319 56.0896 75.6986C60.7715 81.816 67.7855 86.0868 75.8015 87.2026H59.2907C60.1996 86.6775 60.8646 85.8592 61.1661 84.8747H61.1705ZM103.906 75.6986C104.057 76.8319 104.336 77.9434 104.762 79.0154C102.514 78.6129 100.195 79.6981 99.1134 81.7328C98.5947 82.7086 98.4927 83.8201 98.8253 84.8747C99.1223 85.8592 99.7873 86.6775 100.701 87.2026H84.1899C92.2103 86.0868 99.2198 81.816 103.902 75.6986H103.906ZM105.449 83.9514C105.241 83.295 104.788 82.7612 104.185 82.4505C103.689 82.1967 103.121 82.1442 102.589 82.3104C102.057 82.4724 101.618 82.8355 101.352 83.3256C101.144 83.7151 101.104 84.1702 101.233 84.6121C101.392 85.0847 101.681 85.426 102.08 85.6142C102.403 85.7849 102.789 85.8199 103.152 85.7061C103.516 85.5967 103.813 85.3517 103.986 85.0235C104.132 84.7522 104.163 84.4327 104.07 84.1308C103.959 83.7982 103.773 83.5751 103.481 83.4263C103.246 83.3038 102.971 83.2775 102.709 83.3563C102.594 83.3913 102.487 83.4438 102.394 83.5138C102.527 83.3781 102.691 83.2775 102.878 83.225C103.166 83.1287 103.467 83.155 103.742 83.295C104.123 83.4919 104.407 83.8332 104.536 84.2489C104.669 84.669 104.624 85.111 104.42 85.4917C104.132 86.0343 103.649 86.4325 103.064 86.6163C102.474 86.7913 101.849 86.7344 101.308 86.4544C100.554 86.0562 100 85.391 99.7474 84.5903C99.4947 83.7807 99.5745 82.9274 99.9691 82.1835C100.976 80.2888 103.237 79.4224 105.263 80.1357C106.017 81.6366 107.027 82.9843 108.269 84.1483C109.776 85.5354 111.536 86.5725 113.438 87.207H104.066C104.571 86.9007 104.988 86.4719 105.272 85.9424C105.6 85.3298 105.662 84.6253 105.449 83.9558V83.9514ZM129.94 85.2466C130.384 85.1197 130.734 84.8572 130.991 84.4721C131.248 84.0695 131.328 83.5926 131.213 83.19C131.124 82.8355 130.88 82.5161 130.543 82.3192C130.224 82.131 129.856 82.0741 129.515 82.1617C129.222 82.201 128.969 82.3673 128.765 82.6649C128.632 82.9406 128.526 83.2381 128.624 83.5838C128.664 83.8201 128.823 84.0476 129.058 84.192C129.173 84.2621 129.298 84.3102 129.431 84.3321C129.231 84.3365 129.045 84.2796 128.832 84.1614C128.588 84.0083 128.415 83.7588 128.358 83.47C128.256 83.0325 128.335 82.5905 128.57 82.2185C128.805 81.851 129.169 81.6016 129.595 81.5053C129.759 81.4659 129.927 81.4484 130.096 81.4484C130.535 81.4484 130.969 81.5709 131.324 81.8072C131.851 82.1223 132.21 82.6255 132.348 83.225C132.525 84.0301 132.37 84.9053 131.927 85.623C131.466 86.3318 130.752 86.8394 129.971 87.0057C128.198 87.4039 126.393 86.6819 125.409 85.2029C126.163 84.5377 126.81 83.7895 127.347 82.9799C127.338 83.2119 127.36 83.4482 127.418 83.6757C127.533 84.2008 127.857 84.6428 128.349 84.9535C128.867 85.2685 129.417 85.3648 129.94 85.2379V85.2466ZM126.039 87.207H122.128C123.02 86.8613 123.866 86.4019 124.651 85.8242C125.024 86.38 125.498 86.8438 126.039 87.207ZM108.703 68.1765C109.249 69.1261 110.127 69.8087 111.177 70.0975C112.02 70.3294 112.906 70.22 113.669 69.7912C114.427 69.3667 114.968 68.6797 115.19 67.8571C115.376 67.1919 115.292 66.4962 114.95 65.8967C114.605 65.2972 114.05 64.864 113.381 64.6802C112.853 64.527 112.286 64.5927 111.78 64.8684C111.27 65.1528 110.911 65.6035 110.778 66.1374C110.526 67.0432 111.066 67.9927 111.984 68.2509C112.361 68.3515 112.751 68.3034 113.084 68.1196C113.443 67.9183 113.669 67.6339 113.78 67.2488C113.962 66.5968 113.576 65.9229 112.924 65.7392C112.818 65.7085 112.711 65.6998 112.601 65.6998C112.76 65.6648 112.924 65.6691 113.084 65.7173C113.478 65.8223 113.798 66.0717 113.993 66.4262C114.192 66.7762 114.245 67.1832 114.139 67.5726C113.984 68.1152 113.62 68.5703 113.115 68.8504C112.614 69.1304 112.033 69.1961 111.483 69.0473C110.712 68.8372 110.064 68.334 109.665 67.6383C109.271 66.9381 109.173 66.1286 109.391 65.3628C109.701 64.2995 110.397 63.4243 111.346 62.9036C112.303 62.3654 113.421 62.2341 114.485 62.5273C117.203 63.2799 118.945 65.9973 118.502 68.7585C117.398 69.1085 116.413 69.7168 115.642 70.5263C114.427 71.8522 113.802 73.5019 113.842 75.3004C113.9 76.6962 114.529 78.0396 115.575 78.9892C116.608 79.9256 117.939 80.407 119.3 80.3544C120.399 80.3151 121.397 79.8643 122.186 79.0504C122.984 78.2147 123.388 77.1863 123.348 76.0749C123.299 75.1516 122.922 74.3202 122.284 73.7382C121.525 73.0731 120.705 72.7667 119.827 72.8411C119.127 72.8586 118.431 73.1737 117.939 73.7032C117.442 74.2414 117.189 74.9284 117.234 75.6417C117.234 76.2062 117.473 76.7619 117.903 77.1863C118.422 77.6546 118.945 77.8515 119.566 77.8165C120.062 77.7946 120.532 77.5802 120.878 77.2038C121.224 76.8275 121.401 76.3462 121.379 75.843C121.379 75.4272 121.188 75.029 120.843 74.7359C120.608 74.5039 120.293 74.3508 119.978 74.307C120.452 74.3245 120.891 74.4952 121.233 74.8059C121.614 75.1778 121.827 75.646 121.827 76.123C121.862 76.8013 121.596 77.4839 121.1 78.009C120.634 78.5341 119.991 78.8273 119.238 78.8623C118.231 78.8929 117.282 78.5472 116.551 77.8733C115.81 77.1907 115.389 76.263 115.354 75.2522C115.278 73.8826 115.762 72.6005 116.75 71.5371C117.38 70.8676 118.196 70.3775 119.1 70.1281C119.118 70.1281 119.136 70.1281 119.149 70.1194C119.171 70.115 119.189 70.1062 119.207 70.0975C119.592 70.0012 119.974 69.9443 120.342 69.9356C122.217 69.8612 124.057 70.5394 125.4 71.8041C126.784 73.1037 127.582 74.8409 127.653 76.6875C127.728 79.523 126.58 82.2054 124.5 84.0433C124.421 84.1002 124.336 84.1702 124.248 84.2446C124.199 84.2883 124.15 84.3321 124.097 84.3715C122.492 85.6536 120.537 86.3712 118.44 86.45C115.079 86.5856 111.825 85.3735 109.275 83.0325C106.792 80.7089 105.36 77.5758 105.245 74.2064C105.245 74.097 105.214 73.992 105.165 73.9001C106.482 71.8916 107.559 69.7168 108.358 67.4107C108.442 67.6733 108.553 67.9271 108.69 68.1721L108.703 68.1765ZM112.632 66.8287C112.632 66.8287 112.654 66.7893 112.658 66.7631C112.698 66.8112 112.738 66.8856 112.716 66.9731C112.694 67.0344 112.627 67.135 112.552 67.1744C112.472 67.2226 112.374 67.2313 112.281 67.2051C112.246 67.1963 112.21 67.1832 112.175 67.1657C112.25 67.1569 112.321 67.135 112.388 67.1C112.499 67.0388 112.587 66.9425 112.632 66.8287ZM119.743 75.808C119.779 75.808 119.814 75.8211 119.845 75.8298C119.863 75.8561 119.872 75.8867 119.872 75.8955C119.881 76.0224 119.849 76.123 119.779 76.1974C119.708 76.2718 119.614 76.3155 119.517 76.3155C119.357 76.3155 119.118 76.2674 118.967 76.123C118.799 75.983 118.706 75.7904 118.706 75.5892C118.688 75.2216 118.847 74.8803 119.105 74.6396C119.02 74.7796 118.985 74.9415 119.007 75.1034C119.007 75.4666 119.344 75.7992 119.743 75.7992V75.808ZM109.67 48.3496C110.579 47.7151 111.505 48.0389 111.98 48.2883C113.004 48.8309 113.731 49.9336 113.7 50.9138C113.7 51.0057 113.767 51.0801 113.86 51.0889C113.926 51.0932 113.975 51.0538 114.01 51.0013C113.997 51.0276 113.993 51.0538 113.979 51.0845C113.842 51.4214 113.505 51.8502 113.062 52.2616C112.937 52.3841 112.889 52.5022 112.911 52.616C112.946 52.7954 113.133 52.8742 113.27 52.9311C113.31 52.9486 113.368 52.9705 113.385 52.9836C113.412 53.0055 113.443 53.0186 113.474 53.023C113.789 53.0624 114.099 53.2855 114.387 53.57C114.361 53.57 114.334 53.5612 114.307 53.5743C114.223 53.6137 114.188 53.71 114.219 53.7931C114.591 54.7033 114.307 55.9854 113.545 56.8475C113.19 57.25 112.432 57.8802 111.359 57.6089C110.344 57.3944 110.153 56.6505 110.118 56.3399C110.051 55.7754 110.295 55.2153 110.685 55.0359C110.996 54.8915 111.377 55.0184 111.754 55.3947C111.754 55.3947 111.754 55.4034 111.758 55.4078C111.829 55.6091 111.865 55.8804 111.621 56.016C111.43 56.1211 111.168 56.0861 111.084 55.981C110.982 55.8629 111.142 55.6528 111.213 55.5697C111.266 55.5084 111.266 55.4209 111.222 55.3597C111.173 55.2984 111.089 55.2722 111.018 55.2984C110.792 55.3859 110.636 55.6003 110.614 55.8585C110.588 56.1386 110.716 56.4011 110.947 56.5411C111.293 56.7993 111.745 56.7731 112.113 56.4755C112.494 56.1648 112.747 55.5697 112.485 55.0315C112.193 54.3313 111.55 53.9769 110.774 54.0951C110.45 54.1432 110.118 54.2876 109.825 54.5064C109.728 53.5918 109.586 52.6904 109.404 51.8065C109.457 51.8196 109.506 51.8415 109.559 51.8502C109.816 51.8984 110.073 51.894 110.308 51.8502C111.062 51.7146 111.55 51.1895 111.616 50.4456C111.745 49.8724 111.324 49.3648 110.845 49.1679C110.375 48.9753 109.905 49.1022 109.648 49.4917C109.524 49.6667 109.479 49.9118 109.541 50.1349C109.595 50.3362 109.728 50.5025 109.905 50.5813C109.923 50.59 109.936 50.5944 109.958 50.5944C110.06 50.6075 110.109 50.6206 110.113 50.6206C110.197 50.6425 110.286 50.6031 110.322 50.5244C110.357 50.4456 110.326 50.3537 110.251 50.31C110.149 50.2487 109.923 50.0955 109.98 49.9468C110.029 49.8199 110.268 49.693 110.495 49.7455C110.761 49.798 110.818 50.0518 110.814 50.2662C110.588 50.7607 110.268 51.0188 109.923 50.9882C109.541 50.9532 109.164 50.59 108.996 50.1087C108.978 50.043 108.956 49.973 108.938 49.9074C108.867 49.5748 108.832 48.8616 109.661 48.3408L109.67 48.3496ZM106.034 38.3377C105.768 37.8213 105.298 37.5719 104.78 37.6725C104.301 37.7644 103.911 38.132 103.88 38.5258C103.866 38.6834 103.902 39.0816 104.531 39.3135C104.567 39.3266 104.607 39.3266 104.642 39.3135C104.735 39.2872 104.784 39.2785 104.793 39.2785C104.882 39.2697 104.948 39.1953 104.953 39.1078C104.953 39.0203 104.89 38.9503 104.802 38.9328C104.686 38.9197 104.416 38.8715 104.412 38.714C104.407 38.5783 104.576 38.3727 104.802 38.3245C105.068 38.2677 105.223 38.4777 105.307 38.6702C105.303 39.2085 105.117 39.5673 104.788 39.6767C104.385 39.8123 103.822 39.576 103.476 39.1297C103.285 38.8803 102.904 38.2108 103.489 37.3575C104.066 36.4167 105.041 36.351 105.573 36.3904C106.73 36.4823 107.839 37.2131 108.211 38.1233C108.247 38.2064 108.335 38.2502 108.424 38.2239C108.482 38.2064 108.513 38.1583 108.53 38.1058C108.53 38.1276 108.535 38.1495 108.535 38.1714C108.535 38.202 108.544 38.2326 108.561 38.2589C108.593 38.3552 108.455 38.7359 108.371 38.9678C108.185 39.4798 108.078 39.8036 108.216 40.0005C108.273 40.0836 108.362 40.1274 108.473 40.1318C108.561 40.1361 108.663 40.1405 108.77 40.1449C109.178 40.1624 109.688 40.1843 109.914 40.2937C109.887 40.3024 109.856 40.3112 109.834 40.3374C109.776 40.4074 109.781 40.5037 109.847 40.5693C110.548 41.252 110.8 42.5385 110.45 43.6237C110.286 44.1313 109.843 45.0152 108.748 45.1902C107.755 45.4003 107.276 44.8052 107.112 44.5426C106.815 44.0525 106.797 43.4399 107.076 43.1161C107.302 42.8535 107.706 42.8141 108.22 43.0023C108.433 43.2255 108.477 43.4355 108.344 43.6193C108.216 43.7987 107.963 43.8775 107.843 43.8206C107.701 43.755 107.759 43.4924 107.79 43.383C107.812 43.3086 107.781 43.2299 107.71 43.1905C107.644 43.1511 107.559 43.1598 107.502 43.2124C107.324 43.3743 107.262 43.6324 107.347 43.8775C107.435 44.1488 107.666 44.3413 107.936 44.3763C108.335 44.4682 108.721 44.2976 108.952 43.9125C109.187 43.5187 109.218 42.8973 108.827 42.4772C108.193 41.9434 107.533 41.8077 106.957 42.079C106.575 42.2584 106.274 42.6041 106.079 43.0242C105.609 42.2103 105.103 41.4183 104.558 40.6525C104.66 40.6394 104.762 40.635 104.864 40.6087C105.316 40.5518 105.751 40.2368 105.994 39.7686C106.247 39.2916 106.26 38.7534 106.039 38.3289L106.034 38.3377ZM96.1385 29.6166C95.7084 29.2228 95.0877 29.2841 94.702 29.5116C94.3118 29.7392 94.1345 30.1374 94.2365 30.5399C94.2631 30.7806 94.4581 31.0081 94.733 31.0957C94.9902 31.1788 95.2562 31.1219 95.4202 30.9469C95.4734 30.89 95.4823 30.8069 95.438 30.7412C95.3981 30.6756 95.3138 30.6449 95.2384 30.6668C95.132 30.6975 94.8705 30.7587 94.7995 30.6187C94.7375 30.4918 94.8128 30.238 94.9946 30.1067C95.2163 29.9492 95.4424 30.0805 95.602 30.2292C95.8148 30.7237 95.7882 31.1219 95.5311 31.3538C95.2118 31.6383 94.6 31.647 94.099 31.367C93.8241 31.2138 93.2078 30.75 93.4029 29.7392C93.5537 28.6452 94.436 28.1989 94.9458 28.0282C96.0454 27.6606 97.3489 27.8969 98.0449 28.5883C98.107 28.6496 98.209 28.6539 98.2799 28.5971C98.3331 28.5489 98.342 28.4789 98.3198 28.4133C98.3331 28.4439 98.3508 28.4658 98.3642 28.4964C98.3775 28.5227 98.3952 28.5489 98.4174 28.5664C98.4883 28.6408 98.5149 29.0521 98.5282 29.3016C98.5592 29.8442 98.5903 30.1811 98.7987 30.308C98.8297 30.3299 98.8652 30.343 98.9006 30.3474C98.9583 30.3561 99.0248 30.3474 99.0868 30.3255C99.1888 30.2905 99.3085 30.2467 99.4282 30.203C99.8006 30.063 100.222 29.9098 100.461 29.9142C100.444 29.9317 100.421 29.9448 100.412 29.9711C100.381 30.0586 100.43 30.1505 100.514 30.1855C101.432 30.5356 102.177 31.612 102.288 32.7497C102.341 33.2836 102.288 34.2725 101.348 34.8676C100.501 35.4496 99.8272 35.0864 99.5745 34.9026C99.1134 34.5657 98.8607 34.01 98.9937 33.603C99.1001 33.2748 99.4504 33.0867 99.9913 33.0692C99.9957 33.0692 100.005 33.0735 100.009 33.0779C100.204 33.1611 100.426 33.3142 100.364 33.5768C100.311 33.7956 100.102 33.9618 99.9647 33.9531C99.8051 33.9443 99.7652 33.6905 99.7519 33.5811C99.743 33.5024 99.6765 33.4411 99.6056 33.4324C99.5258 33.4192 99.4504 33.463 99.4194 33.5374C99.3218 33.7605 99.3706 34.0143 99.5479 34.2113C99.7386 34.4213 100.027 34.5132 100.288 34.4388C100.736 34.3557 101.033 33.975 101.038 33.4717C101.038 32.9598 100.727 32.3822 100.124 32.2684C99.4282 32.054 98.7499 32.2946 98.3331 32.9291C98.1425 33.2179 98.0228 33.5811 98.0006 33.9575C97.2513 33.3974 96.471 32.8723 95.6685 32.3822C95.8281 32.2946 95.9877 32.1809 96.1473 32.0365C96.4799 31.7608 96.6749 31.3057 96.6705 30.8156C96.6661 30.3299 96.4666 29.8923 96.1296 29.6254L96.1385 29.6166ZM61.6538 32.9204C61.237 32.2859 60.5587 32.0452 59.8626 32.2596C59.2596 32.3734 58.9493 32.9554 58.9493 33.463C58.9493 33.9662 59.2508 34.3469 59.6986 34.43C59.9601 34.5044 60.2483 34.4125 60.439 34.2025C60.6163 34.0056 60.6606 33.7562 60.5675 33.5286C60.5365 33.4542 60.4611 33.4149 60.3813 33.4236C60.306 33.4367 60.2439 33.498 60.235 33.5724C60.2217 33.6818 60.1818 33.94 60.0222 33.9443C59.8848 33.9531 59.672 33.7868 59.6232 33.568C59.5611 33.3011 59.7828 33.1479 59.9779 33.0692C59.9823 33.0692 59.9912 33.0648 59.9956 33.0604C60.5321 33.0779 60.8868 33.2661 60.9932 33.5943C61.1217 33.9968 60.8735 34.5569 60.4124 34.8939C60.1596 35.0777 59.4813 35.4409 58.6389 34.8589C57.6946 34.2681 57.6458 33.2792 57.699 32.741C57.8098 31.6076 58.5591 30.5268 59.4724 30.1767C59.5567 30.1461 59.6054 30.0498 59.5744 29.9623C59.5655 29.9361 59.5434 29.9229 59.5256 29.9054C59.7695 29.9011 60.1863 30.0542 60.5587 30.1942C60.6828 30.238 60.8025 30.2818 60.9001 30.3168C60.9621 30.343 61.0286 30.3518 61.0863 30.3386C61.1217 30.3299 61.1572 30.3168 61.1882 30.2993C61.3966 30.168 61.4277 29.831 61.4587 29.2928C61.472 29.0434 61.4986 28.6321 61.5695 28.5577C61.5917 28.5402 61.6139 28.5183 61.6227 28.4877C61.636 28.457 61.6493 28.4352 61.6671 28.4045C61.6449 28.4702 61.6538 28.5402 61.707 28.5883C61.7779 28.6452 61.8799 28.6408 61.942 28.5796C62.638 27.8925 63.9415 27.6563 65.0411 28.0194C65.5509 28.1901 66.4332 28.6364 66.584 29.7304C66.779 30.7412 66.1628 31.2051 65.8879 31.3582C65.3913 31.6339 64.775 31.6295 64.4558 31.3451C64.1987 31.1132 64.1721 30.715 64.3849 30.2205C64.5445 30.0717 64.7706 29.9404 64.9923 30.098C65.1785 30.2292 65.2494 30.483 65.1874 30.6099C65.1164 30.75 64.8593 30.6887 64.7484 30.6581C64.6731 30.6362 64.5933 30.6668 64.5489 30.7325C64.509 30.7981 64.5135 30.8812 64.5667 30.9381C64.7307 31.1132 64.9967 31.17 65.2539 31.0869C65.5288 30.9994 65.7238 30.7718 65.7504 30.5312C65.8524 30.1242 65.6751 29.7304 65.2849 29.5029C64.8948 29.2753 64.2785 29.2141 63.8484 29.6079C63.5115 29.8792 63.312 30.3124 63.3075 30.7981C63.3031 31.2882 63.5026 31.7477 63.8307 32.019C63.9903 32.1634 64.1499 32.2728 64.3095 32.3647C63.507 32.8547 62.7267 33.3798 61.9774 33.94C61.9508 33.5636 61.8356 33.1961 61.6449 32.9116L61.6538 32.9204ZM80.0001 29.1003C95.9212 29.1003 108.872 41.9521 108.872 57.7401C108.872 73.5281 95.9212 86.38 80.0001 86.38C64.079 86.38 51.1239 73.5369 51.1239 57.7401C51.1239 41.9434 64.0745 29.1003 80.0001 29.1003ZM53.0481 42.0921C52.4718 41.8165 51.8111 41.9521 51.1771 42.4903C50.787 42.9104 50.818 43.5318 51.053 43.9256C51.2835 44.3107 51.6648 44.4813 52.0683 44.3895C52.3343 44.3544 52.5693 44.1619 52.658 43.8906C52.7378 43.6412 52.6801 43.3874 52.5028 43.2255C52.4452 43.173 52.3609 43.1642 52.2944 43.2036C52.2279 43.243 52.1969 43.3217 52.219 43.3961C52.2501 43.5055 52.3077 43.7681 52.1658 43.8337C52.0461 43.8906 51.7934 43.8162 51.6648 43.6324C51.5363 43.4486 51.5762 43.2386 51.789 43.0154C52.3033 42.8273 52.7112 42.8667 52.9373 43.1292C53.2166 43.453 53.1989 44.0656 52.9018 44.5557C52.7422 44.8227 52.2589 45.4134 51.2658 45.2034C50.1707 45.0283 49.7273 44.1444 49.5633 43.6368C49.213 42.5516 49.4658 41.2651 50.1663 40.5825C50.2283 40.5212 50.2372 40.4206 50.1796 40.3506C50.1574 40.3243 50.1308 40.3155 50.0998 40.3068C50.3303 40.1974 50.8357 40.1755 51.2481 40.158C51.3545 40.158 51.4565 40.1493 51.5451 40.1449C51.656 40.1449 51.7446 40.0968 51.8023 40.0136C51.9397 39.8167 51.8333 39.4929 51.6471 38.9809C51.5629 38.7534 51.4254 38.3683 51.4565 38.272C51.4742 38.2458 51.4786 38.2151 51.4831 38.1845C51.4831 38.1626 51.4831 38.1408 51.4875 38.1189C51.5052 38.1714 51.5363 38.2195 51.5939 38.237C51.6826 38.2633 51.7757 38.2195 51.8067 38.1364C52.1791 37.2218 53.2875 36.4954 54.4447 36.4036C54.9767 36.3598 55.9521 36.4298 56.5285 37.3706C57.1138 38.2239 56.7325 38.8934 56.5418 39.1428C56.196 39.5892 55.6329 39.8255 55.2295 39.6898C54.9014 39.5804 54.7152 39.2216 54.7107 38.6834C54.795 38.4864 54.9501 38.2808 55.2162 38.3377C55.4378 38.3858 55.6108 38.5871 55.6063 38.7271C55.5975 38.8846 55.3314 38.9328 55.2162 38.9459C55.1275 38.9634 55.0654 39.0291 55.0654 39.1209C55.0654 39.2085 55.1364 39.2829 55.225 39.2916C55.2339 39.2916 55.2827 39.3004 55.3758 39.3266C55.4112 39.3354 55.4511 39.3354 55.4866 39.3266C56.1118 39.0947 56.1517 38.6965 56.1384 38.539C56.1073 38.1451 55.7172 37.7819 55.2383 37.6857C54.7196 37.585 54.2496 37.8344 53.9836 38.3508C53.7619 38.7753 53.7752 39.3135 54.028 39.7904C54.2762 40.2587 54.7063 40.5737 55.1585 40.6306C55.2649 40.6569 55.3625 40.6612 55.4644 40.6744C54.9235 41.4401 54.4137 42.2322 53.9481 43.0461C53.7531 42.626 53.4516 42.2803 53.0703 42.1009L53.0481 42.0921ZM49.8781 56.3442C49.8426 56.6549 49.652 57.3944 48.6367 57.6132C47.5637 57.8845 46.8056 57.2544 46.4509 56.8518C45.6883 55.9898 45.4046 54.7033 45.777 53.7975C45.8125 53.7144 45.777 53.6181 45.6883 53.5787C45.6617 53.5656 45.6351 53.5743 45.6085 53.5743C45.8967 53.2899 46.207 53.0667 46.5218 53.0273C46.5529 53.023 46.5883 53.0055 46.6105 52.988C46.6282 52.9748 46.6859 52.953 46.7258 52.9355C46.8632 52.8786 47.0494 52.7998 47.0893 52.6204C47.1115 52.5066 47.0627 52.3885 46.9386 52.266C46.4952 51.8546 46.1583 51.4258 46.0208 51.0889C46.0075 51.0626 46.0031 51.0363 45.9898 51.0057C46.0253 51.0582 46.074 51.0976 46.1405 51.0932C46.2336 51.0845 46.3046 51.0101 46.3002 50.9182C46.2736 49.938 46.9962 48.8353 48.0204 48.2927C48.4904 48.0433 49.4214 47.7195 50.3303 48.354C51.155 48.8703 51.1239 49.5836 51.053 49.9161C51.0308 49.9905 51.0087 50.0605 50.9909 50.1349C50.818 50.6075 50.4456 50.9663 50.0687 50.997C49.7229 51.0276 49.4081 50.7694 49.1776 50.2749C49.1776 50.0605 49.2308 49.8111 49.5012 49.7542C49.7273 49.7017 49.9668 49.8286 50.0155 49.9555C50.0732 50.1043 49.847 50.2574 49.7451 50.3187C49.6697 50.3625 49.6431 50.4544 49.6741 50.5331C49.7096 50.6119 49.7983 50.6513 49.8825 50.6294C49.8914 50.6294 49.9402 50.6119 50.0377 50.6031C50.0599 50.6031 50.0732 50.5944 50.0909 50.59C50.2682 50.5069 50.4013 50.345 50.4545 50.1437C50.5165 49.9205 50.4722 49.6798 50.348 49.5004C50.0909 49.111 49.6209 48.9841 49.151 49.1766C48.6721 49.3735 48.2554 49.8855 48.3795 50.4544C48.446 51.1982 48.9382 51.7234 49.6874 51.859C49.9224 51.9028 50.1796 51.9028 50.4367 51.859C50.4899 51.8503 50.5387 51.8284 50.5919 51.8152C50.4101 52.7035 50.2727 53.6006 50.1707 54.5151C49.8781 54.3007 49.5456 54.1563 49.2219 54.1038C48.446 53.9857 47.8076 54.3401 47.5105 55.0402C47.2489 55.5785 47.5017 56.1736 47.883 56.4843C48.2509 56.7818 48.7032 56.8081 49.049 56.5499C49.2795 56.4099 49.4081 56.1473 49.386 55.8673C49.3638 55.6091 49.2086 55.3947 48.9825 55.3072C48.9071 55.2765 48.8229 55.3072 48.7785 55.3684C48.7342 55.4341 48.7342 55.5216 48.7874 55.5785C48.8584 55.6616 49.018 55.8716 48.916 55.9898C48.8273 56.0948 48.5702 56.1342 48.3795 56.0248C48.1357 55.8891 48.1711 55.6178 48.2421 55.4166C48.2421 55.4122 48.2421 55.4078 48.2421 55.4034C48.6189 55.0271 48.9958 54.9002 49.3106 55.0446C49.6963 55.224 49.9402 55.7841 49.8737 56.3486L49.8781 56.3442ZM34.5865 71.8084C35.9299 70.5438 37.7699 69.8656 39.6453 69.94C40.0177 69.9487 40.399 70.0056 40.7803 70.1019C40.798 70.1106 40.8202 70.1194 40.8379 70.1237C40.8557 70.1237 40.869 70.1281 40.8867 70.1325C41.7956 70.3819 42.6069 70.8676 43.2365 71.5415C44.2252 72.6005 44.7085 73.8826 44.6331 75.2566C44.5976 76.2674 44.1764 77.1995 43.436 77.8777C42.7045 78.5516 41.7557 78.8973 40.7493 78.8667C39.9955 78.8317 39.3527 78.5385 38.8871 78.0134C38.3906 77.4883 38.1246 76.8056 38.16 76.1274C38.16 75.6548 38.3728 75.1866 38.7586 74.8103C39.1044 74.4996 39.5389 74.3289 40.0133 74.3114C39.6985 74.3552 39.3837 74.5083 39.1487 74.7402C38.8029 75.0334 38.6123 75.4316 38.6123 75.8473C38.5901 76.3506 38.7719 76.8319 39.1133 77.2082C39.4591 77.5845 39.9246 77.8033 40.4256 77.8208C41.0419 77.8558 41.5695 77.6633 42.0882 77.1907C42.5183 76.7619 42.7577 76.2105 42.7577 75.646C42.802 74.9328 42.5493 74.2458 42.0527 73.7075C41.5606 73.1781 40.8645 72.863 40.164 72.8455C39.2862 72.7711 38.4659 73.0731 37.7078 73.7426C37.0738 74.3289 36.6969 75.156 36.6437 76.0793C36.6038 77.1907 37.0073 78.2234 37.8053 79.0548C38.5945 79.8687 39.5921 80.3194 40.6916 80.3588C42.0527 80.4113 43.3828 79.93 44.4159 78.9936C45.4622 78.044 46.0962 76.7006 46.1494 75.3047C46.1893 73.5063 45.5642 71.8566 44.3494 70.5307C43.5779 69.7212 42.5936 69.1085 41.4897 68.7629C41.0507 66.0017 42.7932 63.2843 45.511 62.5317C46.5795 62.2385 47.6923 62.3698 48.65 62.908C49.6032 63.4287 50.2993 64.3039 50.6052 65.3672C50.8224 66.1374 50.7249 66.9469 50.3303 67.6426C49.9313 68.3384 49.2884 68.8416 48.5125 69.0517C47.9628 69.2048 47.382 69.1348 46.881 68.8547C46.3755 68.5747 46.012 68.1196 45.8568 67.577C45.7504 67.1832 45.8036 66.7762 46.0031 66.4305C46.1982 66.0805 46.5218 65.831 46.912 65.7216C47.0716 65.6735 47.2401 65.6691 47.3953 65.7041C47.2844 65.7041 47.178 65.7129 47.0716 65.7435C46.4154 65.9229 46.0341 66.6012 46.2159 67.2532C46.3223 67.6383 46.5484 67.9227 46.912 68.124C47.2445 68.3034 47.6347 68.3515 48.0115 68.2553C48.9293 67.9971 49.4702 67.0431 49.2175 66.1417C49.0845 65.6079 48.7253 65.1572 48.2155 64.8727C47.7145 64.5971 47.1425 64.5314 46.6149 64.6846C45.9455 64.8684 45.3868 65.2972 45.0454 65.9011C44.7041 66.5006 44.6154 67.1963 44.8016 67.8614C45.0233 68.6797 45.5642 69.3667 46.3223 69.7956C47.0893 70.2244 47.9716 70.3338 48.814 70.1019C49.8648 69.8131 50.7426 69.1304 51.288 68.1809C51.4254 67.9358 51.5363 67.682 51.6205 67.4195C52.423 69.7255 53.5004 71.9003 54.8127 73.9088C54.7639 74.0007 54.7329 74.1058 54.7329 74.2151C54.6221 77.5845 53.19 80.722 50.7027 83.0412C48.1534 85.3823 44.8947 86.5944 41.5384 86.4587C39.4413 86.3844 37.4861 85.6667 35.8811 84.3802C35.8279 84.3365 35.7792 84.2927 35.7304 84.2533C35.6417 84.1789 35.5575 84.1045 35.4777 84.052C33.3983 82.2142 32.25 79.5318 32.3254 76.6962C32.3963 74.8496 33.1944 73.1168 34.5777 71.8128L34.5865 71.8084ZM40.8911 74.6484C41.1483 74.889 41.3079 75.2303 41.2902 75.5979C41.2902 75.7948 41.1971 75.9917 41.0286 76.1318C40.8823 76.2718 40.6429 76.3243 40.4788 76.3243C40.3813 76.3243 40.2882 76.2805 40.2172 76.2061C40.1463 76.1274 40.1108 76.0267 40.1241 75.9042C40.1241 75.8911 40.133 75.8648 40.1507 75.8386C40.1818 75.8255 40.2172 75.8167 40.2527 75.8167C40.6517 75.8167 40.9887 75.4841 40.9887 75.1209C41.0108 74.9634 40.9754 74.7971 40.8911 74.6571V74.6484ZM47.6125 67.1C47.679 67.135 47.7499 67.1569 47.8253 67.1657C47.7898 67.1832 47.7544 67.1919 47.7189 67.2051C47.6258 67.2313 47.5283 67.2226 47.4485 67.1744C47.3731 67.135 47.3066 67.03 47.2844 66.9731C47.2622 66.8856 47.3022 66.8112 47.3421 66.7631C47.3465 66.785 47.3554 66.8069 47.3687 66.8287C47.413 66.9425 47.5017 67.0388 47.6125 67.1ZM27.6523 83.2337C27.7898 82.6342 28.1489 82.131 28.6765 81.816C29.0312 81.5797 29.4701 81.4572 29.9091 81.4572C30.0775 81.4572 30.246 81.4747 30.4101 81.514C30.8357 81.6059 31.1992 81.8597 31.4342 82.2273C31.6736 82.5992 31.749 83.0412 31.6515 83.4788C31.5938 83.7676 31.4209 84.017 31.1771 84.1702C30.9687 84.2883 30.778 84.3452 30.5785 84.3408C30.7071 84.319 30.8357 84.2708 30.951 84.2008C31.1815 84.0564 31.3456 83.8245 31.3855 83.5926C31.483 83.2469 31.3766 82.9537 31.2436 82.6736C31.0396 82.3761 30.7869 82.2054 30.4943 82.1704C30.1485 82.0829 29.7849 82.1398 29.4657 82.3279C29.1332 82.5249 28.8893 82.8443 28.7962 83.1987C28.6765 83.6013 28.7608 84.0783 29.0179 84.4809C29.2751 84.8659 29.6253 85.1285 30.0687 85.2554C30.5918 85.3867 31.1416 85.286 31.6603 84.9709C32.1525 84.6603 32.4761 84.2183 32.5914 83.6932C32.649 83.4657 32.6712 83.2294 32.6623 82.9975C33.1988 83.807 33.8461 84.5552 34.5998 85.2204C33.6156 86.6994 31.8111 87.4214 30.0376 87.0232C29.2573 86.8526 28.5435 86.3493 28.0824 85.6404C27.639 84.9228 27.4839 84.0477 27.6612 83.2425L27.6523 83.2337ZM35.3491 85.8199C36.1339 86.3975 36.9807 86.8569 37.8718 87.2026H33.9614C34.5023 86.8394 34.9811 86.3756 35.3491 85.8199Z" fill="url(#paint0_radial_11370_1755)"/>
<path d="M56.8566 84.0608L57.0073 84.2446C57.0073 84.2446 56.9896 84.2577 56.9807 84.2664L56.8566 84.0608Z" fill="url(#paint1_radial_11370_1755)"/>
<path d="M56.9586 84.2839C56.9054 84.3365 56.8655 84.3977 56.8433 84.4634C56.8433 84.4415 56.8433 84.424 56.8477 84.4065C56.8655 84.3627 56.9142 84.3102 56.9586 84.2796" fill="url(#paint2_radial_11370_1755)"/>
<path d="M103.019 84.2664C103.019 84.2664 103.002 84.2533 102.993 84.2446L103.144 84.0608L103.019 84.2664Z" fill="url(#paint3_radial_11370_1755)"/>
<path d="M103.148 84.4108C103.148 84.4108 103.157 84.4458 103.152 84.4677C103.13 84.4021 103.09 84.3408 103.037 84.2883C103.082 84.3189 103.13 84.3715 103.148 84.4152" fill="url(#paint4_radial_11370_1755)"/>
<path d="M129.559 83.2994C129.559 83.2687 129.564 83.2381 129.572 83.225C129.581 83.2162 129.586 83.2075 129.595 83.2031C129.581 83.2337 129.568 83.2687 129.564 83.3038" fill="url(#paint5_radial_11370_1755)"/>
<path d="M129.617 83.1594C129.617 83.155 129.621 83.1462 129.626 83.1419C129.626 83.1506 129.617 83.155 129.612 83.1637" fill="url(#paint6_radial_11370_1755)"/>
<path d="M30.4367 83.2994C30.4278 83.2644 30.4189 83.2337 30.4056 83.1987C30.4101 83.2075 30.4189 83.2119 30.4278 83.2206C30.4367 83.2337 30.4367 83.2644 30.4411 83.295" fill="url(#paint7_radial_11370_1755)"/>
<path d="M30.3835 83.1594C30.3835 83.1594 30.3746 83.1462 30.3702 83.1375C30.3702 83.1419 30.379 83.1462 30.379 83.155" fill="url(#paint8_radial_11370_1755)"/>
<path d="M53.3895 57.2938C53.3762 57.4557 53.3673 57.6176 53.3673 57.7795C53.3673 57.9633 53.3806 58.1471 53.3939 58.3265L53.0127 58.2477L53.0792 59.7005L53.4693 59.5867C53.4915 59.9368 53.5181 60.2869 53.558 60.6326H53.1767L53.2122 61.0483C53.2255 61.2145 53.2565 61.3721 53.2875 61.5559L53.3629 61.9716L53.722 61.8665C53.7708 62.2122 53.824 62.5492 53.8861 62.8861H53.4826L53.5802 63.3456C53.6068 63.4681 53.6378 63.5862 53.6688 63.7L53.824 64.2864L54.1743 64.1376C54.2541 64.4658 54.3383 64.794 54.427 65.1178H54.0102L54.161 65.6079C54.2142 65.7785 54.2718 65.9492 54.3294 66.1155L54.489 66.5706L54.826 66.3605C54.9368 66.68 55.0521 66.995 55.1763 67.3057L54.7551 67.3713L54.9634 67.8308C54.9989 67.9096 55.0299 67.9927 55.061 68.0715C55.0876 68.1459 55.1186 68.2159 55.1452 68.2903L55.3137 68.6841L55.6595 68.4916C55.8058 68.8066 55.9521 69.1173 56.1118 69.4236L55.7216 69.4849L56.0053 70.08C56.0586 70.1938 56.1073 70.2988 56.1694 70.4038L56.3999 70.7976L56.697 70.5526C56.8699 70.8545 57.0428 71.1521 57.2246 71.4409L56.8433 71.5634L57.2113 72.1498C57.2601 72.2329 57.3133 72.3204 57.3665 72.4035L57.6236 72.7974L57.9118 72.5129C58.1069 72.7974 58.3108 73.0774 58.5192 73.3531L58.1911 73.5456L58.4926 73.9657C58.5724 74.0751 58.6567 74.1933 58.7453 74.3027L59.0424 74.6527L59.2907 74.3595C59.5079 74.6265 59.734 74.889 59.9601 75.1472L59.6187 75.3485L59.9247 75.6942C60.0311 75.8123 60.1375 75.9261 60.2616 76.0617L60.5941 76.4118L60.8203 76.0836C61.0641 76.333 61.3124 76.5825 61.5651 76.8231L61.2149 77.0288L61.5828 77.3745C61.6493 77.4358 61.7159 77.497 61.7824 77.5583L62.239 77.9827L62.4917 77.6764C62.7578 77.9083 63.0282 78.1359 63.3075 78.3547L63.0725 78.6479L63.3607 78.8842C63.4361 78.9454 63.5159 79.0067 63.5957 79.0636C63.6489 79.0986 63.6977 79.138 63.7509 79.1773L64.1277 79.4662L64.3051 79.103C64.5844 79.3086 64.8726 79.5099 65.1563 79.7068L64.8948 80.0131L65.2672 80.245C65.3426 80.2932 65.4224 80.3369 65.4977 80.3807C65.5642 80.4201 65.6307 80.4551 65.6928 80.4945L66.114 80.757L66.2381 80.3807C66.5352 80.5645 66.8367 80.7395 67.1382 80.9102L66.8899 81.2165L67.2889 81.4353C67.3909 81.4922 67.4929 81.5359 67.5993 81.5841L68.2333 81.8816L68.282 81.4922C68.5835 81.6453 68.8939 81.7897 69.2042 81.9341L69.0092 82.2798L69.4037 82.4505C69.5057 82.4942 69.6121 82.5336 69.7185 82.5686L70.3392 82.7962L70.3969 82.4111C70.7205 82.538 71.0486 82.6561 71.3767 82.7699L71.1683 83.1375L71.6472 83.2644C71.7447 83.2906 71.8422 83.3256 71.9398 83.3563L72.5472 83.5488L72.6004 83.1506C72.9373 83.2425 73.2787 83.33 73.6201 83.4088L73.4871 83.7588L74.8704 84.1308V83.6976C75.2162 83.7588 75.562 83.8114 75.9123 83.8595L75.7438 84.2533L76.2626 84.2971C76.3468 84.3058 76.4266 84.319 76.5064 84.3321C76.5729 84.3452 76.6438 84.3583 76.7104 84.3627L77.2114 84.4283L77.1581 84.0214C77.5128 84.0564 77.8675 84.0827 78.2222 84.1045L78.1557 84.4896L78.8119 84.5246C78.8917 84.529 78.9715 84.5377 79.0513 84.5421L79.508 84.564L79.4592 84.1833C79.6321 84.1964 79.805 84.2052 79.9824 84.2052C80.1597 84.2052 80.3459 84.1921 80.5277 84.1833V84.5815L80.9489 84.5421C81.0996 84.529 81.2548 84.5202 81.4056 84.5159L81.8179 84.4984L81.7735 84.1089C82.1238 84.087 82.4741 84.0608 82.8199 84.0258L82.7755 84.4327L83.2632 84.3715C83.3519 84.3583 83.4406 84.3452 83.5248 84.3277C83.6002 84.3146 83.6756 84.3014 83.7509 84.2927L84.212 84.2358L84.0879 83.8639C84.4337 83.8157 84.7751 83.7588 85.1165 83.6976V84.0914L85.5776 83.9995C85.6929 83.9776 85.7993 83.9514 85.9012 83.9251L86.5619 83.772L86.3756 83.4132C86.717 83.33 87.0584 83.2425 87.3909 83.1506C87.3909 83.1506 87.3909 83.155 87.3909 83.1594L87.5018 83.5313L87.8786 83.4132C87.9629 83.3869 88.0471 83.3563 88.1358 83.3256C88.2156 83.2994 88.2954 83.2688 88.3708 83.2469L88.8585 83.0937L88.6324 82.7524C88.956 82.643 89.2797 82.5249 89.5945 82.4023L89.7097 82.7962L90.1176 82.6168C90.1797 82.5905 90.2462 82.5642 90.3171 82.538C90.4102 82.503 90.5033 82.468 90.5965 82.4286L91.062 82.2229L90.8004 81.9166C91.1063 81.7766 91.4122 81.6322 91.7182 81.479L91.8379 81.8422L92.2369 81.6453C92.299 81.6147 92.3655 81.5841 92.4364 81.5534C92.5251 81.514 92.6138 81.4747 92.7024 81.4309L93.1413 81.2121L92.8709 80.8927C93.1679 80.7264 93.4606 80.5514 93.7488 80.3719L93.8596 80.7483L94.4005 80.4245C94.5158 80.3544 94.631 80.2888 94.733 80.2144L95.1365 79.9256L94.8394 79.6806C95.1276 79.488 95.4069 79.2867 95.6818 79.0854L95.8326 79.4662L96.236 79.1555C96.2981 79.1073 96.3646 79.0592 96.4311 79.0111C96.502 78.9586 96.573 78.906 96.6395 78.8535L97.0651 78.5253L96.7193 78.2978C96.9809 78.0921 97.2336 77.8777 97.4863 77.6545L97.637 78.009L98.0405 77.6764C98.1247 77.6064 98.2001 77.5364 98.2755 77.4664L98.7454 77.0507L98.4307 76.7925C98.6789 76.5562 98.9228 76.3155 99.1578 76.0661L99.3129 76.4381L99.7208 76.0311C99.8006 75.9524 99.8716 75.8736 99.947 75.7948L100.457 75.2566L100.049 75.1078C100.271 74.854 100.492 74.5915 100.705 74.3289L100.967 74.5871L101.237 74.2852C101.33 74.1845 101.406 74.0795 101.481 73.9701L101.836 73.4888L101.485 73.3181C101.694 73.0424 101.893 72.7624 102.093 72.4779L102.385 72.7842L103.108 71.5853L102.771 71.4102C102.953 71.1214 103.13 70.8282 103.294 70.5351L103.574 70.8151L103.826 70.3819C103.915 70.2244 103.995 70.0625 104.075 69.8831L104.292 69.4061L103.906 69.3623C104.052 69.0735 104.194 68.7804 104.336 68.4872L104.7 68.7191L104.917 68.1196C104.957 68.0102 104.997 67.8921 105.046 67.787L105.254 67.3188L104.833 67.2663C104.953 66.9556 105.072 66.6362 105.183 66.3168L105.529 66.4874L105.675 66.0805C105.737 65.9098 105.799 65.7348 105.844 65.551L105.963 65.0784H105.578C105.666 64.7633 105.751 64.4439 105.826 64.1201L106.176 64.2995L106.291 63.8269C106.305 63.7657 106.323 63.7044 106.34 63.6475C106.371 63.5337 106.407 63.42 106.424 63.3062L106.504 62.8598H106.114C106.176 62.5229 106.229 62.1816 106.278 61.8403L106.637 61.9541L106.713 61.5252C106.744 61.3502 106.775 61.1752 106.788 61.0001L106.832 60.5232L106.442 60.5757C106.478 60.2343 106.504 59.8887 106.522 59.543L106.93 59.6042V59.1579C106.93 59.0179 106.943 58.8778 106.957 58.6897L107.001 58.1646L106.597 58.2608C106.606 58.1033 106.615 57.9458 106.615 57.7839C106.615 57.6045 106.602 57.4294 106.589 57.25L106.996 57.32L106.952 56.7731C106.939 56.633 106.93 56.5018 106.93 56.3574V55.8104L106.518 55.9635C106.495 55.631 106.469 55.2984 106.438 54.9658L106.872 55.0402L106.602 53.4999L106.256 53.6706C106.212 53.338 106.163 53.0098 106.101 52.686H106.531L106.407 52.2091C106.389 52.1478 106.371 52.0865 106.354 52.0253C106.327 51.9334 106.3 51.8459 106.283 51.754L106.203 51.2989L105.808 51.4477C105.728 51.1151 105.64 50.7825 105.542 50.45L105.915 50.3887L105.813 49.9861C105.777 49.8417 105.728 49.7061 105.68 49.5617L105.502 49.041L105.148 49.216C105.037 48.8966 104.917 48.5815 104.797 48.2664L105.21 48.2008L105.015 47.7545C104.984 47.6845 104.961 47.6144 104.935 47.5444C104.899 47.4482 104.868 47.3519 104.824 47.26L104.66 46.8968L104.314 47.0675C104.172 46.7568 104.021 46.4505 103.871 46.1485L104.283 46.0479L104.03 45.6103C103.99 45.5447 103.959 45.4747 103.928 45.409C103.888 45.3215 103.849 45.2384 103.8 45.1508L103.551 44.7133L103.268 44.9933C103.099 44.7045 102.926 44.4157 102.749 44.1313L103.121 44.0088L102.878 43.6018C102.802 43.4793 102.731 43.3524 102.66 43.2255L102.39 42.7573L102.066 43.0373C101.867 42.7573 101.663 42.4772 101.454 42.1972L101.769 41.9609L101.53 41.6546C101.49 41.6064 101.454 41.5583 101.419 41.5058C101.357 41.4183 101.29 41.3307 101.215 41.2432L100.882 40.8538L100.656 41.1863C100.444 40.9238 100.222 40.67 99.9957 40.4162L100.368 40.2412L99.947 39.7686C99.8627 39.6723 99.7785 39.576 99.6898 39.4885L99.3839 39.1822L99.1445 39.4798C98.9051 39.2303 98.6568 38.9897 98.4085 38.749L98.6745 38.4821L98.4041 38.2151C98.3331 38.1451 98.2577 38.0751 98.1779 38.0051C98.1247 37.9613 98.076 37.9132 98.0228 37.8651L97.6681 37.5325L97.4553 37.8913C97.1981 37.6682 96.9365 37.4494 96.6661 37.235L96.941 36.9637L96.6173 36.6967C96.5464 36.6398 96.4754 36.583 96.4001 36.5304C96.338 36.4823 96.2715 36.4386 96.2138 36.3904L95.8592 36.0929L95.6508 36.4517C95.367 36.246 95.0833 36.0491 94.7995 35.8522L95.0434 35.5459L94.6931 35.314C94.631 35.2746 94.5645 35.2308 94.4936 35.1914C94.4227 35.1521 94.3517 35.1083 94.2852 35.0645L93.9394 34.8151L93.7266 35.1739C93.4295 34.9945 93.1325 34.8239 92.831 34.6532L93.1192 34.3688L92.6714 34.1237C92.5916 34.08 92.5118 34.0406 92.4275 34.0012C92.3566 33.9706 92.2901 33.9356 92.2236 33.9006L91.7802 33.6599L91.6827 34.0625C91.3723 33.9093 91.062 33.7605 90.7472 33.6205L90.9733 33.2836L90.5388 33.1085C90.4368 33.0692 90.3349 33.0298 90.2373 32.9948L89.6432 32.7716L89.5501 33.1523C89.2398 33.0298 88.9205 32.916 88.6013 32.8066L88.8407 32.4522L88.3397 32.3078C88.2466 32.2815 88.158 32.2509 88.0693 32.2202C87.9939 32.194 87.9185 32.1677 87.8387 32.1459L87.3377 31.9883V32.404C87.0052 32.3121 86.6683 32.229 86.3269 32.1459L86.4687 31.7695L86.0254 31.682C85.9456 31.6645 85.8702 31.647 85.7948 31.6251C85.715 31.6033 85.6397 31.5814 85.5599 31.5639L85.0855 31.4589V31.8702C84.7396 31.8089 84.3894 31.752 84.0347 31.7039C84.0347 31.6864 84.0436 31.6689 84.0436 31.6514V31.3188L83.711 31.2751C83.649 31.2663 83.5825 31.2576 83.5204 31.2444C83.4229 31.2269 83.3253 31.2138 83.2278 31.2007L82.7356 31.1438L82.7888 31.542C82.4475 31.5114 82.1061 31.4851 81.7647 31.4632L81.9332 31.0782L81.3745 31.0563C81.206 31.0475 81.042 31.0388 80.8868 31.03L80.4213 30.9994L80.4701 31.3888C80.306 31.3757 80.1464 31.367 79.9824 31.367C79.7917 31.367 79.6011 31.3801 79.406 31.3932L79.4548 31.0125L78.936 31.0388C78.7942 31.0432 78.6478 31.0519 78.506 31.0607L78.0493 31.0913L78.1424 31.4632C77.7922 31.4851 77.4419 31.5114 77.0961 31.5464V31.1482L76.6571 31.2094C76.4931 31.2313 76.3202 31.2576 76.1561 31.2882L75.7394 31.3626L75.8369 31.717C75.4955 31.7652 75.1542 31.8177 74.8128 31.8789V31.472L74.3428 31.5726C74.2453 31.5945 74.1433 31.6208 74.0457 31.647C73.9748 31.6645 73.9083 31.6864 73.8374 31.7039L73.3541 31.8177L73.5403 32.1634C73.2167 32.2378 72.8974 32.3209 72.5782 32.4084V32.0058L72.0817 32.1502C71.9708 32.1809 71.86 32.2203 71.7536 32.2553L71.1151 32.4653L71.3191 32.811C70.9999 32.9204 70.6806 33.0342 70.3614 33.1567L70.3171 32.741L69.8338 32.9466C69.7584 32.9773 69.6875 33.0079 69.6121 33.0342C69.5279 33.0692 69.4436 33.0998 69.3594 33.1348L68.8939 33.3361L69.151 33.6511C68.8407 33.7912 68.5303 33.94 68.2244 34.0931L68.118 33.7299L67.5594 33.9925C67.4485 34.0406 67.3332 34.0931 67.2313 34.15L66.8145 34.3775L67.0761 34.6795C66.779 34.8501 66.4864 35.0208 66.1938 35.2002L66.0564 34.8326L65.6529 35.0864C65.5864 35.1258 65.5155 35.1696 65.449 35.2089C65.3736 35.2527 65.2982 35.2965 65.2273 35.3446L64.7883 35.6203L65.1076 35.8916C64.8238 36.0841 64.5445 36.281 64.2652 36.4867L64.0878 36.1279L63.7154 36.4167C63.6533 36.4648 63.5913 36.5086 63.5292 36.5567C63.4583 36.6092 63.3873 36.6573 63.3164 36.7142L62.9484 36.9987L63.2543 37.2612C62.9883 37.4756 62.7267 37.6988 62.4696 37.9263L62.2922 37.5719L61.8267 37.9789C61.7247 38.0664 61.6183 38.1583 61.5252 38.2502L61.2282 38.5433L61.5208 38.784C61.2725 39.0203 61.0286 39.2653 60.7892 39.5104L60.5941 39.1253L60.2129 39.5542C60.1596 39.611 60.1064 39.6679 60.0532 39.7248C59.9956 39.7861 59.9335 39.8517 59.8759 39.9173L59.5035 40.333L59.8936 40.4775C59.672 40.7269 59.4503 40.9851 59.2375 41.2476L58.9759 40.9369L58.6833 41.3176C58.5946 41.4314 58.5059 41.5539 58.3951 41.7027L58.1113 42.0878L58.4749 42.2409C58.2665 42.521 58.067 42.801 57.8675 43.0855L57.597 42.766L57.3133 43.2124C57.2512 43.313 57.1891 43.4136 57.1271 43.5143L56.83 44.0088L57.1847 44.1575C56.9985 44.4507 56.8211 44.7526 56.6482 45.0502L56.3201 44.7745L56.0142 45.4178C55.9743 45.5009 55.9388 45.5841 55.8989 45.6628L55.6861 46.0873L56.0674 46.1835C55.9167 46.4811 55.7659 46.783 55.6285 47.0893L55.3048 46.8137L55.1009 47.3038C55.0654 47.3869 55.0344 47.47 55.0033 47.5532C54.9767 47.6276 54.9501 47.702 54.9191 47.7763L54.7285 48.2358L55.1319 48.2883C55.0078 48.6078 54.8881 48.9316 54.7772 49.2598L54.4358 49.0322L54.223 49.6798C54.1876 49.7849 54.1521 49.8899 54.1211 49.9949L54.0058 50.4194L54.3915 50.4675C54.2984 50.8044 54.2097 51.1414 54.1255 51.4827L53.7664 51.3033L53.6555 51.7802C53.6378 51.8546 53.6201 51.9246 53.5979 51.9947C53.5757 52.0778 53.5491 52.1609 53.5314 52.2441L53.425 52.7079H53.8417C53.7797 53.0536 53.7265 53.3993 53.6733 53.7494L53.2875 53.6837L53.2343 54.0732C53.2255 54.1301 53.2166 54.1869 53.2077 54.2438C53.19 54.3532 53.1723 54.4626 53.159 54.572L53.1191 55.0402L53.5092 54.9921C53.4782 55.329 53.4516 55.6704 53.4338 56.0117L53.0481 55.8891L53.026 56.3924C53.026 56.4755 53.0171 56.5586 53.0127 56.6374L52.9772 57.3332L53.3629 57.285L53.3895 57.2938ZM70.1353 34.2681C70.4767 34.5044 70.9289 34.5701 71.3856 34.4213C71.7314 34.2944 72.0196 34.0318 72.1703 33.6993C72.2014 33.6336 72.2235 33.5636 72.2457 33.4936C72.5649 33.7562 73.0038 33.8699 73.4605 33.7693C73.8241 33.6774 74.1344 33.4411 74.3206 33.1173C74.3561 33.0517 74.3871 32.986 74.4093 32.9204C74.7019 33.2048 75.132 33.3492 75.6064 33.288C75.9699 33.2223 76.298 33.0123 76.5064 32.7103C76.5463 32.6535 76.5818 32.5922 76.6084 32.5309C76.8833 32.8547 77.3089 33.0385 77.7656 33.0035C78.1247 32.9816 78.4483 32.8241 78.6877 32.5572C78.7454 32.4916 78.7942 32.4215 78.8385 32.3471C79.0868 32.6928 79.4991 32.9204 79.9646 32.9204C80.4302 32.9204 80.8425 32.6885 81.0863 32.3296C81.1218 32.404 81.1706 32.4697 81.2193 32.5353C81.4322 32.8066 81.7292 32.9816 82.0662 33.0167C82.5716 33.0429 83.0194 32.846 83.3076 32.5091C83.3386 32.5791 83.3741 32.6491 83.4184 32.7191C83.6091 33.0167 83.9061 33.2223 84.2741 33.2923C84.7574 33.3448 85.2096 33.1873 85.52 32.8854C85.5421 32.9641 85.5732 33.0385 85.6131 33.1085C85.7727 33.4149 86.0476 33.6468 86.3978 33.7518C86.8899 33.8568 87.3599 33.743 87.6969 33.4674C87.7102 33.533 87.7323 33.5986 87.7545 33.6643C87.8831 34.0012 88.1402 34.2638 88.4772 34.3994C88.9471 34.5526 89.4215 34.4782 89.794 34.2156C89.8028 34.2988 89.8206 34.3819 89.8472 34.4607C89.9536 34.7889 90.1841 35.0602 90.4989 35.2133C90.9556 35.4015 91.4433 35.3621 91.829 35.1433C91.829 35.2308 91.8423 35.3227 91.86 35.4102C91.9354 35.7515 92.1393 36.0404 92.4497 36.2198C92.8931 36.4386 93.3763 36.4429 93.7754 36.2548C93.7754 36.3335 93.7754 36.4079 93.7842 36.4867C93.8286 36.8411 94.0103 37.1606 94.303 37.3662C94.7197 37.6375 95.1985 37.69 95.6109 37.5369C95.5976 37.6157 95.5931 37.6944 95.5976 37.7776C95.6109 38.1364 95.7661 38.4689 96.0454 38.7009C96.4488 38.9897 96.9188 39.0728 97.3356 38.9634C97.3178 39.0334 97.3089 39.1034 97.3045 39.1778C97.2779 39.5454 97.4021 39.8955 97.6681 40.1624C98.0361 40.4818 98.4927 40.6044 98.9272 40.5212C98.8962 40.6087 98.8785 40.7006 98.8696 40.7969C98.8341 41.1382 98.9361 41.4751 99.1533 41.7246C99.4859 42.0965 99.9425 42.2672 100.377 42.2278C100.342 42.3066 100.315 42.3853 100.297 42.4685C100.217 42.8098 100.279 43.1598 100.475 43.453C100.78 43.8381 101.211 44.0525 101.658 44.0394C101.618 44.1094 101.587 44.1794 101.561 44.2538C101.446 44.5951 101.472 44.9627 101.654 45.2996C101.929 45.6978 102.337 45.9341 102.776 45.9691C102.74 46.026 102.705 46.0873 102.678 46.1485C102.527 46.4811 102.518 46.8574 102.678 47.2119C102.917 47.6363 103.303 47.9076 103.72 47.9864C103.671 48.0476 103.631 48.1089 103.591 48.1789C103.418 48.4984 103.387 48.8616 103.512 49.2072C103.707 49.6667 104.075 49.9774 104.496 50.0868C104.447 50.1393 104.398 50.2006 104.358 50.2618C104.154 50.5681 104.092 50.9269 104.185 51.2901C104.345 51.7409 104.678 52.0734 105.09 52.2266C105.037 52.2747 104.988 52.3272 104.939 52.3797C104.709 52.6598 104.602 53.0142 104.642 53.3555L104.655 53.4168C104.793 53.8806 105.094 54.2351 105.467 54.4145C105.13 54.677 104.944 55.0927 104.944 55.4997L104.953 55.5697C105.041 56.0335 105.316 56.4142 105.684 56.6287C105.626 56.6637 105.569 56.7074 105.511 56.7556C105.236 56.9962 105.072 57.3332 105.063 57.7226C105.099 58.1952 105.338 58.6065 105.684 58.8516C105.631 58.8778 105.578 58.9085 105.529 58.9435C105.223 59.1579 105.019 59.4861 104.966 59.8493V59.9018C104.966 60.3744 105.174 60.7988 105.498 61.0745C105.108 61.2364 104.802 61.569 104.7 61.9978L104.691 62.0591C104.655 62.5229 104.815 62.9517 105.108 63.2537C105.054 63.2712 105.006 63.2887 104.957 63.3149C104.616 63.4725 104.35 63.7744 104.221 64.1901C104.141 64.6408 104.27 65.0872 104.545 65.411C104.469 65.4285 104.394 65.4503 104.323 65.4766C103.986 65.6079 103.724 65.8661 103.583 66.1986L103.565 66.2511C103.45 66.7062 103.534 67.1569 103.773 67.4982C103.702 67.507 103.631 67.5201 103.56 67.542C103.215 67.6426 102.926 67.8833 102.758 68.2378C102.585 68.6841 102.625 69.1523 102.838 69.5199C102.771 69.5199 102.7 69.5286 102.634 69.5418C102.279 69.6074 101.96 69.8218 101.756 70.1237L101.725 70.1762C101.53 70.6051 101.534 71.0689 101.707 71.4496C101.645 71.4496 101.579 71.4496 101.512 71.4496C101.153 71.4846 100.816 71.6597 100.59 71.9353L100.55 71.9922C100.315 72.4123 100.279 72.8674 100.421 73.2612C100.35 73.2525 100.279 73.2525 100.209 73.2481C99.8405 73.2568 99.4947 73.4144 99.2287 73.7163C98.9494 74.1145 98.8696 74.5696 98.9804 74.9722C98.5592 74.889 98.1114 74.994 97.77 75.3091C97.4553 75.6767 97.3311 76.1318 97.3932 76.5387C97.3311 76.5212 97.2646 76.5081 97.1981 76.495C96.839 76.4424 96.4666 76.5343 96.1739 76.7531L96.1252 76.7925C95.7971 77.1295 95.6463 77.5627 95.6862 77.9784C95.2961 77.8165 94.8439 77.834 94.4581 78.0659L94.4094 78.1009C94.0458 78.4116 93.8507 78.8404 93.8507 79.2517C93.4739 79.0636 93.0083 79.0461 92.6004 79.243L92.5472 79.2736C92.166 79.5449 91.9443 79.9475 91.9088 80.3588C91.5541 80.1444 91.1063 80.0831 90.6896 80.2319L90.6364 80.2582C90.2196 80.4901 89.9491 80.8795 89.8738 81.2952C89.5412 81.0502 89.1023 80.9583 88.6723 81.0765L88.6102 81.0983C88.1846 81.2996 87.8875 81.6584 87.7855 82.0741C87.4707 81.7897 87.0318 81.6453 86.584 81.7285L86.5131 81.7503C86.0653 81.9254 85.7461 82.2579 85.6042 82.6474C85.3116 82.3367 84.8726 82.1704 84.3938 82.2317C83.9239 82.3498 83.5692 82.643 83.3918 83.0325C83.3342 82.9624 83.2677 82.8924 83.1967 82.8355C82.9263 82.608 82.5849 82.4986 82.2302 82.5336C81.7602 82.5949 81.3745 82.8618 81.1573 83.2512C80.9312 82.8968 80.5454 82.6518 80.0932 82.6168H80.0223C79.5567 82.6649 79.1621 82.9012 78.9183 83.2469C78.7188 82.8706 78.3552 82.5992 77.8941 82.5336H77.8409C77.371 82.5336 76.9542 82.7218 76.6838 83.0325C76.6483 82.9449 76.5995 82.8618 76.5463 82.783C76.3468 82.4986 76.0497 82.3104 75.6995 82.2492C75.234 82.1835 74.7862 82.3498 74.4758 82.6518C74.4492 82.5774 74.4182 82.5074 74.3827 82.4373C74.2098 82.1223 73.9172 81.886 73.5492 81.781C73.0792 81.6847 72.627 81.8028 72.3033 82.0741C72.1969 81.6672 71.9043 81.3128 71.4698 81.1333C71.0132 80.9933 70.5609 81.0677 70.2062 81.3127C70.1974 81.2427 70.1796 81.1727 70.1575 81.1027C70.0511 80.7658 69.8072 80.477 69.4924 80.3151L69.4436 80.2932C69.0003 80.1357 68.5392 80.1794 68.1756 80.3851C68.1756 80.3194 68.1623 80.2494 68.1446 80.1838C68.0648 79.8337 67.8431 79.5274 67.5239 79.3305C67.0938 79.0942 66.6239 79.0854 66.2293 79.2692C66.2293 79.208 66.2293 79.1467 66.2204 79.0854C66.1805 78.731 65.9854 78.4028 65.6662 78.1578C65.2583 77.9084 64.7972 77.8646 64.3938 78.009C64.4026 77.9302 64.4071 77.8515 64.4026 77.7727C64.3805 77.4183 64.2164 77.0857 63.9327 76.845C63.5425 76.5518 63.0903 76.4643 62.6868 76.5693C62.7001 76.495 62.709 76.4162 62.7134 76.3418C62.7223 75.9874 62.5893 75.6504 62.3144 75.3616C61.9597 75.0553 61.5119 74.9372 61.0863 75.0203C61.1084 74.9503 61.1262 74.8803 61.135 74.8059C61.1838 74.4558 61.0863 74.1057 60.8424 73.7994C60.5188 73.445 60.0843 73.2743 59.6498 73.3137C59.6764 73.2525 59.6941 73.1912 59.7119 73.1256C59.7917 72.7755 59.7252 72.4035 59.4946 72.0491C59.2064 71.6903 58.7941 71.5021 58.3596 71.5021C58.3951 71.4365 58.4217 71.3709 58.4438 71.3008C58.5547 70.9595 58.5192 70.5788 58.3286 70.2419C58.0714 69.8481 57.668 69.6118 57.2379 69.5768C57.4596 69.2136 57.4995 68.7497 57.3133 68.3078C57.096 67.8921 56.7103 67.6251 56.298 67.5507C56.3334 67.5026 56.3645 67.4501 56.3955 67.3932C56.564 67.0738 56.5906 66.7018 56.462 66.3168C56.2847 65.8879 55.93 65.586 55.5221 65.4766C55.5664 65.4285 55.6019 65.376 55.6374 65.3234C55.8324 65.0171 55.8901 64.6452 55.797 64.2645C55.695 63.9013 55.4556 63.5994 55.1275 63.42C55.0654 63.3849 54.9989 63.3543 54.9324 63.3324C54.9856 63.2843 55.0299 63.2318 55.0743 63.1749C55.2915 62.8905 55.3758 62.5229 55.3137 62.1466C55.2561 61.7921 55.061 61.4815 54.7595 61.267C54.6886 61.2189 54.6132 61.1752 54.5378 61.1358C54.591 61.092 54.6442 61.0439 54.693 60.9914C54.9324 60.7244 55.0477 60.37 55.0211 59.9937C54.9945 59.6305 54.8216 59.2979 54.5423 59.0616C54.4802 59.0091 54.4137 58.961 54.3427 58.9216C54.4048 58.8778 54.4624 58.8341 54.5201 58.7772C54.7817 58.5278 54.9235 58.1821 54.9235 57.8101C54.9235 57.3551 54.693 56.9525 54.3427 56.7074C54.4048 56.6724 54.4624 56.6374 54.5157 56.5937C54.7994 56.3705 54.9812 56.0335 55.0211 55.631C55.0477 55.2765 54.9324 54.9308 54.7019 54.6595C54.6487 54.5983 54.591 54.5414 54.529 54.4889C54.591 54.4626 54.6531 54.4276 54.7107 54.3926C55.0122 54.1957 55.2206 53.8763 55.296 53.4912C55.3625 53.128 55.2871 52.7692 55.0787 52.476C55.0299 52.4104 54.9812 52.3491 54.9235 52.2922C55.3137 52.1478 55.6285 51.8196 55.7659 51.3689C55.8812 50.9313 55.7659 50.485 55.4866 50.1524C55.5487 50.1349 55.6108 50.1174 55.6684 50.0912C56.0098 49.9468 56.2758 49.6667 56.4265 49.286C56.5729 48.8572 56.5019 48.4152 56.2581 48.0652C56.3201 48.0564 56.3822 48.0389 56.4443 48.0214C56.7945 47.9076 57.0872 47.6582 57.2689 47.2906C57.4551 46.8705 57.4197 46.4111 57.2157 46.0435C57.6325 46.0041 58.0226 45.7678 58.2665 45.3609C58.5015 44.9671 58.5148 44.5076 58.3374 44.1225C58.3951 44.1225 58.466 44.1181 58.5281 44.1094C58.8872 44.0569 59.2109 43.8556 59.4503 43.5405C59.7119 43.1686 59.7606 42.7048 59.6187 42.3022C59.6808 42.3066 59.7429 42.3066 59.8094 42.3022C60.1774 42.2803 60.5232 42.1053 60.7804 41.8077C61.0153 41.5364 61.1306 41.1732 61.0951 40.8144C61.0863 40.7356 61.073 40.6612 61.0552 40.5868C61.1217 40.6 61.1882 40.6044 61.2592 40.6044C61.6316 40.6044 61.9774 40.4643 62.2479 40.1974C62.5095 39.9436 62.6558 39.6023 62.6558 39.2391C62.6558 39.1603 62.6513 39.0772 62.6336 39.0028C63.0326 39.1078 63.4849 39.0203 63.8617 38.7271C64.1455 38.4908 64.3273 38.1451 64.3539 37.7776C64.3583 37.7075 64.3583 37.6419 64.3539 37.5719C64.744 37.7119 65.1918 37.6638 65.5864 37.41C65.8968 37.2 66.1096 36.863 66.1716 36.4867C66.1805 36.4254 66.1894 36.3598 66.1894 36.2985C66.5574 36.4604 67.014 36.4517 67.4618 36.246C67.8431 36.0141 68.0737 35.6115 68.1136 35.1827C68.4771 35.3927 68.9426 35.4277 69.3949 35.2396C69.8116 35.0383 70.0821 34.6707 70.153 34.2506L70.1353 34.2681Z" fill="url(#paint9_radial_11370_1755)"/>
<path d="M62.3277 46.0479C64.775 46.096 65.511 46.6824 67.6126 51.3864L79.5523 77.7946H80.3592L92.299 51.3864C94.4005 46.678 95.1365 46.096 97.5838 46.0479V45.129H84.6155V46.0479L85.9855 46.1442C87.5506 46.2448 88.189 46.678 88.189 47.6494C88.189 48.1877 83.2012 59.0354 79.9558 66.028C76.7148 59.0354 71.7225 48.1833 71.7225 47.6494C71.7225 46.678 72.361 46.2404 73.926 46.1442L75.296 46.0479V45.129H62.3277V46.0479Z" fill="url(#paint10_radial_11370_1755)"/>
<path d="M21.432 107.712H138.568C138.568 107.034 138.01 106.483 137.322 106.483H22.6778C21.9906 106.483 21.432 107.034 21.432 107.712Z" fill="url(#paint11_radial_11370_1755)"/>
<path d="M34.7905 90.9571L31.9884 98.1903L29.0667 90.9571H25.839L31.9131 105.039L37.9871 90.9571H34.7905Z" fill="url(#paint12_radial_11370_1755)"/>
<path d="M49.8914 103.844H53.0348L47.3022 90.4582H46.6371L40.9044 103.844H43.7287L46.8721 96.2387L49.8914 103.844Z" fill="url(#paint13_radial_11370_1755)"/>
<path d="M98.5459 103.844H101.685L95.9567 90.4582H95.2917L89.559 103.844H92.3832L95.5222 96.2387L98.5459 103.844Z" fill="url(#paint14_radial_11370_1755)"/>
<path d="M58.803 90.5414V103.844H61.605L61.5562 96.3963L69.7496 104.277H70.3791V90.9571H67.6126L67.648 98.5273L59.4857 90.5414H58.803Z" fill="url(#paint15_radial_11370_1755)"/>
<path d="M82.6026 103.844V93.6263H85.7461V90.9571H76.7769V93.6263H79.8405V103.844H82.6026Z" fill="url(#paint16_radial_11370_1755)"/>
<path d="M115.837 97.4202C116.161 96.7157 116.325 95.9849 116.325 95.2454C116.325 94.3527 116.116 93.5738 115.7 92.9306C115.283 92.283 114.698 91.7885 113.953 91.4516C113.226 91.1234 112.374 90.9571 111.417 90.9571H107.577V103.844H110.357V99.6475H111.678L114.418 103.844H117.646L114.516 98.9167C115.114 98.5317 115.558 98.0284 115.837 97.4202ZM113.496 95.311C113.496 95.5342 113.443 95.7924 113.332 96.0681C113.235 96.3219 113.057 96.5319 112.8 96.7157C112.552 96.8907 112.175 96.9782 111.683 96.9782H110.357V93.6263H111.749C112.224 93.6263 112.583 93.7182 112.818 93.8977C113.07 94.0902 113.239 94.309 113.336 94.5628C113.443 94.8428 113.496 95.0966 113.496 95.311Z" fill="url(#paint17_radial_11370_1755)"/>
<path d="M131.013 103.844H134.157L128.424 90.4582H127.763L122.031 103.844H124.851L127.994 96.2387L131.013 103.844Z" fill="url(#paint18_radial_11370_1755)"/>
<path d="M63.9681 14.4456C64.2253 14.9007 64.4514 15.3689 64.6775 15.8415C64.9125 16.3272 65.1342 16.8217 65.347 17.3162C65.6086 17.92 65.8524 18.5283 66.1051 19.1365C66.1716 19.3028 66.2426 19.4691 66.3091 19.6353C66.4155 19.911 66.5219 20.1911 66.6327 20.4668C66.7524 20.7599 66.8677 21.0531 67.1027 21.285C67.5017 21.6701 67.9717 21.9589 68.4816 22.169C68.9826 22.3746 69.5057 22.519 70.0599 22.5278C70.4989 22.5365 70.9333 22.5321 71.3634 22.4228C71.6959 22.3352 72.024 22.2346 72.3255 22.0683C72.5561 21.9414 72.7822 21.8145 72.9817 21.6395C73.1546 21.4863 73.3275 21.3332 73.4915 21.1756C73.6112 21.0575 73.7177 20.9262 73.8329 20.8037C73.9482 20.6812 73.9881 20.6768 74.1433 20.7556C74.6354 21.005 75.1409 21.2194 75.6862 21.32C75.9389 21.3682 76.1916 21.4251 76.4443 21.4294C76.7724 21.4338 77.1049 21.3988 77.433 21.3419C77.9917 21.2457 78.4971 21.0312 78.9493 20.6987C79.2153 20.5018 79.4636 20.2786 79.6631 20.016C79.7607 19.8891 79.8582 19.771 80.0134 19.7491C80.1686 19.7754 80.2661 19.8891 80.3637 20.016C80.5676 20.2786 80.8115 20.5018 81.0819 20.6987C81.5341 21.0312 82.0396 21.25 82.5982 21.3419C82.9263 21.3988 83.2544 21.4338 83.5825 21.4294C83.8352 21.4294 84.0879 21.3638 84.3406 21.32C84.886 21.2194 85.3914 21.005 85.8835 20.7556C86.0387 20.6768 86.0786 20.6812 86.1939 20.8037C86.3091 20.9262 86.4155 21.0575 86.5353 21.1756C86.6993 21.3375 86.8722 21.4863 87.0451 21.6395C87.2402 21.8145 87.4707 21.9414 87.7013 22.0683C88.0072 22.2346 88.3309 22.3352 88.6634 22.4228C89.0935 22.5365 89.5279 22.5365 89.9669 22.5278C90.5211 22.519 91.0442 22.3746 91.5452 22.169C92.0551 21.9589 92.5251 21.6701 92.9241 21.285C93.1591 21.0575 93.2744 20.7599 93.3941 20.4668C93.5049 20.1911 93.6069 19.911 93.7177 19.6353C93.7842 19.4691 93.8507 19.3028 93.9217 19.1365C94.1744 18.5283 94.4182 17.92 94.6798 17.3162C94.8926 16.8217 95.1143 16.3272 95.3493 15.8415C95.5754 15.3733 95.8015 14.9007 96.0587 14.4456C96.3557 13.9205 96.6838 13.4129 96.9986 12.9009C97.0296 12.8484 97.0607 12.7915 97.0695 12.7347C97.0873 12.6296 97.0163 12.564 96.9099 12.5903C96.4887 12.6953 96.0631 12.7959 95.6463 12.9141C95.3582 12.9972 95.0744 13.0935 94.7995 13.2072C94.5823 13.2991 94.3783 13.426 94.1788 13.5442C94.0192 13.6405 93.864 13.7498 93.7177 13.8592C93.434 14.0737 93.2212 14.345 93.0615 14.66C92.9463 14.8832 92.8753 15.1239 92.8665 15.3733C92.862 15.6096 92.8886 15.8415 92.9019 16.0778C92.9019 16.0997 92.8975 16.1259 92.8931 16.1741C92.8044 16.0909 92.729 16.0209 92.6581 15.9465C92.3832 15.6621 92.0285 15.5308 91.6517 15.4433C91.3413 15.3689 91.0265 15.3864 90.725 15.4608C90.2728 15.5746 89.9048 15.8152 89.6299 16.1959C89.3329 16.6029 89.191 17.058 89.191 17.5524C89.191 18.0425 89.3506 18.4889 89.6521 18.8783C89.723 18.9746 89.8117 19.0971 89.9757 19.049C90.0644 18.9221 90.1531 18.7908 90.2462 18.6683C90.4856 18.3532 90.8226 18.2526 91.195 18.3182C91.5408 18.3751 91.7847 18.5851 91.8999 18.9177C92.064 19.3903 91.9842 19.8279 91.696 20.2392C91.3457 20.7381 90.8492 21.0225 90.2684 21.1538C89.6964 21.285 89.1334 21.2369 88.5836 21.0006C88.0915 20.7862 87.719 20.458 87.4752 19.9898C87.3732 19.7929 87.3244 19.5697 87.2668 19.3553C87.2358 19.2371 87.2313 19.1102 87.2313 18.9877C87.2269 18.7952 87.2579 18.7471 87.4353 18.6814C87.8609 18.5239 88.1447 18.2263 88.3087 17.815C88.4107 17.5568 88.424 17.2899 88.3885 17.0142C88.353 16.7254 88.22 16.4891 88.056 16.2528C88.1535 16.034 88.291 15.8415 88.4284 15.6533C88.5038 15.5483 88.5925 15.452 88.6811 15.3558C88.9161 15.102 89.191 14.9007 89.488 14.7213C89.5679 14.6731 89.6477 14.625 89.723 14.5681C89.856 14.4762 89.856 14.3581 89.723 14.2706C89.59 14.1874 89.4393 14.1393 89.2797 14.1305C89.191 14.1262 89.1023 14.1305 89.0181 14.1305C88.9649 14.1305 88.9117 14.1218 88.8452 14.1174C88.8629 14.0299 88.8718 13.9643 88.8895 13.903C88.987 13.5223 89.0225 13.1416 88.9737 12.7478C88.925 12.3408 88.7742 11.982 88.5747 11.6407C88.4683 11.4569 88.4107 11.4482 88.2245 11.5532C87.7811 11.8157 87.422 12.157 87.1693 12.6121C86.9963 12.9184 86.8855 13.2423 86.85 13.5923C86.85 13.6098 86.8367 13.6273 86.8279 13.6448C86.8279 13.6492 86.819 13.6492 86.8057 13.658C86.788 13.6492 86.7658 13.6361 86.7525 13.6229C86.5441 13.3954 86.2737 13.3429 85.9855 13.3473C85.8081 13.3473 85.7505 13.4435 85.8303 13.6054C85.9146 13.7805 85.9944 13.9555 86.0919 14.1174C86.2382 14.3625 86.2958 14.6381 86.3712 14.9051C86.4333 15.1326 86.4776 15.3602 86.4776 15.6008C86.4776 15.8065 86.4555 15.8371 86.2648 15.9246C85.8214 16.1347 85.5111 16.476 85.418 16.953C85.3249 17.4431 85.4268 17.9069 85.7771 18.2876C85.9278 18.4539 85.9278 18.4845 85.8259 18.677C85.6707 18.9746 85.4623 19.2284 85.1963 19.4297C85.1342 19.4778 85.0589 19.5216 84.9879 19.5522C84.682 19.6922 84.3716 19.806 84.0258 19.841C83.4849 19.8891 82.9795 19.7841 82.4918 19.5697C81.7824 19.259 81.3657 18.7077 81.2193 17.955C81.1927 17.8194 81.1573 17.6881 81.1573 17.5524C81.1528 17.163 81.2238 16.7779 81.4499 16.4541C81.7913 15.9596 82.3366 15.8546 82.8376 16.1216C83.0992 16.2616 83.2632 16.5022 83.2854 16.8129C83.2943 16.9311 83.2898 17.0492 83.3031 17.163C83.3076 17.2155 83.3297 17.268 83.3519 17.3424C83.4362 17.3293 83.5115 17.3293 83.578 17.3074C84.3184 17.0449 84.8283 16.546 85.0012 15.7802C85.1653 15.067 85.0633 14.38 84.5667 13.8024C84.416 13.6229 84.2386 13.4654 84.0214 13.356C83.6357 13.1635 83.2278 13.0628 82.7933 13.0935C82.5317 13.111 82.2745 13.1547 82.0351 13.2773C81.9864 13.3035 81.9376 13.321 81.8622 13.3516C81.8755 13.2948 81.88 13.2641 81.8888 13.2379C82.075 12.8572 82.1504 12.4502 82.1504 12.0301C82.1504 11.5663 82.0617 11.12 81.8534 10.6999C81.6804 10.3498 81.5208 9.98663 81.3169 9.65844C80.9977 9.14209 80.6474 8.64325 80.3016 8.13565C80.2395 8.04376 80.142 8 80.0444 8C79.9425 8 79.8449 8.04813 79.7829 8.13565C79.4415 8.63887 79.0868 9.13772 78.7676 9.65844C78.5636 9.99101 78.404 10.3498 78.2311 10.6999C78.0227 11.12 77.934 11.5707 77.934 12.0301C77.934 12.4458 78.0094 12.8572 78.1956 13.2379C78.2089 13.2641 78.2089 13.2904 78.2222 13.3516C78.1468 13.3166 78.0981 13.2991 78.0493 13.2773C77.8143 13.1504 77.5527 13.111 77.2912 13.0935C76.8567 13.0628 76.4488 13.1635 76.063 13.356C75.8458 13.4654 75.6685 13.6229 75.5177 13.8024C75.0211 14.38 74.9192 15.067 75.0832 15.7802C75.2606 16.546 75.766 17.0449 76.5064 17.3074C76.5729 17.3293 76.6483 17.3293 76.7325 17.3424C76.7547 17.268 76.7769 17.2155 76.7813 17.163C76.7902 17.0449 76.7902 16.9267 76.799 16.8129C76.8256 16.5022 76.9852 16.2616 77.2468 16.1216C77.7478 15.859 78.2932 15.964 78.6345 16.4541C78.8562 16.7779 78.9316 17.1586 78.9272 17.5524C78.9272 17.6881 78.8917 17.8194 78.8651 17.955C78.7188 18.7077 78.302 19.259 77.5926 19.5697C77.1094 19.7841 76.5995 19.8891 76.0586 19.841C75.7128 19.8104 75.4024 19.6966 75.0965 19.5522C75.0211 19.5172 74.9502 19.4778 74.8881 19.4297C74.6221 19.2284 74.4137 18.9746 74.2586 18.677C74.1566 18.4845 74.1566 18.4539 74.3073 18.2876C74.6576 17.9025 74.7596 17.4387 74.6665 16.953C74.5733 16.476 74.263 16.1347 73.8196 15.9246C73.629 15.8327 73.6068 15.8021 73.6068 15.6008C73.6068 15.3645 73.6467 15.1326 73.7132 14.9051C73.7886 14.6381 73.8462 14.3625 73.9925 14.1174C74.0901 13.9555 74.1699 13.7761 74.2541 13.6054C74.3339 13.4435 74.2763 13.3473 74.099 13.3473C73.8108 13.3473 73.5403 13.3954 73.3319 13.6229C73.3186 13.6405 73.292 13.6492 73.2787 13.658C73.2654 13.6492 73.2566 13.6492 73.2566 13.6448C73.2477 13.6273 73.2388 13.6098 73.2344 13.5923C73.1989 13.2423 73.0881 12.9184 72.9152 12.6121C72.6625 12.1614 72.3033 11.8157 71.86 11.5532C71.6738 11.4438 71.6206 11.4569 71.5097 11.6407C71.3058 11.9864 71.155 12.3408 71.1107 12.7478C71.0664 13.146 71.0974 13.5223 71.1949 13.903C71.2127 13.9686 71.2215 14.0343 71.2393 14.1174C71.1728 14.1174 71.1196 14.1262 71.0664 14.1305C70.9777 14.1305 70.889 14.1305 70.8048 14.1305C70.6452 14.1393 70.4989 14.1874 70.3658 14.2706C70.2284 14.3537 70.2284 14.4762 70.3658 14.5681C70.4412 14.6206 70.521 14.6688 70.6008 14.7213C70.8934 14.9007 71.1683 15.1064 71.4077 15.3558C71.4964 15.452 71.5851 15.5483 71.6605 15.6533C71.7979 15.8415 71.9353 16.034 72.0329 16.2528C71.8644 16.4891 71.7358 16.7254 71.7004 17.0142C71.6649 17.2899 71.6782 17.5568 71.7802 17.815C71.9442 18.2263 72.2324 18.5239 72.6536 18.6814C72.8309 18.7471 72.8664 18.7952 72.8575 18.9877C72.8575 19.1102 72.8531 19.2371 72.8221 19.3553C72.7644 19.5697 72.7157 19.7929 72.6137 19.9898C72.3743 20.458 71.9974 20.7862 71.5053 21.0006C70.9555 21.2369 70.3924 21.285 69.8205 21.1538C69.2397 21.0225 68.7431 20.7381 68.3929 20.2392C68.1047 19.8279 68.0293 19.3903 68.1889 18.9177C68.3042 18.5851 68.5525 18.3751 68.8939 18.3182C69.2707 18.257 69.6033 18.3532 69.8427 18.6683C69.9358 18.7908 70.02 18.9221 70.1131 19.049C70.2727 19.0971 70.3614 18.9702 70.4323 18.8783C70.7338 18.4889 70.8979 18.0425 70.8934 17.5524C70.8934 17.058 70.7471 16.5985 70.4545 16.1959C70.1796 15.8152 69.8072 15.5746 69.3594 15.4608C69.0535 15.382 68.7431 15.3689 68.4328 15.4433C68.0559 15.5308 67.7057 15.6621 67.4264 15.9465C67.3554 16.0209 67.28 16.0865 67.1914 16.1741C67.1869 16.1259 67.1781 16.104 67.1825 16.0778C67.1958 15.8415 67.2224 15.6096 67.2135 15.3733C67.2047 15.1239 67.1382 14.8876 67.0229 14.66C66.8588 14.345 66.646 14.0737 66.3623 13.8592C66.216 13.7455 66.0608 13.6405 65.9012 13.5442C65.6972 13.4217 65.4977 13.2991 65.2805 13.2072C65.0056 13.0891 64.7218 12.9972 64.4337 12.9141C64.0169 12.7959 63.5913 12.6909 63.1701 12.5903C63.0637 12.564 62.9972 12.6296 63.0105 12.7347C63.0193 12.7915 63.0504 12.8484 63.0814 12.9009C63.3918 13.4173 63.7243 13.9205 64.0213 14.4456" fill="url(#paint19_radial_11370_1755)"/>
<path d="M91.665 26.1028C91.7935 25.7353 91.9177 25.3633 92.0507 24.9957C92.1881 24.6107 92.3344 24.23 92.4763 23.8449C92.5428 23.6655 92.6004 23.4817 92.6537 23.2979C92.667 23.2585 92.6581 23.2104 92.6625 23.1666C92.6448 23.1579 92.627 23.1535 92.6137 23.1448C92.5472 23.1798 92.4852 23.2148 92.4187 23.2498C91.8778 23.5605 91.3058 23.7749 90.694 23.9062C90.1886 24.0156 89.6743 24.0331 89.1688 23.9893C88.6412 23.9412 88.1225 23.823 87.6348 23.5999C87.3289 23.4598 87.0496 23.2892 86.7791 23.101C86.6018 22.9785 86.4554 22.8122 86.2914 22.6634C86.1673 22.5497 86.0387 22.4403 85.8924 22.309C85.8702 22.3177 85.8126 22.3309 85.7549 22.3571C85.3337 22.5497 84.9037 22.7203 84.447 22.7903C84.0657 22.8516 83.68 22.8997 83.2898 22.8822C82.8953 22.8647 82.5051 22.8166 82.1238 22.7116C81.5031 22.5409 80.9356 22.2608 80.4479 21.8364C80.377 21.7751 80.3149 21.7051 80.2484 21.6395C80.1819 21.5651 80.1021 21.5432 79.9957 21.5432C79.8937 21.5432 79.8139 21.5695 79.7429 21.6395C79.6809 21.7095 79.6144 21.7751 79.5434 21.8364C79.0557 22.2652 78.4838 22.5409 77.8675 22.7116C77.4907 22.8166 77.0961 22.8647 76.7015 22.8822C76.3113 22.8997 75.93 22.8472 75.5443 22.7903C75.0832 22.7159 74.6532 22.5497 74.232 22.3571C74.1788 22.3309 74.1167 22.3177 74.0945 22.309C73.9438 22.4403 73.8196 22.554 73.6955 22.6634C73.5359 22.8078 73.3851 22.9741 73.2078 23.101C72.9373 23.2892 72.658 23.4642 72.3521 23.5999C71.8644 23.823 71.3457 23.9412 70.8181 23.9893C70.3082 24.0331 69.7983 24.0199 69.2929 23.9062C68.6811 23.7749 68.1091 23.5605 67.5682 23.2498C67.5062 23.2148 67.4397 23.1798 67.3731 23.1448C67.3554 23.1535 67.3377 23.1579 67.3244 23.1666C67.3244 23.2104 67.3199 23.2585 67.3332 23.2979C67.3909 23.4817 67.4485 23.6655 67.5106 23.8449C67.6525 24.23 67.7988 24.6107 67.9362 24.9957C68.0692 25.3633 68.1889 25.7353 68.3219 26.1028C68.3574 26.1991 68.384 26.3085 68.5392 26.3304C68.6057 26.2997 68.6899 26.2604 68.7742 26.221C69.2796 25.9847 69.8028 25.8053 70.3392 25.6521C71.0309 25.4508 71.7314 25.267 72.4452 25.1314C72.7201 25.0789 72.995 25.0264 73.2743 24.9782C73.5669 24.9257 73.864 24.8776 74.1566 24.8338C74.4049 24.7945 74.6487 24.7595 74.897 24.7288C75.132 24.6982 75.367 24.7113 75.6019 24.6588C75.8901 24.5975 76.1961 24.5932 76.4931 24.5713C76.9054 24.5407 77.3133 24.5144 77.7256 24.4925C78.2089 24.4706 78.6877 24.4531 79.171 24.4488C79.4415 24.4488 79.7163 24.4444 79.9868 24.4444C80.2572 24.4444 80.5321 24.4444 80.8026 24.4488C81.2858 24.4531 81.7647 24.4706 82.2479 24.4925C82.6603 24.51 83.0726 24.5407 83.4805 24.5713C83.7775 24.5932 84.0835 24.5975 84.3716 24.6588C84.6066 24.7113 84.8416 24.6982 85.0766 24.7288C85.3249 24.7595 85.5687 24.7945 85.817 24.8338C86.1096 24.882 86.4067 24.9301 86.6993 24.9782C86.9742 25.0264 87.2535 25.0789 87.5284 25.1314C88.2422 25.2627 88.9383 25.4465 89.6344 25.6521C90.1664 25.8097 90.694 25.9847 91.195 26.221C91.2792 26.2604 91.3635 26.2997 91.4344 26.3304C91.5896 26.3085 91.6162 26.1991 91.6517 26.1028" fill="url(#paint20_radial_11370_1755)"/>
<path d="M90.7605 27.0349C90.193 26.8073 89.6166 26.6061 89.0181 26.4617C88.6146 26.361 88.2112 26.2604 87.8033 26.1685C87.4841 26.0941 87.1604 26.0241 86.8412 25.9672C86.5486 25.9147 86.2515 25.8797 85.9545 25.8315C85.7948 25.8053 85.6352 25.7703 85.4801 25.744C85.3559 25.7221 85.2318 25.7046 85.1076 25.6959C84.9259 25.6784 84.7485 25.6696 84.5667 25.6565C84.4426 25.6477 84.3184 25.6259 84.1943 25.6171C83.7775 25.5777 83.3608 25.5383 82.944 25.5033C82.7401 25.4858 82.5317 25.4815 82.3233 25.4771C82.0174 25.464 81.7115 25.4465 81.4056 25.4377C80.9356 25.429 80.4656 25.4158 79.9957 25.4115C79.5257 25.4158 79.0557 25.429 78.5858 25.4377C78.2799 25.4465 77.9739 25.464 77.668 25.4771C77.4641 25.4858 77.2557 25.4902 77.0517 25.5033C76.635 25.5383 76.2182 25.5777 75.8015 25.6171C75.6773 25.6302 75.5532 25.6477 75.429 25.6565C75.2473 25.674 75.0699 25.6784 74.8881 25.6959C74.764 25.709 74.6399 25.7265 74.5157 25.744C74.3561 25.7703 74.2009 25.8053 74.0413 25.8315C73.7443 25.8797 73.4472 25.9147 73.1546 25.9672C72.8309 26.0284 72.5117 26.0985 72.1881 26.1685C71.7802 26.2647 71.3767 26.3654 70.9732 26.4617C70.3791 26.6061 69.8028 26.8117 69.2308 27.0349C69.0757 27.0961 68.9293 27.188 68.8052 27.2974C68.7298 27.3587 68.6899 27.4725 68.6678 27.5731C68.6412 27.6781 68.6412 27.7963 68.6589 27.9057C68.7476 28.4527 69.2131 28.6846 69.7052 28.5052C70.1442 28.3433 70.5787 28.1726 71.0265 28.0326C71.4521 27.8969 71.891 27.7963 72.3255 27.6869C72.5294 27.6344 72.7423 27.5994 72.9462 27.56C73.2255 27.5075 73.5048 27.455 73.7886 27.4068C73.9792 27.3762 74.1699 27.3499 74.3605 27.3237C74.8172 27.2624 75.2739 27.1968 75.7305 27.1399C75.8369 27.1268 75.9433 27.1399 76.0497 27.1224C76.267 27.0961 76.4798 27.0524 76.6971 27.0349C77.0783 27.0043 77.4552 26.9736 77.8365 26.9561C78.3109 26.9342 78.7853 26.9211 79.2597 26.9124C79.5035 26.908 79.7474 26.908 79.9912 26.9124C80.2351 26.9124 80.4789 26.908 80.7228 26.9124C81.1972 26.9255 81.6716 26.9342 82.146 26.9561C82.5273 26.9736 82.9041 26.9999 83.2854 27.0349C83.5027 27.0524 83.7155 27.0961 83.9327 27.1224C84.0391 27.1355 84.1455 27.1224 84.2519 27.1399C84.7086 27.1968 85.1653 27.2624 85.6219 27.3237C85.8126 27.3499 86.0032 27.3718 86.1939 27.4068C86.4732 27.455 86.7525 27.5075 87.0318 27.56C87.2402 27.5994 87.4486 27.6344 87.6525 27.6869C88.087 27.7963 88.5259 27.9013 88.9516 28.0326C89.3949 28.1726 89.8339 28.3433 90.2728 28.5052C90.7605 28.6846 91.226 28.4483 91.3191 27.9057C91.3369 27.7963 91.3369 27.6781 91.3103 27.5731C91.2881 27.4768 91.2438 27.3631 91.1728 27.2974C91.0487 27.1924 90.8979 27.0961 90.7472 27.0349" fill="url(#paint21_radial_11370_1755)"/>
<path d="M28.109 115.781L30.5431 110.25H30.6007L33.0348 115.781H31.8022L31.3855 114.74H29.5987L29.1598 115.781H28.109ZM29.9711 113.856H31.0352L30.5165 112.561L29.9756 113.856H29.9711Z" fill="url(#paint22_radial_11370_1755)"/>
<path d="M41.2104 116L37.4373 112.635L37.4595 115.781H36.3821V110.25H36.4265L40.1951 113.663L40.1729 110.46H41.2414V116H41.2104Z" fill="url(#paint23_radial_11370_1755)"/>
<path d="M46.2647 110.46H45.2006V115.781H46.2647V110.46Z" fill="url(#paint24_radial_11370_1755)"/>
<path d="M50.2195 115.781V110.241H50.2239L52.9594 114.066L55.7571 110.241H55.7748V115.781H54.7107V113.243L52.9506 115.711H52.9373L51.2436 113.401V115.781H50.2195Z" fill="url(#paint25_radial_11370_1755)"/>
<path d="M59.1222 115.781L61.5562 110.25H61.6139L64.0479 115.781H62.8154L62.3986 114.74H60.6119L60.1729 115.781H59.1222ZM60.9843 113.856H62.0484L61.5296 112.561L60.9887 113.856H60.9843Z" fill="url(#paint26_radial_11370_1755)"/>
<path d="M67.3953 110.46H68.4594V114.77H70.991V115.781H67.3953V110.46Z" fill="url(#paint27_radial_11370_1755)"/>
<path d="M80.6784 112.355L80.6518 112.622L80.8115 112.421L82.5716 110.46H83.9505L81.7203 112.845L83.9549 115.781H82.6071L80.9445 113.51L80.6784 113.773V115.781H79.6055V110.46H80.6784V112.355Z" fill="url(#paint28_radial_11370_1755)"/>
<path d="M88.3929 110.46H87.3289V115.781H88.3929V110.46Z" fill="url(#paint29_radial_11370_1755)"/>
<path d="M97.1759 116L93.4029 112.635L93.4251 115.781H92.3477V110.25H92.3921L96.1562 113.663L96.134 110.46H97.207V116H97.1759Z" fill="url(#paint30_radial_11370_1755)"/>
<path d="M105.538 115.247C105.476 115.317 105.374 115.383 105.236 115.453C105.099 115.523 104.944 115.589 104.762 115.646C104.585 115.702 104.403 115.751 104.217 115.786C104.03 115.821 103.853 115.838 103.689 115.838C103.108 115.838 102.603 115.729 102.173 115.506C101.743 115.282 101.41 114.98 101.18 114.595C100.949 114.21 100.829 113.768 100.829 113.274C100.829 112.779 100.905 112.364 101.051 112.005C101.202 111.646 101.401 111.348 101.658 111.108C101.915 110.867 102.213 110.692 102.545 110.578C102.878 110.46 103.228 110.403 103.596 110.403C103.942 110.403 104.261 110.443 104.549 110.517C104.837 110.591 105.081 110.683 105.281 110.797L104.935 111.773C104.846 111.725 104.731 111.677 104.585 111.629C104.438 111.58 104.287 111.541 104.137 111.51C103.986 111.48 103.853 111.462 103.733 111.462C103.152 111.462 102.705 111.607 102.394 111.891C102.084 112.18 101.924 112.609 101.924 113.182C101.924 113.515 102 113.803 102.15 114.044C102.301 114.285 102.514 114.473 102.784 114.6C103.055 114.731 103.365 114.797 103.711 114.797C103.862 114.797 104.004 114.784 104.128 114.766C104.256 114.744 104.363 114.709 104.452 114.661V114.018H103.52V113.003H105.529V115.252L105.538 115.247Z" fill="url(#paint31_radial_11370_1755)"/>
<path d="M109.311 115.781V110.46H110.925C111.465 110.46 111.931 110.539 112.308 110.701C112.689 110.858 112.995 111.073 113.226 111.335C113.456 111.602 113.629 111.895 113.736 112.224C113.842 112.552 113.895 112.88 113.895 113.213C113.895 113.606 113.824 113.965 113.678 114.28C113.536 114.595 113.336 114.867 113.088 115.09C112.84 115.313 112.552 115.484 112.224 115.602C111.896 115.72 111.55 115.781 111.182 115.781H109.306H109.311ZM110.375 114.77H111.004C111.541 114.77 111.975 114.635 112.303 114.359C112.632 114.083 112.8 113.681 112.8 113.143C112.8 112.797 112.742 112.512 112.627 112.294C112.512 112.075 112.37 111.904 112.201 111.786C112.033 111.664 111.86 111.58 111.687 111.537C111.51 111.493 111.364 111.467 111.239 111.467H110.375V114.77Z" fill="url(#paint32_radial_11370_1755)"/>
<path d="M117.194 113.129C117.194 112.762 117.265 112.416 117.407 112.088C117.548 111.76 117.744 111.471 117.996 111.217C118.249 110.963 118.542 110.767 118.87 110.622C119.202 110.478 119.557 110.403 119.938 110.403C120.319 110.403 120.67 110.473 121.002 110.622C121.335 110.767 121.627 110.968 121.885 111.217C122.142 111.471 122.341 111.76 122.487 112.088C122.629 112.416 122.705 112.762 122.705 113.129C122.705 113.497 122.634 113.856 122.487 114.184C122.341 114.512 122.142 114.801 121.885 115.05C121.627 115.3 121.335 115.492 121.002 115.632C120.67 115.772 120.315 115.842 119.938 115.842C119.561 115.842 119.202 115.772 118.87 115.632C118.537 115.492 118.245 115.3 117.996 115.05C117.744 114.801 117.548 114.512 117.407 114.184C117.265 113.856 117.194 113.506 117.194 113.129ZM118.293 113.129C118.293 113.445 118.369 113.729 118.515 113.987C118.666 114.245 118.865 114.451 119.118 114.604C119.371 114.757 119.659 114.832 119.974 114.832C120.288 114.832 120.559 114.757 120.807 114.604C121.055 114.451 121.251 114.245 121.388 113.987C121.53 113.729 121.601 113.445 121.601 113.129C121.601 112.814 121.525 112.517 121.379 112.259C121.233 112 121.033 111.795 120.785 111.646C120.537 111.493 120.253 111.418 119.943 111.418C119.632 111.418 119.348 111.493 119.1 111.646C118.852 111.799 118.652 112.005 118.506 112.259C118.36 112.517 118.284 112.806 118.284 113.129H118.293Z" fill="url(#paint33_radial_11370_1755)"/>
<path d="M126.331 115.781V110.241H126.34L129.076 114.066L131.873 110.241H131.887V115.781H130.827V113.243L129.067 115.711H129.054L127.36 113.401V115.781H126.331Z" fill="url(#paint34_radial_11370_1755)"/>
</g>
<defs>
<filter id="filter0_d_11370_1755" x="20.4521" y="8" width="119.096" height="108.75" filterUnits="userSpaceOnUse" color-interpolation-filters="sRGB">
<feFlood flood-opacity="0" result="BackgroundImageFix"/>
<feColorMatrix in="SourceAlpha" type="matrix" values="0 0 0 0 0 0 0 0 0 0 0 0 0 0 0 0 0 0 127 0" result="hardAlpha"/>
<feOffset dy="0.75"/>
<feComposite in2="hardAlpha" operator="out"/>
<feColorMatrix type="matrix" values="0 0 0 0 0.704167 0 0 0 0 0.584632 0 0 0 0 0.381424 0 0 0 1 0"/>
<feBlend mode="normal" in2="BackgroundImageFix" result="effect1_dropShadow_11370_1755"/>
<feBlend mode="normal" in="SourceGraphic" in2="effect1_dropShadow_11370_1755" result="shape"/>
</filter>
<radialGradient id="paint0_radial_11370_1755" cx="0" cy="0" r="1" gradientUnits="userSpaceOnUse" gradientTransform="translate(-15.9035 120.459) rotate(-62.6857) scale(240.584 263.855)">
<stop stop-color="#C1993A"/>
<stop offset="0.130208" stop-color="#F1E3BB"/>
<stop offset="0.291667" stop-color="#AA895F"/>
<stop offset="0.484375" stop-color="#E5CF81"/>
<stop offset="0.723958" stop-color="#F1E3BB"/>
<stop offset="1" stop-color="#C1993A"/>
</radialGradient>
<radialGradient id="paint1_radial_11370_1755" cx="0" cy="0" r="1" gradientUnits="userSpaceOnUse" gradientTransform="translate(-15.9035 120.459) rotate(-62.6857) scale(240.584 263.855)">
<stop stop-color="#C1993A"/>
<stop offset="0.130208" stop-color="#F1E3BB"/>
<stop offset="0.291667" stop-color="#AA895F"/>
<stop offset="0.484375" stop-color="#E5CF81"/>
<stop offset="0.723958" stop-color="#F1E3BB"/>
<stop offset="1" stop-color="#C1993A"/>
</radialGradient>
<radialGradient id="paint2_radial_11370_1755" cx="0" cy="0" r="1" gradientUnits="userSpaceOnUse" gradientTransform="translate(-15.9035 120.459) rotate(-62.6857) scale(240.584 263.855)">
<stop stop-color="#C1993A"/>
<stop offset="0.130208" stop-color="#F1E3BB"/>
<stop offset="0.291667" stop-color="#AA895F"/>
<stop offset="0.484375" stop-color="#E5CF81"/>
<stop offset="0.723958" stop-color="#F1E3BB"/>
<stop offset="1" stop-color="#C1993A"/>
</radialGradient>
<radialGradient id="paint3_radial_11370_1755" cx="0" cy="0" r="1" gradientUnits="userSpaceOnUse" gradientTransform="translate(-15.9035 120.459) rotate(-62.6857) scale(240.584 263.855)">
<stop stop-color="#C1993A"/>
<stop offset="0.130208" stop-color="#F1E3BB"/>
<stop offset="0.291667" stop-color="#AA895F"/>
<stop offset="0.484375" stop-color="#E5CF81"/>
<stop offset="0.723958" stop-color="#F1E3BB"/>
<stop offset="1" stop-color="#C1993A"/>
</radialGradient>
<radialGradient id="paint4_radial_11370_1755" cx="0" cy="0" r="1" gradientUnits="userSpaceOnUse" gradientTransform="translate(-15.9035 120.459) rotate(-62.6857) scale(240.584 263.855)">
<stop stop-color="#C1993A"/>
<stop offset="0.130208" stop-color="#F1E3BB"/>
<stop offset="0.291667" stop-color="#AA895F"/>
<stop offset="0.484375" stop-color="#E5CF81"/>
<stop offset="0.723958" stop-color="#F1E3BB"/>
<stop offset="1" stop-color="#C1993A"/>
</radialGradient>
<radialGradient id="paint5_radial_11370_1755" cx="0" cy="0" r="1" gradientUnits="userSpaceOnUse" gradientTransform="translate(-15.9035 120.459) rotate(-62.6857) scale(240.584 263.855)">
<stop stop-color="#C1993A"/>
<stop offset="0.130208" stop-color="#F1E3BB"/>
<stop offset="0.291667" stop-color="#AA895F"/>
<stop offset="0.484375" stop-color="#E5CF81"/>
<stop offset="0.723958" stop-color="#F1E3BB"/>
<stop offset="1" stop-color="#C1993A"/>
</radialGradient>
<radialGradient id="paint6_radial_11370_1755" cx="0" cy="0" r="1" gradientUnits="userSpaceOnUse" gradientTransform="translate(-15.9035 120.459) rotate(-62.6857) scale(240.584 263.855)">
<stop stop-color="#C1993A"/>
<stop offset="0.130208" stop-color="#F1E3BB"/>
<stop offset="0.291667" stop-color="#AA895F"/>
<stop offset="0.484375" stop-color="#E5CF81"/>
<stop offset="0.723958" stop-color="#F1E3BB"/>
<stop offset="1" stop-color="#C1993A"/>
</radialGradient>
<radialGradient id="paint7_radial_11370_1755" cx="0" cy="0" r="1" gradientUnits="userSpaceOnUse" gradientTransform="translate(-15.9035 120.459) rotate(-62.6857) scale(240.584 263.855)">
<stop stop-color="#C1993A"/>
<stop offset="0.130208" stop-color="#F1E3BB"/>
<stop offset="0.291667" stop-color="#AA895F"/>
<stop offset="0.484375" stop-color="#E5CF81"/>
<stop offset="0.723958" stop-color="#F1E3BB"/>
<stop offset="1" stop-color="#C1993A"/>
</radialGradient>
<radialGradient id="paint8_radial_11370_1755" cx="0" cy="0" r="1" gradientUnits="userSpaceOnUse" gradientTransform="translate(-15.9035 120.459) rotate(-62.6857) scale(240.584 263.855)">
<stop stop-color="#C1993A"/>
<stop offset="0.130208" stop-color="#F1E3BB"/>
<stop offset="0.291667" stop-color="#AA895F"/>
<stop offset="0.484375" stop-color="#E5CF81"/>
<stop offset="0.723958" stop-color="#F1E3BB"/>
<stop offset="1" stop-color="#C1993A"/>
</radialGradient>
<radialGradient id="paint9_radial_11370_1755" cx="0" cy="0" r="1" gradientUnits="userSpaceOnUse" gradientTransform="translate(-15.9035 120.459) rotate(-62.6857) scale(240.584 263.855)">
<stop stop-color="#C1993A"/>
<stop offset="0.130208" stop-color="#F1E3BB"/>
<stop offset="0.291667" stop-color="#AA895F"/>
<stop offset="0.484375" stop-color="#E5CF81"/>
<stop offset="0.723958" stop-color="#F1E3BB"/>
<stop offset="1" stop-color="#C1993A"/>
</radialGradient>
<radialGradient id="paint10_radial_11370_1755" cx="0" cy="0" r="1" gradientUnits="userSpaceOnUse" gradientTransform="translate(-15.9035 120.459) rotate(-62.6857) scale(240.584 263.855)">
<stop stop-color="#C1993A"/>
<stop offset="0.130208" stop-color="#F1E3BB"/>
<stop offset="0.291667" stop-color="#AA895F"/>
<stop offset="0.484375" stop-color="#E5CF81"/>
<stop offset="0.723958" stop-color="#F1E3BB"/>
<stop offset="1" stop-color="#C1993A"/>
</radialGradient>
<radialGradient id="paint11_radial_11370_1755" cx="0" cy="0" r="1" gradientUnits="userSpaceOnUse" gradientTransform="translate(-15.9035 120.459) rotate(-62.6857) scale(240.584 263.855)">
<stop stop-color="#C1993A"/>
<stop offset="0.130208" stop-color="#F1E3BB"/>
<stop offset="0.291667" stop-color="#AA895F"/>
<stop offset="0.484375" stop-color="#E5CF81"/>
<stop offset="0.723958" stop-color="#F1E3BB"/>
<stop offset="1" stop-color="#C1993A"/>
</radialGradient>
<radialGradient id="paint12_radial_11370_1755" cx="0" cy="0" r="1" gradientUnits="userSpaceOnUse" gradientTransform="translate(-15.9035 120.459) rotate(-62.6857) scale(240.584 263.855)">
<stop stop-color="#C1993A"/>
<stop offset="0.130208" stop-color="#F1E3BB"/>
<stop offset="0.291667" stop-color="#AA895F"/>
<stop offset="0.484375" stop-color="#E5CF81"/>
<stop offset="0.723958" stop-color="#F1E3BB"/>
<stop offset="1" stop-color="#C1993A"/>
</radialGradient>
<radialGradient id="paint13_radial_11370_1755" cx="0" cy="0" r="1" gradientUnits="userSpaceOnUse" gradientTransform="translate(-15.9035 120.459) rotate(-62.6857) scale(240.584 263.855)">
<stop stop-color="#C1993A"/>
<stop offset="0.130208" stop-color="#F1E3BB"/>
<stop offset="0.291667" stop-color="#AA895F"/>
<stop offset="0.484375" stop-color="#E5CF81"/>
<stop offset="0.723958" stop-color="#F1E3BB"/>
<stop offset="1" stop-color="#C1993A"/>
</radialGradient>
<radialGradient id="paint14_radial_11370_1755" cx="0" cy="0" r="1" gradientUnits="userSpaceOnUse" gradientTransform="translate(-15.9035 120.459) rotate(-62.6857) scale(240.584 263.855)">
<stop stop-color="#C1993A"/>
<stop offset="0.130208" stop-color="#F1E3BB"/>
<stop offset="0.291667" stop-color="#AA895F"/>
<stop offset="0.484375" stop-color="#E5CF81"/>
<stop offset="0.723958" stop-color="#F1E3BB"/>
<stop offset="1" stop-color="#C1993A"/>
</radialGradient>
<radialGradient id="paint15_radial_11370_1755" cx="0" cy="0" r="1" gradientUnits="userSpaceOnUse" gradientTransform="translate(-15.9035 120.459) rotate(-62.6857) scale(240.584 263.855)">
<stop stop-color="#C1993A"/>
<stop offset="0.130208" stop-color="#F1E3BB"/>
<stop offset="0.291667" stop-color="#AA895F"/>
<stop offset="0.484375" stop-color="#E5CF81"/>
<stop offset="0.723958" stop-color="#F1E3BB"/>
<stop offset="1" stop-color="#C1993A"/>
</radialGradient>
<radialGradient id="paint16_radial_11370_1755" cx="0" cy="0" r="1" gradientUnits="userSpaceOnUse" gradientTransform="translate(-15.9035 120.459) rotate(-62.6857) scale(240.584 263.855)">
<stop stop-color="#C1993A"/>
<stop offset="0.130208" stop-color="#F1E3BB"/>
<stop offset="0.291667" stop-color="#AA895F"/>
<stop offset="0.484375" stop-color="#E5CF81"/>
<stop offset="0.723958" stop-color="#F1E3BB"/>
<stop offset="1" stop-color="#C1993A"/>
</radialGradient>
<radialGradient id="paint17_radial_11370_1755" cx="0" cy="0" r="1" gradientUnits="userSpaceOnUse" gradientTransform="translate(-15.9035 120.459) rotate(-62.6857) scale(240.584 263.855)">
<stop stop-color="#C1993A"/>
<stop offset="0.130208" stop-color="#F1E3BB"/>
<stop offset="0.291667" stop-color="#AA895F"/>
<stop offset="0.484375" stop-color="#E5CF81"/>
<stop offset="0.723958" stop-color="#F1E3BB"/>
<stop offset="1" stop-color="#C1993A"/>
</radialGradient>
<radialGradient id="paint18_radial_11370_1755" cx="0" cy="0" r="1" gradientUnits="userSpaceOnUse" gradientTransform="translate(-15.9035 120.459) rotate(-62.6857) scale(240.584 263.855)">
<stop stop-color="#C1993A"/>
<stop offset="0.130208" stop-color="#F1E3BB"/>
<stop offset="0.291667" stop-color="#AA895F"/>
<stop offset="0.484375" stop-color="#E5CF81"/>
<stop offset="0.723958" stop-color="#F1E3BB"/>
<stop offset="1" stop-color="#C1993A"/>
</radialGradient>
<radialGradient id="paint19_radial_11370_1755" cx="0" cy="0" r="1" gradientUnits="userSpaceOnUse" gradientTransform="translate(-15.9035 120.459) rotate(-62.6857) scale(240.584 263.855)">
<stop stop-color="#C1993A"/>
<stop offset="0.130208" stop-color="#F1E3BB"/>
<stop offset="0.291667" stop-color="#AA895F"/>
<stop offset="0.484375" stop-color="#E5CF81"/>
<stop offset="0.723958" stop-color="#F1E3BB"/>
<stop offset="1" stop-color="#C1993A"/>
</radialGradient>
<radialGradient id="paint20_radial_11370_1755" cx="0" cy="0" r="1" gradientUnits="userSpaceOnUse" gradientTransform="translate(-15.9035 120.459) rotate(-62.6857) scale(240.584 263.855)">
<stop stop-color="#C1993A"/>
<stop offset="0.130208" stop-color="#F1E3BB"/>
<stop offset="0.291667" stop-color="#AA895F"/>
<stop offset="0.484375" stop-color="#E5CF81"/>
<stop offset="0.723958" stop-color="#F1E3BB"/>
<stop offset="1" stop-color="#C1993A"/>
</radialGradient>
<radialGradient id="paint21_radial_11370_1755" cx="0" cy="0" r="1" gradientUnits="userSpaceOnUse" gradientTransform="translate(-15.9035 120.459) rotate(-62.6857) scale(240.584 263.855)">
<stop stop-color="#C1993A"/>
<stop offset="0.130208" stop-color="#F1E3BB"/>
<stop offset="0.291667" stop-color="#AA895F"/>
<stop offset="0.484375" stop-color="#E5CF81"/>
<stop offset="0.723958" stop-color="#F1E3BB"/>
<stop offset="1" stop-color="#C1993A"/>
</radialGradient>
<radialGradient id="paint22_radial_11370_1755" cx="0" cy="0" r="1" gradientUnits="userSpaceOnUse" gradientTransform="translate(-15.9035 120.459) rotate(-62.6857) scale(240.584 263.855)">
<stop stop-color="#C1993A"/>
<stop offset="0.130208" stop-color="#F1E3BB"/>
<stop offset="0.291667" stop-color="#AA895F"/>
<stop offset="0.484375" stop-color="#E5CF81"/>
<stop offset="0.723958" stop-color="#F1E3BB"/>
<stop offset="1" stop-color="#C1993A"/>
</radialGradient>
<radialGradient id="paint23_radial_11370_1755" cx="0" cy="0" r="1" gradientUnits="userSpaceOnUse" gradientTransform="translate(-15.9035 120.459) rotate(-62.6857) scale(240.584 263.855)">
<stop stop-color="#C1993A"/>
<stop offset="0.130208" stop-color="#F1E3BB"/>
<stop offset="0.291667" stop-color="#AA895F"/>
<stop offset="0.484375" stop-color="#E5CF81"/>
<stop offset="0.723958" stop-color="#F1E3BB"/>
<stop offset="1" stop-color="#C1993A"/>
</radialGradient>
<radialGradient id="paint24_radial_11370_1755" cx="0" cy="0" r="1" gradientUnits="userSpaceOnUse" gradientTransform="translate(-15.9035 120.459) rotate(-62.6857) scale(240.584 263.855)">
<stop stop-color="#C1993A"/>
<stop offset="0.130208" stop-color="#F1E3BB"/>
<stop offset="0.291667" stop-color="#AA895F"/>
<stop offset="0.484375" stop-color="#E5CF81"/>
<stop offset="0.723958" stop-color="#F1E3BB"/>
<stop offset="1" stop-color="#C1993A"/>
</radialGradient>
<radialGradient id="paint25_radial_11370_1755" cx="0" cy="0" r="1" gradientUnits="userSpaceOnUse" gradientTransform="translate(-15.9035 120.459) rotate(-62.6857) scale(240.584 263.855)">
<stop stop-color="#C1993A"/>
<stop offset="0.130208" stop-color="#F1E3BB"/>
<stop offset="0.291667" stop-color="#AA895F"/>
<stop offset="0.484375" stop-color="#E5CF81"/>
<stop offset="0.723958" stop-color="#F1E3BB"/>
<stop offset="1" stop-color="#C1993A"/>
</radialGradient>
<radialGradient id="paint26_radial_11370_1755" cx="0" cy="0" r="1" gradientUnits="userSpaceOnUse" gradientTransform="translate(-15.9035 120.459) rotate(-62.6857) scale(240.584 263.855)">
<stop stop-color="#C1993A"/>
<stop offset="0.130208" stop-color="#F1E3BB"/>
<stop offset="0.291667" stop-color="#AA895F"/>
<stop offset="0.484375" stop-color="#E5CF81"/>
<stop offset="0.723958" stop-color="#F1E3BB"/>
<stop offset="1" stop-color="#C1993A"/>
</radialGradient>
<radialGradient id="paint27_radial_11370_1755" cx="0" cy="0" r="1" gradientUnits="userSpaceOnUse" gradientTransform="translate(-15.9035 120.459) rotate(-62.6857) scale(240.584 263.855)">
<stop stop-color="#C1993A"/>
<stop offset="0.130208" stop-color="#F1E3BB"/>
<stop offset="0.291667" stop-color="#AA895F"/>
<stop offset="0.484375" stop-color="#E5CF81"/>
<stop offset="0.723958" stop-color="#F1E3BB"/>
<stop offset="1" stop-color="#C1993A"/>
</radialGradient>
<radialGradient id="paint28_radial_11370_1755" cx="0" cy="0" r="1" gradientUnits="userSpaceOnUse" gradientTransform="translate(-15.9035 120.459) rotate(-62.6857) scale(240.584 263.855)">
<stop stop-color="#C1993A"/>
<stop offset="0.130208" stop-color="#F1E3BB"/>
<stop offset="0.291667" stop-color="#AA895F"/>
<stop offset="0.484375" stop-color="#E5CF81"/>
<stop offset="0.723958" stop-color="#F1E3BB"/>
<stop offset="1" stop-color="#C1993A"/>
</radialGradient>
<radialGradient id="paint29_radial_11370_1755" cx="0" cy="0" r="1" gradientUnits="userSpaceOnUse" gradientTransform="translate(-15.9035 120.459) rotate(-62.6857) scale(240.584 263.855)">
<stop stop-color="#C1993A"/>
<stop offset="0.130208" stop-color="#F1E3BB"/>
<stop offset="0.291667" stop-color="#AA895F"/>
<stop offset="0.484375" stop-color="#E5CF81"/>
<stop offset="0.723958" stop-color="#F1E3BB"/>
<stop offset="1" stop-color="#C1993A"/>
</radialGradient>
<radialGradient id="paint30_radial_11370_1755" cx="0" cy="0" r="1" gradientUnits="userSpaceOnUse" gradientTransform="translate(-15.9035 120.459) rotate(-62.6857) scale(240.584 263.855)">
<stop stop-color="#C1993A"/>
<stop offset="0.130208" stop-color="#F1E3BB"/>
<stop offset="0.291667" stop-color="#AA895F"/>
<stop offset="0.484375" stop-color="#E5CF81"/>
<stop offset="0.723958" stop-color="#F1E3BB"/>
<stop offset="1" stop-color="#C1993A"/>
</radialGradient>
<radialGradient id="paint31_radial_11370_1755" cx="0" cy="0" r="1" gradientUnits="userSpaceOnUse" gradientTransform="translate(-15.9035 120.459) rotate(-62.6857) scale(240.584 263.855)">
<stop stop-color="#C1993A"/>
<stop offset="0.130208" stop-color="#F1E3BB"/>
<stop offset="0.291667" stop-color="#AA895F"/>
<stop offset="0.484375" stop-color="#E5CF81"/>
<stop offset="0.723958" stop-color="#F1E3BB"/>
<stop offset="1" stop-color="#C1993A"/>
</radialGradient>
<radialGradient id="paint32_radial_11370_1755" cx="0" cy="0" r="1" gradientUnits="userSpaceOnUse" gradientTransform="translate(-15.9035 120.459) rotate(-62.6857) scale(240.584 263.855)">
<stop stop-color="#C1993A"/>
<stop offset="0.130208" stop-color="#F1E3BB"/>
<stop offset="0.291667" stop-color="#AA895F"/>
<stop offset="0.484375" stop-color="#E5CF81"/>
<stop offset="0.723958" stop-color="#F1E3BB"/>
<stop offset="1" stop-color="#C1993A"/>
</radialGradient>
<radialGradient id="paint33_radial_11370_1755" cx="0" cy="0" r="1" gradientUnits="userSpaceOnUse" gradientTransform="translate(-15.9035 120.459) rotate(-62.6857) scale(240.584 263.855)">
<stop stop-color="#C1993A"/>
<stop offset="0.130208" stop-color="#F1E3BB"/>
<stop offset="0.291667" stop-color="#AA895F"/>
<stop offset="0.484375" stop-color="#E5CF81"/>
<stop offset="0.723958" stop-color="#F1E3BB"/>
<stop offset="1" stop-color="#C1993A"/>
</radialGradient>
<radialGradient id="paint34_radial_11370_1755" cx="0" cy="0" r="1" gradientUnits="userSpaceOnUse" gradientTransform="translate(-15.9035 120.459) rotate(-62.6857) scale(240.584 263.855)">
<stop stop-color="#C1993A"/>
<stop offset="0.130208" stop-color="#F1E3BB"/>
<stop offset="0.291667" stop-color="#AA895F"/>
<stop offset="0.484375" stop-color="#E5CF81"/>
<stop offset="0.723958" stop-color="#F1E3BB"/>
<stop offset="1" stop-color="#C1993A"/>
</radialGradient>
</defs>
</svg>
