<svg width="18" height="14" viewBox="0 0 18 14" fill="none" xmlns="http://www.w3.org/2000/svg">
<path d="M2.33317 13.6673C1.87484 13.6673 1.48248 13.5041 1.15609 13.1777C0.829698 12.8513 0.666504 12.459 0.666504 12.0007V2.00065C0.666504 1.54232 0.829698 1.14996 1.15609 0.823568C1.48248 0.497179 1.87484 0.333984 2.33317 0.333984H12.3332C12.7915 0.333984 13.1839 0.497179 13.5103 0.823568C13.8366 1.14996 13.9998 1.54232 13.9998 2.00065V5.75065L17.3332 2.41732V11.584L13.9998 8.25065V12.0007C13.9998 12.459 13.8366 12.8513 13.5103 13.1777C13.1839 13.5041 12.7915 13.6673 12.3332 13.6673H2.33317Z" fill="white"/>
</svg>
