<svg width="16" height="20" viewBox="0 0 16 20" fill="none" xmlns="http://www.w3.org/2000/svg">
<path d="M7.25 12.75V15C7.25 15.2125 7.3219 15.3906 7.4657 15.5343C7.60952 15.6781 7.78772 15.75 8.0003 15.75C8.2129 15.75 8.39099 15.6781 8.53458 15.5343C8.67816 15.3906 8.74995 15.2125 8.74995 15V12.75H11C11.2125 12.75 11.3906 12.6781 11.5344 12.5343C11.6781 12.3904 11.75 12.2122 11.75 11.9997C11.75 11.7871 11.6781 11.609 11.5344 11.4654C11.3906 11.3218 11.2125 11.25 11 11.25H8.74995V8.99998C8.74995 8.78748 8.67805 8.60935 8.53425 8.4656C8.39043 8.32187 8.21223 8.25 7.99965 8.25C7.78705 8.25 7.60896 8.32187 7.46537 8.4656C7.32179 8.60935 7.25 8.78748 7.25 8.99998V11.25H4.99997C4.78747 11.25 4.60936 11.3219 4.46563 11.4657C4.32188 11.6095 4.25 11.7877 4.25 12.0003C4.25 12.2129 4.32188 12.391 4.46563 12.5346C4.60936 12.6782 4.78747 12.75 4.99997 12.75H7.25ZM2.3077 19.5C1.80257 19.5 1.375 19.325 1.025 18.975C0.675 18.625 0.5 18.1974 0.5 17.6923V2.3077C0.5 1.80257 0.675 1.375 1.025 1.025C1.375 0.675 1.80257 0.5 2.3077 0.5H9.50193C9.74579 0.5 9.97823 0.546801 10.1993 0.640401C10.4203 0.733984 10.6128 0.862826 10.7769 1.02693L14.973 5.22303C15.1371 5.38714 15.266 5.5797 15.3595 5.8007C15.4531 6.02172 15.5 6.25416 15.5 6.49803V17.6923C15.5 18.1974 15.325 18.625 14.975 18.975C14.625 19.325 14.1974 19.5 13.6922 19.5H2.3077ZM9.5 5.59995V1.99998H2.3077C2.23077 1.99998 2.16024 2.03203 2.09612 2.09613C2.03202 2.16024 1.99997 2.23077 1.99997 2.3077V17.6923C1.99997 17.7692 2.03202 17.8397 2.09612 17.9038C2.16024 17.9679 2.23077 18 2.3077 18H13.6922C13.7692 18 13.8397 17.9679 13.9038 17.9038C13.9679 17.8397 14 17.7692 14 17.6923V6.49995H10.3998C10.1448 6.49995 9.93111 6.4137 9.75868 6.2412C9.58623 6.0687 9.5 5.85495 9.5 5.59995Z" fill="#006D35"/>
</svg>
